<svg width="291" height="166" viewBox="0 0 291 166" fill="none" xmlns="http://www.w3.org/2000/svg">
<path fill-rule="evenodd" clip-rule="evenodd" d="M143.494 0.291376C144.693 1.13838 144.654 3.12538 143.384 6.00038C143.303 6.18338 143.054 6.74538 142.831 7.25038C142.607 7.75438 142.256 8.57938 142.05 9.08338C141.843 9.58738 141.575 10.2254 141.453 10.5004C141.331 10.7754 140.996 11.5624 140.709 12.2504C140.422 12.9374 140.087 13.7254 139.965 14.0004C139.843 14.2754 139.594 14.8754 139.412 15.3334C139.23 15.7914 138.914 16.5794 138.709 17.0834C138.504 17.5874 138.2 18.3374 138.034 18.7504C137.868 19.1624 137.567 20.0254 137.365 20.6664C137.164 21.3084 136.859 22.2094 136.687 22.6704C136.516 23.1304 136.376 23.6014 136.376 23.7184C136.376 23.8354 136.235 24.3964 136.062 24.9654C133.961 31.9024 133.727 41.8824 135.603 44.5514C135.915 44.9944 136.293 45.5774 136.445 45.8454C136.596 46.1134 136.848 46.5314 137.006 46.7724C137.163 47.0134 137.475 47.5204 137.698 47.8974C137.921 48.2744 138.165 48.5834 138.24 48.5834C138.314 48.5834 138.376 48.6864 138.376 48.8124C138.376 49.0454 140.393 51.2504 140.606 51.2504C140.671 51.2504 141.114 51.5364 141.591 51.8864C142.068 52.2364 142.572 52.5754 142.709 52.6394C142.847 52.7034 143.297 52.9774 143.709 53.2494C144.121 53.5214 144.609 53.8184 144.792 53.9104C144.976 54.0024 145.426 54.2644 145.792 54.4934C146.159 54.7214 146.75 55.0794 147.107 55.2874C147.911 55.7584 147.972 55.7964 149.717 56.9184C150.5 57.4214 151.26 57.9084 151.406 58.0004C152.051 58.4064 153.633 59.4974 153.709 59.5894C153.786 59.6824 155.303 60.6494 156.342 61.2684C159.905 63.3894 165.132 65.9874 169.042 67.5794C169.547 67.7844 170.28 68.0944 170.672 68.2674C171.064 68.4414 171.476 68.5864 171.588 68.5894C171.701 68.5924 172.092 68.7394 172.459 68.9164C172.826 69.0934 173.217 69.2414 173.33 69.2444C173.442 69.2474 173.892 69.4094 174.33 69.6034C176.291 70.4744 176.566 70.5834 176.813 70.5834C176.957 70.5834 177.312 70.6924 177.6 70.8244C178.219 71.1084 179.914 71.7104 180.626 71.8984C180.901 71.9714 181.366 72.1554 181.659 72.3074C181.952 72.4594 182.297 72.5834 182.425 72.5834C182.553 72.5834 182.903 72.7054 183.203 72.8554C183.503 73.0054 183.983 73.1844 184.27 73.2544C184.557 73.3244 185.167 73.5134 185.626 73.6744C187.236 74.2394 188.137 74.5364 189.376 74.9104C190.063 75.1184 191.001 75.4204 191.459 75.5814C193.247 76.2094 194.613 76.5594 198.876 77.4864C200.863 77.9184 202.622 76.9554 206.459 73.3364C209.636 70.3404 209.909 70.0994 210.851 69.4494C211.342 69.1104 211.867 68.7564 212.018 68.6634C212.169 68.5694 212.622 68.2694 213.026 67.9964C213.429 67.7234 213.879 67.4254 214.025 67.3334C214.171 67.2414 214.479 67.0444 214.708 66.8944C215.887 66.1234 217.432 66.2264 218.067 67.1184C218.455 67.6634 218.452 68.4424 218.04 73.5004C217.795 76.5084 218.204 79.2504 218.898 79.2504C218.977 79.2504 219.042 79.3484 219.042 79.4684C219.042 81.3354 230.579 82.7434 235.376 81.4624C236.603 81.1344 239.144 79.9814 240.459 79.1544C240.826 78.9244 241.257 78.6924 241.417 78.6404C241.578 78.5874 241.709 78.4964 241.709 78.4364C241.709 78.3774 242.009 78.1434 242.376 77.9164C242.742 77.6904 243.042 77.4474 243.042 77.3774C243.042 77.3074 243.12 77.2504 243.215 77.2504C243.431 77.2504 246.91 74.4674 247.092 74.1494C247.166 74.0214 247.292 73.9164 247.374 73.9164C247.556 73.9164 249.287 72.3164 252.792 68.9074C254.259 67.4804 255.717 66.0934 256.033 65.8234C256.349 65.5544 256.77 65.1644 256.969 64.9584C257.168 64.7524 257.416 64.5834 257.52 64.5834C257.624 64.5834 257.709 64.5214 257.709 64.4454C257.709 64.3704 258.212 63.9014 258.826 63.4044C259.441 62.9074 260.111 62.3504 260.317 62.1664C260.522 61.9834 261.009 61.5704 261.399 61.2504C261.79 60.9294 262.491 60.3294 262.958 59.9164C263.425 59.5044 264.168 58.8664 264.609 58.5004C265.051 58.1334 265.533 57.7024 265.681 57.5414C265.829 57.3814 266.046 57.2504 266.163 57.2504C266.28 57.2504 266.376 57.1774 266.376 57.0894C266.376 56.9544 267.742 55.9164 268.689 55.3334C268.837 55.2414 268.997 55.1214 269.042 55.0664C269.136 54.9544 270.407 54.1324 271.042 53.7734C271.271 53.6434 271.646 53.4294 271.876 53.2974C273.759 52.2114 278.058 50.0194 280.542 48.8774C280.955 48.6874 281.483 48.4364 281.716 48.3194C283.604 47.3684 288.142 46.0854 288.996 46.2624C290.259 46.5224 290.998 47.8034 290.569 48.9884C290.463 49.2834 290.376 49.6164 290.376 49.7294C290.376 50.0544 289.152 52.7414 288.772 53.2504C288.599 53.4824 287.459 56.0624 286.673 58.0004C286.487 58.4584 286.194 59.1214 286.022 59.4744C285.85 59.8264 285.706 60.2014 285.703 60.3074C285.7 60.4134 285.553 60.8004 285.376 61.1664C285.199 61.5334 285.051 61.9204 285.048 62.0264C285.045 62.1324 284.902 62.5074 284.729 62.8594C284.557 63.2114 284.247 63.9124 284.041 64.4164C283.519 65.6894 282.164 68.4814 282.017 68.5864C281.951 68.6344 281.818 68.8594 281.722 69.0864C281.626 69.3144 281.361 69.8004 281.133 70.1664C280.905 70.5334 280.593 71.0584 280.44 71.3334C280.287 71.6084 280.114 71.8704 280.055 71.9164C279.996 71.9624 279.69 72.4124 279.376 72.9164C279.061 73.4214 278.762 73.8704 278.712 73.9164C278.662 73.9624 278.328 74.4314 277.971 74.9584C277.613 75.4854 277.258 75.9164 277.181 75.9164C277.105 75.9164 277.042 76.0044 277.042 76.1114C277.042 76.2184 276.929 76.4244 276.791 76.5694C276.652 76.7144 275.559 78.0704 274.36 79.5834C273.161 81.0954 272.093 82.4104 271.986 82.5044C271.88 82.5974 271.717 82.7924 271.626 82.9374C271.534 83.0814 271.236 83.5304 270.964 83.9334C269.17 86.5944 268.771 88.7564 269.29 93.0004C269.447 94.2834 269.608 96.1584 269.648 97.1664C269.688 98.1754 269.864 100.012 270.04 101.25C271.122 108.868 270.793 113.906 268.694 121.875C267.03 128.19 266.673 129.094 265.688 129.488C264.199 130.084 262.902 129.134 262.373 127.06C262.228 126.492 261.506 124.444 261.235 123.833C261.154 123.65 260.925 123.125 260.725 122.666C260.526 122.208 260.216 121.556 260.036 121.217C259.856 120.878 259.709 120.517 259.709 120.415C259.709 120.239 257.86 116.383 257.272 115.333C257.118 115.058 256.914 114.683 256.818 114.5C255.925 112.787 255.337 111.677 254.874 110.833C254.572 110.283 253.821 108.858 253.204 107.666C250.435 102.317 250.227 101.96 249.82 101.853C249.393 101.742 247.891 102.002 247.131 102.32C246.785 102.465 246.395 102.583 246.264 102.583C246.133 102.583 245.716 102.733 245.336 102.916C244.957 103.1 244.55 103.25 244.432 103.25C244.314 103.25 243.897 103.395 243.505 103.572C243.113 103.75 242.342 104.059 241.792 104.259C239.354 105.147 236.492 106.339 233.709 107.626C233.205 107.859 232.267 108.289 231.626 108.581C230.716 108.994 226.212 111.172 224.334 112.105C223.333 112.602 221.404 113.477 219.792 114.166C219.517 114.283 218.88 114.564 218.376 114.79C217.872 115.015 216.372 115.669 215.042 116.244C213.713 116.818 212.326 117.422 211.959 117.587C211.592 117.752 210.842 118.054 210.292 118.26C209.742 118.465 209.067 118.728 208.792 118.844C208.123 119.126 206.42 119.739 205.759 119.936C205.466 120.023 205.016 120.204 204.759 120.337C204.502 120.471 204.18 120.582 204.042 120.583C203.905 120.584 203.572 120.7 203.303 120.84C203.034 120.98 202.547 121.162 202.22 121.244C201.893 121.327 201.251 121.524 200.792 121.684C200.334 121.843 199.584 122.104 199.126 122.263C198.667 122.422 197.692 122.717 196.959 122.917C196.226 123.118 195.155 123.425 194.581 123.599C194.006 123.774 193.411 123.916 193.259 123.916C193.107 123.916 192.49 124.061 191.887 124.238C190.598 124.617 188.829 125.089 186.916 125.565C186.159 125.753 184.959 126.054 184.249 126.235C180.131 127.281 173.769 128.474 171.376 128.649C168.06 128.892 165.961 129.55 165.771 130.408C165.719 130.642 165.609 131.095 165.527 131.416C165.311 132.26 165.348 135.023 165.607 137.333C165.813 139.173 165.938 139.757 166.643 142.166C166.777 142.625 166.988 143.375 167.112 143.833C167.237 144.291 167.43 144.929 167.543 145.25C168.181 147.06 168.435 147.749 168.741 148.5C168.928 148.958 169.229 149.708 169.41 150.166C169.591 150.625 169.889 151.337 170.073 151.75C170.256 152.162 170.505 152.725 170.626 153C171.388 154.727 171.815 155.662 172.414 156.916C172.786 157.695 173.143 158.445 173.207 158.583C173.271 158.72 173.402 158.983 173.497 159.166C176.216 164.385 172.716 166.949 166.586 164.23C166.197 164.057 165.83 163.916 165.771 163.916C165.549 163.916 162.612 162.478 162.292 162.213C162.201 162.136 161.751 161.835 161.292 161.543C160.834 161.251 160.422 160.969 160.376 160.917C160.33 160.865 159.88 160.564 159.376 160.25C158.871 159.935 158.422 159.635 158.376 159.583C158.294 159.49 156.611 158.333 156.067 157.996C155.916 157.903 155.463 157.603 155.06 157.33C154.657 157.056 154.207 156.756 154.06 156.663C153.913 156.569 153.463 156.269 153.06 155.996C152.657 155.723 152.207 155.423 152.06 155.33C151.803 155.166 150.724 154.441 149.957 153.916C149.756 153.779 149.375 153.518 149.109 153.336C148.679 153.042 145.452 150.649 143.095 148.876C142.619 148.518 142.057 148.058 141.845 147.853C141.633 147.648 140.334 146.437 138.959 145.163C135.865 142.295 135.664 142.089 133.376 139.429C130.288 135.84 128.778 134.583 127.554 134.583C127.348 134.583 126.193 134.433 124.986 134.25C123.78 134.067 121.705 133.761 120.376 133.572C119.047 133.382 117.134 133.087 116.126 132.918C115.117 132.748 113.008 132.444 111.438 132.242L108.585 131.876L107.961 132.3C107.078 132.899 105.8 134.065 102.901 136.913C101.513 138.277 99.9259 139.747 99.3759 140.179C98.8259 140.612 98.3759 141.029 98.3759 141.108C98.3759 141.186 98.2669 141.25 98.1339 141.25C98.0009 141.25 97.8319 141.355 97.7589 141.485C97.6319 141.708 96.1309 142.954 95.1289 143.666C94.8719 143.85 94.5429 144.131 94.3979 144.291C94.2529 144.452 94.0769 144.583 94.0069 144.583C93.9369 144.583 93.7469 144.691 93.5859 144.823C91.4049 146.603 90.8649 146.916 89.9699 146.916C88.2129 146.916 87.6799 145.67 88.1059 142.561C89.1109 135.228 89.0519 133.259 87.8279 133.252C87.5729 133.251 86.7479 133.107 85.9949 132.933C85.2419 132.759 83.8759 132.456 82.9589 132.259C82.0419 132.063 80.6919 131.764 79.9589 131.594C79.2259 131.424 77.8759 131.117 76.9589 130.913C74.9979 130.475 74.4929 130.345 73.7089 130.077C71.2879 129.247 70.3119 128.861 67.7089 127.706C67.2049 127.482 66.3989 127.138 65.9169 126.941C63.1339 125.802 62.7199 125.583 61.8149 124.765C60.9109 123.947 59.8759 121.853 59.8759 120.843C59.8759 120.5 59.8199 120.49 58.1919 120.555C56.0829 120.64 52.9989 119.969 50.3189 118.842C50.0289 118.72 49.3799 118.455 48.8759 118.253C48.3719 118.051 47.6589 117.752 47.2919 117.589C46.9259 117.425 46.1379 117.086 45.5419 116.835C44.5759 116.428 42.8909 115.544 41.2089 114.563C40.8879 114.376 40.3489 114.004 40.0099 113.736C39.6719 113.469 39.3219 113.25 39.2329 113.25C39.1429 113.25 39.0449 113.193 39.0149 113.125C38.9609 113.005 37.8159 112.11 37.0419 111.583C36.2689 111.056 35.1229 110.161 35.0699 110.041C35.0399 109.973 34.9319 109.916 34.8309 109.916C34.7299 109.916 34.4919 109.775 34.3029 109.603C34.0209 109.346 31.0759 107.303 30.0699 106.666C27.5999 105.104 23.8089 101.701 16.7609 94.7224C14.1159 92.1024 14.1919 92.1844 12.9929 90.6734C12.5529 90.1204 12.0849 89.5344 11.9509 89.3734C11.8179 89.2114 11.7089 89.0444 11.7089 89.0014C11.7089 88.9584 11.4089 88.5284 11.0429 88.0454C10.6769 87.5624 10.3769 87.0824 10.3759 86.9784C10.3759 86.8754 10.2649 86.6984 10.1289 86.5864C9.99391 86.4734 9.78188 86.1834 9.65988 85.9404C9.39488 85.4174 9.0099 84.7524 8.8299 84.5084C8.7579 84.4124 8.46688 83.9584 8.18188 83.5004C7.89788 83.0414 7.52491 82.4634 7.35291 82.2154C7.18191 81.9664 7.0419 81.6484 7.0419 81.5064C7.0419 81.3654 6.9759 81.2504 6.8959 81.2504C6.8149 81.2504 6.64888 81.0064 6.52588 80.7084C6.40288 80.4104 5.9249 79.5014 5.4639 78.6884C5.0029 77.8754 4.3569 76.7134 4.0289 76.1054C3.7009 75.4974 3.2729 74.7374 3.0759 74.4164C1.8709 72.4444 0.662889 69.3634 0.298889 67.3334C-0.0261108 65.5244 -0.111099 61.6714 0.166901 61.3924C0.281901 61.2774 0.375885 61.0524 0.375885 60.8914C0.375885 60.5334 2.43788 58.4274 3.12589 58.0834C3.40089 57.9464 3.66289 57.7884 3.70889 57.7334C3.89589 57.5074 6.62489 56.3114 8.62589 55.5784C9.17589 55.3774 10.0179 55.0684 10.4979 54.8914C12.1279 54.2924 13.1229 53.9554 14.3759 53.5794C15.0629 53.3734 16.0379 53.0734 16.5419 52.9144C17.9409 52.4724 19.4939 51.9934 20.8759 51.5774C21.5629 51.3714 22.5379 51.0734 23.0419 50.9164C23.5469 50.7594 24.5209 50.4634 25.2089 50.2574C25.8959 50.0514 26.8719 49.7514 27.3759 49.5904C27.8799 49.4284 28.8549 49.1244 29.5419 48.9124C30.2299 48.7014 31.1669 48.3984 31.6259 48.2394C32.0839 48.0804 33.0589 47.7564 33.7919 47.5194C34.5259 47.2824 35.6509 46.8924 36.2919 46.6524C38.5639 45.8014 39.1559 45.5884 42.0419 44.5764C43.6459 44.0144 45.2969 43.4564 45.7089 43.3374C46.1219 43.2184 46.7219 43.0094 47.0419 42.8744C47.3629 42.7384 47.8879 42.5354 48.2089 42.4224C48.5299 42.3104 49.2799 42.0334 49.8759 41.8084C50.4719 41.5834 51.1989 41.3254 51.4919 41.2354C51.7849 41.1454 52.2349 40.9624 52.4919 40.8294C52.7489 40.6954 53.0879 40.5854 53.2459 40.5844C53.4039 40.5834 53.8539 40.4424 54.2459 40.2704C55.0489 39.9184 56.3759 39.4474 57.1259 39.2494C57.4009 39.1764 58.2629 38.8764 59.0419 38.5834C59.8219 38.2904 60.6839 37.9894 60.9589 37.9154C61.2339 37.8414 62.0969 37.5454 62.8759 37.2584C63.6549 36.9714 64.6299 36.6354 65.0419 36.5124C65.4549 36.3884 66.0549 36.1954 66.3759 36.0824C68.2539 35.4214 68.7509 35.2594 69.9589 34.9174C70.6919 34.7104 71.7419 34.4014 72.2919 34.2324C72.8419 34.0634 73.8169 33.7784 74.4589 33.6014C75.1009 33.4234 76.1509 33.1294 76.7919 32.9494C82.5249 31.3364 82.4799 31.3434 87.5799 31.3194L92.0349 31.2984L93.4969 29.7444C96.0109 27.0714 103.249 19.9164 103.439 19.9164C103.472 19.9164 103.869 19.5604 104.321 19.1254C104.773 18.6894 105.814 17.7734 106.634 17.0894C107.455 16.4054 108.248 15.7304 108.397 15.5894C108.546 15.4484 108.877 15.1834 109.132 15.0004C109.965 14.4014 110.787 13.7624 111.056 13.5034C111.202 13.3644 111.402 13.2504 111.501 13.2504C111.6 13.2504 111.706 13.1904 111.737 13.1184C111.767 13.0454 112.13 12.7584 112.542 12.4794C112.955 12.2014 113.667 11.7204 114.126 11.4114C114.584 11.1034 114.996 10.8034 115.042 10.7464C115.088 10.6894 115.238 10.5904 115.376 10.5264C115.513 10.4634 115.963 10.1894 116.376 9.91738C116.788 9.64538 117.276 9.34837 117.459 9.25637C117.642 9.16437 118.092 8.90438 118.459 8.67838C119.959 7.75438 121.176 7.08438 124.334 5.44438C124.54 5.33738 124.878 5.16238 125.084 5.05538C126.987 4.06738 129.635 2.83638 130.209 2.67438C130.438 2.60938 131.001 2.42037 131.459 2.25337C136.436 0.441374 142.344 -0.521624 143.494 0.291376Z" fill="#0CD4E4"/>
</svg>
