<svg width="368" height="195" viewBox="0 0 368 195" fill="none" xmlns="http://www.w3.org/2000/svg">
<path fill-rule="evenodd" clip-rule="evenodd" d="M230.637 104.819C220.641 105.413 212.906 109.697 206.446 118.216C205.404 119.591 203.683 121.795 202.622 123.113C201.562 124.431 200.244 126.083 199.694 126.785C198.581 128.205 196.823 130.301 194.444 133.046C185.44 143.437 182.963 145.291 174.194 148.205C171.912 148.964 171.333 149.143 168.778 149.886C167.907 150.139 166.482 150.568 165.611 150.84C161.574 152.1 160.041 152.548 157.485 153.211C155.292 153.781 152.346 154.639 149.944 155.407C149.257 155.627 148.507 155.956 148.278 156.138L147.861 156.47L148.329 156.885C149.19 157.649 153.459 157.25 161.278 155.676C162.882 155.353 164.382 155.057 164.611 155.018C164.84 154.978 165.665 154.807 166.444 154.636C167.223 154.465 168.686 154.163 169.694 153.963C170.703 153.764 172.203 153.461 173.028 153.292C173.853 153.122 175.315 152.821 176.278 152.624C179.533 151.957 181.106 151.634 182.653 151.312C184.844 150.856 187.425 150.327 189.361 149.936C192.424 149.317 196.903 148.379 198.778 147.963C202.987 147.029 208.095 145.825 209.861 145.351C210.411 145.203 211.123 145.028 211.444 144.962C211.765 144.897 212.928 144.603 214.028 144.309C215.128 144.016 216.571 143.631 217.236 143.454C217.901 143.277 218.988 142.988 219.653 142.811C222.632 142.018 225.394 141.346 228.569 140.641C229.417 140.453 230.786 140.149 231.611 139.966C232.436 139.783 233.767 139.487 234.569 139.309C236.602 138.858 241.007 137.953 244.361 137.298C245.369 137.101 246.944 136.789 247.861 136.604C251.891 135.791 252.624 135.644 254.278 135.319C259.155 134.359 264.654 133.615 271.278 133.02L272.528 132.908L271.278 132.336C269.74 131.631 267.314 130.736 265.487 130.199C260.586 128.759 259.695 128.551 256.528 128.115C253.442 127.69 242.932 127.42 238.111 127.642C228.515 128.084 226.253 127.99 223.9 127.047C218.374 124.833 226.239 119.799 237.548 118.311C238.178 118.229 239.594 118.042 240.694 117.897C241.836 117.747 245.198 117.562 248.528 117.467C256.301 117.246 257.474 116.991 258.415 115.315C258.898 114.456 258.872 113.98 258.299 113.189C255.703 109.605 245.058 105.266 237.944 104.893C233.872 104.68 233.115 104.672 230.637 104.819ZM54.2773 123.45C45.4283 124.638 41.8383 127.43 41.7833 133.166L41.7783 133.783L42.5693 133.533C43.0053 133.396 44.6363 133.022 46.1943 132.703C47.7533 132.384 49.4403 132.017 49.9443 131.887C50.9883 131.619 53.6543 131.021 54.2783 130.914C54.5073 130.875 56.0073 130.579 57.6113 130.257C59.2153 129.934 61.5783 129.505 62.8613 129.304C65.5903 128.877 68.1353 128.359 72.8613 127.269C75.4133 126.68 75.3403 126.736 74.2293 126.234C71.5653 125.029 67.9603 123.938 65.2783 123.523C62.7163 123.128 56.9653 123.09 54.2773 123.45ZM57.9443 148.322C53.8023 148.43 50.3823 148.698 45.4863 149.3C43.9963 149.483 41.5213 149.787 39.9863 149.976C38.4513 150.164 36.0693 150.459 34.6943 150.631C33.3193 150.803 30.7693 151.104 29.0283 151.3C23.3263 151.942 21.7673 152.341 12.8333 155.443C10.1303 156.382 7.11133 157.702 7.11133 157.945C7.11133 158.006 8.06733 158.516 9.23633 159.08C13.6893 161.225 17.4703 162.434 21.1113 162.875C21.6153 162.936 23.0783 163.126 24.3613 163.297C25.6443 163.469 27.9323 163.766 29.4443 163.958C30.9573 164.15 33.0573 164.418 34.1113 164.552C39.3913 165.225 49.5213 165.246 63.3613 164.612C65.3783 164.519 71.1153 164.419 76.1113 164.389C82.0193 164.353 85.9813 164.257 87.4443 164.113C88.8383 163.976 91.9783 163.89 95.6953 163.887L101.695 163.883L100.735 163.084C98.6213 161.325 91.0213 155.521 89.7783 154.716C82.0783 149.733 73.0943 147.928 57.9443 148.322Z" fill="#F3F3F3"/>
<path fill-rule="evenodd" clip-rule="evenodd" d="M178.279 0.801518C177.041 1.24252 175.701 1.72552 175.3 1.87452C174.456 2.18852 171.963 3.41452 171.112 3.93452C170.791 4.13052 170.266 4.44552 169.945 4.63352C165.924 6.99352 161.597 10.8805 157.2 16.0855C157.106 16.1975 156.916 16.4185 156.779 16.5785C156.266 17.1745 154.353 19.6075 154.112 19.9695C153.974 20.1765 153.712 20.5425 153.529 20.7815C152.855 21.6605 152.445 22.2905 152.445 22.4455C152.445 22.5335 152.382 22.6305 152.304 22.6605C152.173 22.7125 151.461 23.7565 151.017 24.5495C150.914 24.7335 150.669 25.1455 150.472 25.4665C150.274 25.7875 149.962 26.3495 149.778 26.7165C149.594 27.0835 149.271 27.6835 149.062 28.0495C148.644 28.7805 147.603 30.6875 147.334 31.2165C147.24 31.3995 147.077 31.7185 146.971 31.9245C146.865 32.1315 146.692 32.4685 146.586 32.6745C146.48 32.8815 146.332 33.1625 146.256 33.2995C146.18 33.4375 145.886 34.0375 145.602 34.6335C145.107 35.6715 144.971 35.9435 144.621 36.5915C144.32 37.1515 142.261 41.5305 141.115 44.0495C140.823 44.6915 140.408 45.5915 140.192 46.0495C139.976 46.5085 139.49 47.5585 139.111 48.3835C138.396 49.9405 137.943 50.8455 136.4 53.7995C135.319 55.8685 134.621 57.1555 133.779 58.6335C133.107 59.8105 132.391 61.1085 131.481 62.7995C131.16 63.3955 130.796 64.0015 130.671 64.1465C130.547 64.2915 130.445 64.4625 130.445 64.5265C130.445 64.5915 130.052 65.2115 129.57 65.9035C129.089 66.5965 128.584 67.3245 128.448 67.5225C128.312 67.7215 128.106 67.9435 127.99 68.0165C127.874 68.0895 127.779 68.2585 127.779 68.3915C127.779 68.5245 127.719 68.6335 127.646 68.6335C127.572 68.6335 127.2 68.9335 126.819 69.2995C126.437 69.6665 126.053 69.9665 125.966 69.9665C125.878 69.9665 125.781 70.0325 125.751 70.1125C125.697 70.2545 123.567 71.9165 122.267 72.8315C121.5 73.3715 118.279 74.9425 116.779 75.5085C114.917 76.2115 112.481 76.8395 105.904 78.3115C105.056 78.5015 103.8 78.7955 103.112 78.9665C102.425 79.1365 101.187 79.4285 100.362 79.6155C99.5369 79.8025 98.2079 80.1085 97.4099 80.2945C96.6109 80.4805 95.7629 80.6335 95.5239 80.6335C95.2859 80.6335 94.3649 80.7875 93.4769 80.9755C92.5889 81.1635 91.1119 81.4695 90.1949 81.6565C88.5779 81.9855 87.2779 82.2845 84.8619 82.8835C84.2199 83.0425 83.3949 83.2245 83.0289 83.2875C82.6619 83.3505 81.9869 83.5215 81.5289 83.6675C81.0699 83.8125 80.1329 84.0985 79.4449 84.3025C76.2269 85.2575 71.6709 86.8005 69.5699 87.6475C69.1349 87.8225 68.4219 88.1085 67.9869 88.2825C66.2899 88.9595 61.2489 91.1045 59.6119 91.8445C58.0619 92.5455 55.2109 93.9165 53.9449 94.5685C53.3489 94.8755 51.7369 95.6955 50.3619 96.3895C48.9869 97.0845 47.2999 97.9575 46.6119 98.3295C45.9249 98.7025 44.8739 99.2695 44.2789 99.5895C43.6829 99.9105 42.8949 100.349 42.5289 100.564C42.1619 100.779 41.5619 101.117 41.1949 101.316C40.8289 101.516 40.4909 101.725 40.4449 101.781C40.3999 101.837 40.0249 102.063 39.6119 102.283C39.1989 102.502 38.7069 102.821 38.5179 102.991C38.3289 103.161 38.1209 103.3 38.0559 103.3C37.9389 103.3 36.6039 104.132 36.4449 104.304C36.3999 104.354 35.9489 104.652 35.4449 104.967C34.9409 105.282 34.4909 105.58 34.4449 105.629C34.3999 105.678 34.0259 105.943 33.6159 106.217C28.6159 109.564 22.1409 115.587 17.7789 120.95C17.4579 121.344 17.0399 121.828 16.8489 122.025C16.6589 122.222 16.2469 122.721 15.9339 123.134C15.6209 123.546 15.2889 123.983 15.1969 124.104C15.1039 124.225 14.8969 124.448 14.7369 124.599C14.5769 124.751 14.4449 124.964 14.4449 125.073C14.4449 125.183 14.3799 125.298 14.2999 125.328C14.0979 125.406 12.4449 127.616 12.4449 127.809C12.4449 127.896 12.3869 127.967 12.3149 127.967C12.2429 127.967 12.0529 128.189 11.8919 128.461C11.7319 128.733 11.5089 129.055 11.3979 129.176C11.2859 129.298 11.1199 129.515 11.0289 129.657C10.9369 129.8 10.6389 130.247 10.3649 130.65C10.0919 131.054 9.7919 131.504 9.6989 131.652C9.6049 131.799 9.3049 132.249 9.0319 132.652C8.4239 133.549 8.2959 133.749 7.8159 134.569C7.6069 134.926 7.2769 135.479 7.0819 135.8C6.0149 137.552 2.4449 144.579 2.4449 144.926C2.4449 145.012 2.3159 145.338 2.1589 145.65C1.5629 146.829 0.547902 149.938 0.313902 151.3C-0.0420983 153.368 -0.0720977 153.958 0.107902 155.334C0.382902 157.442 0.432902 157.597 0.999902 158.135C2.8769 159.913 3.8149 160.467 10.1949 163.561C10.4699 163.694 10.9199 163.871 11.1949 163.954C11.4699 164.036 12.3329 164.344 13.1119 164.637C13.8909 164.931 14.7909 165.233 15.1119 165.309C15.4329 165.385 16.1079 165.56 16.6119 165.697C17.8239 166.029 20.8699 166.527 24.3619 166.964C25.9199 167.16 28.3199 167.464 29.6949 167.641C37.9979 168.711 42.0079 168.894 51.3619 168.633C54.9369 168.534 59.3239 168.379 61.1119 168.289C62.8989 168.2 68.9739 168.088 74.6119 168.042C81.9549 167.981 85.7599 167.881 88.0289 167.689C92.4349 167.316 98.6729 167.327 102.915 167.716L106.302 168.027L106.999 168.674C109.022 170.554 114.449 174.634 114.927 174.634C115.029 174.634 115.112 174.695 115.112 174.769C115.112 174.844 115.356 175.033 115.654 175.189C115.952 175.345 116.533 175.695 116.945 175.967C117.358 176.239 117.805 176.514 117.939 176.579C118.074 176.644 118.614 176.983 119.14 177.332C119.665 177.681 120.168 177.967 120.257 177.967C120.345 177.967 120.443 178.026 120.473 178.099C120.532 178.239 122.07 179.3 122.213 179.3C122.26 179.3 122.976 179.75 123.806 180.3C124.635 180.85 125.338 181.3 125.368 181.3C125.397 181.3 125.873 181.6 126.425 181.967C126.977 182.334 127.508 182.634 127.604 182.634C127.7 182.634 127.779 182.7 127.779 182.781C127.779 182.863 128.022 183.052 128.32 183.203C128.618 183.354 129.425 183.847 130.112 184.298C130.8 184.75 131.55 185.223 131.779 185.349C132.008 185.476 132.466 185.734 132.797 185.924C133.129 186.114 133.541 186.34 133.714 186.426C133.887 186.513 134.254 186.707 134.529 186.858C134.804 187.009 135.441 187.33 135.945 187.572C136.449 187.814 136.993 188.077 137.154 188.156C137.738 188.445 138.045 188.588 138.862 188.956C140.363 189.631 140.682 189.77 141.779 190.226C142.374 190.474 143.18 190.817 143.569 190.989C143.957 191.16 144.379 191.3 144.506 191.3C144.634 191.3 145.028 191.423 145.383 191.574C145.738 191.724 146.254 191.904 146.529 191.973C146.804 192.042 147.366 192.216 147.779 192.359C152.034 193.839 159.701 194.645 161.313 193.782C163.167 192.79 163.304 191.675 162.11 187.3C161.948 186.704 161.653 185.579 161.455 184.8C160.968 182.884 160.467 181.073 160.117 179.967C159.957 179.463 159.659 178.488 159.454 177.8C159.25 177.113 158.939 176.23 158.764 175.838C158.589 175.446 158.443 175.033 158.44 174.921C158.437 174.809 158.289 174.417 158.112 174.05C157.935 173.684 157.787 173.297 157.784 173.191C157.781 173.085 157.637 172.71 157.463 172.358C157.29 172.005 156.829 170.967 156.438 170.05C156.047 169.134 155.142 167.184 154.427 165.717C152.322 161.405 152.285 160.768 154.128 160.575C155.608 160.42 160.758 159.525 163.362 158.97C164.187 158.794 165.649 158.489 166.612 158.293C167.575 158.096 168.999 157.8 169.779 157.634C170.558 157.469 172.02 157.172 173.029 156.975C174.98 156.593 176.781 156.226 179.612 155.633C180.575 155.431 182.075 155.119 182.945 154.94C183.816 154.761 185.204 154.471 186.029 154.296C186.854 154.121 188.354 153.819 189.362 153.626C190.37 153.432 191.833 153.137 192.612 152.97C193.391 152.802 194.816 152.502 195.779 152.302C197.431 151.959 198.281 151.773 201.986 150.948C202.834 150.759 204.066 150.461 204.723 150.286C205.379 150.111 206.037 149.967 206.184 149.967C206.332 149.967 206.995 149.822 207.657 149.645C208.32 149.467 209.481 149.17 210.238 148.983C214.675 147.888 218.247 146.947 220.457 146.292C221.059 146.113 221.692 145.967 221.862 145.967C222.032 145.967 222.665 145.822 223.267 145.646C224.577 145.262 226.429 144.803 228.695 144.302C229.612 144.1 230.962 143.799 231.695 143.634C235.021 142.887 240.412 141.758 244.445 140.963C245.408 140.773 246.927 140.471 247.82 140.292C248.714 140.113 250.195 139.817 251.112 139.634C252.029 139.45 253.51 139.154 254.404 138.975C264.58 136.937 274.98 136.099 283.779 136.61C288.091 136.86 292.858 137.66 297.862 138.974C298.504 139.142 299.629 139.437 300.362 139.628C304.203 140.632 307.886 141.71 309.362 142.261C309.729 142.398 310.254 142.567 310.529 142.637C311.195 142.808 312.53 143.283 313.402 143.661C313.79 143.829 314.189 143.967 314.288 143.967C314.467 143.967 315.581 144.402 316.902 144.987C317.29 145.159 317.654 145.3 317.71 145.3C317.766 145.3 318.048 145.407 318.337 145.538C318.626 145.668 319.425 146.015 320.112 146.309C320.8 146.603 321.699 147.032 322.112 147.263C322.524 147.493 323.274 147.907 323.779 148.181C324.283 148.455 324.85 148.819 325.039 148.99C325.229 149.161 325.446 149.3 325.522 149.3C325.599 149.3 326.006 149.582 326.427 149.925C327.877 151.108 328.16 151.416 330.072 153.884C330.543 154.492 331.908 156.59 332.349 157.384C332.451 157.567 332.795 158.134 333.115 158.643C333.434 159.153 333.787 159.715 333.898 159.893C334.01 160.071 334.422 160.767 334.815 161.44C335.948 163.381 336.595 164.439 336.819 164.717C336.893 164.809 337.193 165.259 337.485 165.717C337.777 166.175 338.057 166.588 338.107 166.634C338.157 166.68 338.416 167.052 338.682 167.463C339.361 168.508 342.146 171.967 342.31 171.967C342.384 171.967 342.445 172.046 342.445 172.144C342.445 172.621 348.637 178.418 350.445 179.634C350.649 179.771 351.069 180.071 351.377 180.3C352.986 181.495 353.5 181.829 354.47 182.31C355.052 182.6 355.646 182.895 355.789 182.967C356.359 183.253 359.257 183.938 360.279 184.028C360.874 184.08 362.3 184.235 363.445 184.371C367.641 184.87 368.728 183.657 367.103 180.286C365.983 177.963 365.746 177.409 364.217 173.55C364.071 173.184 363.608 171.796 363.187 170.467C362.766 169.138 362.289 167.675 362.127 167.217C361.965 166.759 361.66 165.821 361.449 165.134C361.238 164.446 360.934 163.471 360.773 162.967C360.412 161.833 359.856 159.799 359.635 158.8C359.24 157.02 358.517 154.933 357.685 153.169C357.37 152.501 357.112 151.921 357.112 151.881C357.112 151.84 356.81 151.149 356.441 150.345C355.265 147.786 355.167 147.567 354.818 146.717C354.631 146.259 354.127 145.059 353.7 144.05C352.604 141.462 352.525 141.228 352.184 139.55C351.738 137.351 351.759 137.167 352.672 135.134C353.205 133.949 354.787 132.756 357.864 131.221C361.483 129.415 361.845 129.101 361.741 127.85C361.692 127.257 361.561 126.862 361.348 126.667C360.997 126.345 359.674 125.438 359.279 125.248C359.141 125.182 358.691 124.91 358.279 124.644C357.019 123.83 353.691 122.224 352.112 121.667C347.691 120.109 346.179 119.884 340.695 119.965C332.03 120.094 329.954 120.052 328.945 119.727C327.752 119.343 326.03 118.52 325.773 118.21C325.662 118.077 325.487 117.962 325.383 117.956C325.28 117.95 324.858 117.686 324.445 117.369C324.033 117.052 323.564 116.748 323.404 116.694C323.243 116.639 323.112 116.533 323.112 116.458C323.112 116.383 322.812 116.153 322.445 115.947C322.079 115.741 321.779 115.511 321.779 115.436C321.779 115.362 321.706 115.3 321.617 115.3C321.527 115.3 320.796 114.864 319.992 114.33C317.946 112.974 317.349 112.594 316.343 112.005C315.987 111.796 315.395 111.439 315.029 111.21C314.662 110.982 314.212 110.719 314.029 110.627C313.845 110.536 313.358 110.238 312.945 109.967C312.533 109.696 312.045 109.398 311.862 109.307C311.679 109.215 311.252 108.969 310.913 108.762C310.078 108.248 307.607 106.772 307.195 106.54C307.012 106.436 306.599 106.192 306.279 105.997C305.958 105.802 305.433 105.488 305.112 105.3C304.791 105.112 304.266 104.799 303.945 104.604C303.624 104.409 302.874 103.988 302.279 103.668C301.683 103.348 301.083 102.999 300.945 102.892C300.808 102.785 300.508 102.607 300.279 102.496C300.05 102.385 299.562 102.111 299.195 101.888C298.829 101.665 298.416 101.436 298.279 101.38C298.141 101.323 297.916 101.209 297.779 101.128C297.641 101.046 297.017 100.711 296.392 100.384C295.767 100.057 295.13 99.7195 294.976 99.6345C294.556 99.4035 290.838 97.6915 289.362 97.0495C289.087 96.9295 288.524 96.6825 288.112 96.4995C286.528 95.7975 279.481 92.7945 278.279 92.3085C277.866 92.1415 277.154 91.8525 276.695 91.6655C275.857 91.3225 274.767 90.9135 272.99 90.2755C272.461 90.0855 271.708 89.7885 271.316 89.6145C270.924 89.4415 270.47 89.2995 270.308 89.2995C270.145 89.2995 269.941 89.2315 269.854 89.1475C269.767 89.0635 269.245 88.8435 268.695 88.6585C268.145 88.4725 267.17 88.1255 266.529 87.8855C265.887 87.6455 265.175 87.3855 264.945 87.3065C264.716 87.2275 263.891 86.9235 263.112 86.6315C262.333 86.3385 261.47 86.0375 261.195 85.9605C260.92 85.8845 259.158 85.2895 257.279 84.6385C255.399 83.9885 253.524 83.3545 253.112 83.2295C252.699 83.1055 252.137 82.9245 251.862 82.8265C250.157 82.2195 246.007 80.9965 243.362 80.3205C239.515 79.3385 237.414 78.8435 234.779 78.2995C233.816 78.1015 232.429 77.8025 231.695 77.6365C230.962 77.4705 229.612 77.1745 228.695 76.9785C226.038 76.4105 222.062 75.5095 219.779 74.9565C219.091 74.7905 217.741 74.4955 216.779 74.3015C215.816 74.1065 214.354 73.8075 213.529 73.6375C210.259 72.9615 208.617 72.6325 206.862 72.3005C199.318 70.8745 197.465 70.4355 192.612 68.9265C187.231 67.2525 184.356 65.4145 181.859 62.0495C181.587 61.6835 181.326 61.3455 181.28 61.2995C181.233 61.2535 181.101 61.0665 180.985 60.8835C180.431 60.0085 180.12 59.5355 179.997 59.3835C179.81 59.1525 178.445 56.3365 178.445 56.1815C178.445 56.1125 178.302 55.6795 178.127 55.2195C176.102 49.8895 175.281 41.3575 176.095 34.0955C176.288 32.3785 176.445 30.6535 176.444 30.2615C176.442 28.6375 177.361 22.8535 178.106 19.7995C178.274 19.1125 178.578 17.7995 178.783 16.8835C179.184 15.0855 179.637 13.5285 180.133 12.2355C180.305 11.7885 180.445 11.3155 180.445 11.1865C180.445 11.0565 180.595 10.6395 180.779 10.2605C180.962 9.88152 181.112 9.49652 181.112 9.40652C181.112 9.25052 181.795 7.41752 182.115 6.71652C182.257 6.40552 182.661 5.27652 183.189 3.71652C183.765 2.01752 183.557 0.935517 182.534 0.303517C181.712 -0.204483 180.806 -0.0984817 178.279 0.801518ZM237.945 104.894C245.059 105.267 255.704 109.606 258.3 113.19C258.873 113.981 258.899 114.457 258.416 115.316C257.475 116.992 256.302 117.247 248.529 117.468C245.199 117.563 241.837 117.748 240.695 117.898C239.595 118.043 238.179 118.23 237.549 118.312C226.24 119.8 218.375 124.834 223.901 127.048C226.254 127.991 228.516 128.085 238.112 127.643C242.933 127.421 253.443 127.691 256.529 128.116C259.696 128.552 260.587 128.76 265.488 130.2C267.315 130.737 269.741 131.632 271.279 132.337L272.529 132.909L271.279 133.021C264.655 133.616 259.156 134.36 254.279 135.32C252.625 135.645 251.892 135.792 247.862 136.605C246.945 136.79 245.37 137.102 244.362 137.299C241.008 137.954 236.603 138.859 234.57 139.31C233.768 139.488 232.437 139.784 231.612 139.967C230.787 140.15 229.418 140.454 228.57 140.642C225.395 141.347 222.633 142.019 219.654 142.812C218.989 142.989 217.902 143.278 217.237 143.455C216.572 143.632 215.129 144.017 214.029 144.31C212.929 144.604 211.766 144.898 211.445 144.963C211.124 145.029 210.412 145.204 209.862 145.352C208.096 145.826 202.988 147.03 198.779 147.964C196.904 148.38 192.425 149.318 189.362 149.937C187.426 150.328 184.845 150.857 182.654 151.313C181.107 151.635 179.534 151.958 176.279 152.625C175.316 152.822 173.854 153.123 173.029 153.293C172.204 153.462 170.704 153.765 169.695 153.964C168.687 154.164 167.224 154.466 166.445 154.637C165.666 154.808 164.841 154.979 164.612 155.019C164.383 155.058 162.883 155.354 161.279 155.677C153.46 157.251 149.191 157.65 148.33 156.886L147.862 156.471L148.279 156.139C148.508 155.957 149.258 155.628 149.945 155.408C152.347 154.64 155.293 153.782 157.486 153.212C160.042 152.549 161.575 152.101 165.612 150.841C166.483 150.569 167.908 150.14 168.779 149.887C179.745 146.701 183.085 145.003 187.957 140.142C190.869 137.236 196.734 130.562 199.695 126.786C200.245 126.084 201.563 124.432 202.623 123.114C203.684 121.796 205.405 119.592 206.447 118.217C212.907 109.698 220.642 105.414 230.638 104.82C233.116 104.673 233.873 104.681 237.945 104.894ZM65.2789 123.524C67.9609 123.939 71.5659 125.03 74.2299 126.235C75.3409 126.737 75.4139 126.681 72.8619 127.27C68.1359 128.36 65.5909 128.878 62.8619 129.305C61.5789 129.506 59.2159 129.935 57.6119 130.258C56.0079 130.58 54.5079 130.876 54.2789 130.915C53.6549 131.022 50.9889 131.62 49.9449 131.888C49.4409 132.018 47.7539 132.385 46.1949 132.704C44.6369 133.023 43.0059 133.397 42.5699 133.534L41.7789 133.784L41.7839 133.167C41.8219 129.15 43.9369 126.296 47.9789 124.81C51.9739 123.342 60.1579 122.733 65.2789 123.524ZM71.1949 148.709C81.0909 149.776 86.1019 151.756 93.6949 157.598C98.8419 161.557 99.7679 162.279 100.736 163.085L101.696 163.884L95.6959 163.888C91.9789 163.891 88.8389 163.977 87.4449 164.114C85.9819 164.258 82.0199 164.354 76.1119 164.39C71.1159 164.42 65.3789 164.52 63.3619 164.613C49.5219 165.247 39.3919 165.226 34.1119 164.553C33.0579 164.419 30.9579 164.151 29.4449 163.959C27.9329 163.767 25.6449 163.47 24.3619 163.298C23.0789 163.127 21.6159 162.937 21.1119 162.876C17.4709 162.435 13.6899 161.226 9.2369 159.081C8.0679 158.517 7.1119 158.007 7.1119 157.946C7.1119 157.703 10.1309 156.383 12.8339 155.444C21.7679 152.342 23.3269 151.943 29.0289 151.301C30.7699 151.105 33.3199 150.804 34.6949 150.632C36.0699 150.46 38.4519 150.165 39.9869 149.977C41.5219 149.788 43.9969 149.484 45.4869 149.301C54.8049 148.156 64.0839 147.943 71.1949 148.709Z" fill="#0CD4E4"/>
</svg>
