<svg width="366" height="131" viewBox="0 0 366 131" fill="none" xmlns="http://www.w3.org/2000/svg">
<path fill-rule="evenodd" clip-rule="evenodd" d="M195.94 1.69624C195.556 2.00824 195.567 1.74823 195.672 7.93023C195.688 8.82423 195.646 9.55523 195.581 9.55523C195.386 9.55523 195.476 11.1282 195.679 11.2632C195.811 11.3522 195.814 11.4252 195.688 11.5132C195.511 11.6372 195.413 12.4882 195.383 14.1802C195.374 14.6612 195.315 15.0552 195.251 15.0552C195.188 15.0552 195.138 15.4112 195.141 15.8472C195.151 17.6452 194.478 21.8162 193.909 23.4722C193.72 24.0222 193.51 24.6972 193.441 24.9722C193.373 25.2472 193.01 26.3342 192.635 27.3882C192.259 28.4422 191.95 29.3422 191.949 29.3882C191.943 29.5632 191.724 30.1882 191.168 31.6252C190.574 33.1582 190.353 33.6652 189.258 36.0172C188.905 36.7752 188.617 37.4382 188.617 37.4912C188.617 37.5442 188.46 37.8072 188.268 38.0772C188.076 38.3462 187.903 38.6582 187.883 38.7692C187.77 39.4032 185.352 43.7192 183.807 46.0452C181.729 49.1752 181.066 49.7572 177.525 51.5632C174.345 53.1852 173.144 53.5762 169.367 54.2222C167.74 54.5002 166.356 54.7602 166.29 54.8012C166.225 54.8412 165.897 54.8932 165.561 54.9152C165.225 54.9382 164.95 55.0082 164.95 55.0712C164.95 55.1352 164.781 55.1852 164.575 55.1842C164.369 55.1832 164.013 55.2302 163.783 55.2902C163.554 55.3502 163.134 55.4222 162.85 55.4522C162.566 55.4812 162.257 55.5512 162.165 55.6092C162.072 55.6662 161.726 55.7462 161.395 55.7872C160.806 55.8602 158.102 56.4282 156.95 56.7202C156.629 56.8012 156.029 56.9152 155.617 56.9732C155.204 57.0302 154.549 57.1832 154.161 57.3132C153.773 57.4432 153.216 57.5912 152.925 57.6432C152.633 57.6942 152.346 57.7662 152.286 57.8042C152.226 57.8412 151.994 57.9082 151.772 57.9542C150.264 58.2632 146.331 59.1212 145.533 59.3162C145.35 59.3612 144.9 59.4372 144.533 59.4852C144.167 59.5332 143.717 59.6342 143.533 59.7082C143.35 59.7832 142.862 59.9262 142.45 60.0262C142.037 60.1272 140.013 60.6202 137.95 61.1232C134.079 62.0672 131.448 62.6302 130.079 62.8062C129.646 62.8622 129.247 62.9792 129.192 63.0672C129.138 63.1552 129.031 63.1882 128.954 63.1412C128.834 63.0672 127.611 63.2582 122.95 64.0802C122.446 64.1682 121.921 64.2452 121.783 64.2492C121.646 64.2542 121.158 64.3602 120.7 64.4842C120.242 64.6092 119.51 64.7282 119.075 64.7482C118.64 64.7682 118.283 64.8432 118.283 64.9142C118.283 64.9862 118.186 65.0072 118.066 64.9612C117.947 64.9152 117.591 64.9772 117.275 65.0992C116.132 65.5402 115.525 65.3982 115.585 64.7042C115.636 64.1232 114.939 63.2222 114.44 63.2222C114.358 63.2222 113.895 62.9712 113.412 62.6652C112.929 62.3592 112.046 61.8662 111.45 61.5692C110.284 60.9892 110.169 60.9322 109.283 60.4812C105.685 58.6522 104.53 59.4592 104.19 64.0392C104.14 64.7182 103.993 65.4772 103.864 65.7262C103.735 65.9762 103.675 66.2242 103.729 66.2792C103.872 66.4222 103.442 67.3882 103.235 67.3882C103.14 67.3882 103.105 67.4322 103.159 67.4862C103.384 67.7112 102.539 68.3722 101.888 68.4802C100.852 68.6522 100.784 68.6672 99.6174 68.9712C98.3014 69.3152 92.5724 69.8492 88.0334 70.0512C86.2004 70.1322 84.3624 70.2412 83.9504 70.2922C81.4754 70.6012 79.3804 70.7212 76.5574 70.7182C72.6294 70.7142 72.9524 70.8332 68.7754 67.8472C67.6204 67.0212 63.9394 64.0582 63.3034 63.4422C62.9934 63.1412 62.6894 62.9272 62.6274 62.9662C62.5644 63.0042 62.3314 62.8152 62.1094 62.5452C61.8864 62.2762 61.6564 62.0552 61.5984 62.0552C61.5394 62.0552 61.1484 61.7362 60.7284 61.3472C59.3794 60.0962 58.5724 59.3882 58.4934 59.3882C58.4514 59.3882 58.2184 59.1822 57.9754 58.9302C57.7324 58.6782 57.2334 58.2252 56.8674 57.9242C55.6414 56.9182 53.9604 55.3242 51.7384 53.0592C47.0624 48.2952 44.3104 45.5722 42.8814 44.2972C42.0634 43.5682 41.2714 42.8592 41.1204 42.7222C39.5914 41.3282 39.0694 40.8672 38.2914 40.2222C36.8184 39.0002 35.8934 38.2192 35.4504 37.8232C35.2214 37.6182 34.5834 37.1232 34.0334 36.7232C33.4834 36.3232 32.9964 35.9452 32.9504 35.8842C32.8224 35.7142 27.1564 31.4982 25.3544 30.2322C24.8894 29.9062 23.9514 29.2442 23.2714 28.7612C22.5904 28.2782 21.6344 27.6032 21.1474 27.2612C20.6594 26.9192 19.7224 26.2352 19.0634 25.7412C18.0804 25.0032 15.1964 23.0682 11.9504 20.9682C9.8064 19.5802 7.6804 18.4492 6.0174 17.8112C5.3844 17.5692 4.6384 17.2702 4.3594 17.1482C1.8634 16.0562 1.2984 15.9382 0.642396 16.3652C0.174396 16.6702 0.437397 17.7262 1.6234 20.3052C1.7924 20.6722 2.1544 21.5342 2.4294 22.2222C2.7044 22.9092 3.2024 24.1092 3.5354 24.8882C4.5664 27.2982 5.1174 28.6862 5.1174 28.8742C5.1174 29.0972 5.0494 29.0972 3.9314 28.8832C1.2974 28.3772 -0.602604 29.2482 0.176396 30.6052C0.328396 30.8692 0.409397 31.1532 0.358397 31.2362C0.306397 31.3202 0.343396 31.3882 0.440396 31.3882C0.537396 31.3882 0.617396 31.4952 0.617396 31.6242C0.617396 31.7542 0.679396 31.8862 0.756396 31.9162C0.832396 31.9472 1.1744 32.4592 1.5164 33.0552C1.8584 33.6512 2.3544 34.4762 2.6174 34.8882C2.8804 35.3012 3.1994 35.8262 3.3264 36.0552C3.8504 37.0052 4.0414 37.3102 4.1734 37.4072C4.2494 37.4632 4.3044 37.5582 4.2944 37.6182C4.2844 37.6772 4.5524 38.1572 4.8904 38.6822C5.9444 40.3252 6.4794 41.2502 7.3704 42.9722C10.2584 48.5572 10.8554 49.6832 11.1374 50.0812C11.3094 50.3242 11.4504 50.5732 11.4504 50.6352C11.4504 50.6962 11.7994 51.2852 12.2254 51.9422C12.9184 53.0122 13.2184 53.5072 13.8574 54.6382C13.9614 54.8222 14.3054 55.4082 14.6234 55.9412C14.9404 56.4742 15.2754 57.0392 15.3674 57.1972C15.5164 57.4552 15.8674 58.0222 17.0324 59.8882C18.4314 62.1292 18.8884 62.8322 19.0734 63.0252C19.1894 63.1462 19.2834 63.3532 19.2834 63.4842C19.2834 63.6152 19.3404 63.7242 19.4084 63.7262C19.4774 63.7292 19.7174 64.0292 19.9424 64.3932C20.1674 64.7572 20.4104 65.0552 20.4844 65.0552C20.5574 65.0552 20.6174 65.1342 20.6174 65.2312C20.6174 65.3282 20.9554 65.8722 21.3694 66.4392C21.7834 67.0072 22.8424 68.4842 23.7234 69.7212C25.8264 72.6742 27.5304 74.9242 27.9474 75.3022C28.1324 75.4702 28.2834 75.7082 28.2834 75.8312C28.2834 75.9542 28.3444 76.0552 28.4174 76.0552C28.4914 76.0552 28.8684 76.5052 29.2564 77.0552C29.6444 77.6052 30.0364 78.0552 30.1274 78.0552C30.7564 78.0552 29.7324 84.0992 28.1214 89.8882C27.7724 91.1452 27.4794 92.3562 27.0274 94.4202C26.2114 98.1452 25.5174 100.69 23.9214 105.805C22.9704 108.852 22.6264 109.858 21.9364 111.619C21.7604 112.067 21.6174 112.556 21.6174 112.707C21.6174 112.858 21.5184 113.129 21.3974 113.31C21.2754 113.49 20.9634 114.238 20.7034 114.972C20.1064 116.653 18.2854 120.891 17.4144 122.625C15.5624 126.312 15.3464 128.793 16.8234 129.405C17.8144 129.815 20.7354 129.259 22.5334 128.319C22.8084 128.175 23.1104 128.057 23.2034 128.056C23.3694 128.055 26.2624 126.597 27.1434 126.07C27.3874 125.924 27.9874 125.569 28.4774 125.281C28.9664 124.993 29.9294 124.37 30.6174 123.898C31.3044 123.426 32.1674 122.838 32.5334 122.592C34.1924 121.479 36.5014 119.688 37.1144 119.037C37.2534 118.89 37.9674 118.293 38.7004 117.711C39.4334 117.129 40.1834 116.5 40.3674 116.312C40.5504 116.124 40.8904 115.821 41.1234 115.638C41.3554 115.455 41.6744 115.12 41.8314 114.893C41.9884 114.666 42.1174 114.542 42.1174 114.618C42.1174 114.693 43.0924 113.762 44.2834 112.549C45.4754 111.335 46.4504 110.24 46.4504 110.115C46.4504 109.991 46.5094 109.907 46.5804 109.93C46.7874 109.996 47.8024 108.886 47.6944 108.712C47.6414 108.626 47.6764 108.555 47.7734 108.555C47.8714 108.555 48.0064 108.551 48.0754 108.546C48.1444 108.541 48.2974 108.351 48.4164 108.124C48.5354 107.898 48.7044 107.756 48.7914 107.81C48.8794 107.864 48.9504 107.825 48.9504 107.724C48.9504 107.623 49.3684 107.112 49.8804 106.589C51.2864 105.15 51.4504 104.955 51.4504 104.718C51.4504 104.598 51.4964 104.546 51.5534 104.603C51.6784 104.727 52.1174 104.315 52.1174 104.073C52.1174 103.978 52.2664 103.82 52.4484 103.723C52.6314 103.625 52.8964 103.32 53.0394 103.045C53.1814 102.769 53.3694 102.588 53.4574 102.643C53.5454 102.697 53.6174 102.654 53.6174 102.548C53.6174 102.355 54.7124 101.131 55.7424 100.172C56.0404 99.8952 56.2834 99.5302 56.2834 99.3622C56.2834 99.1932 56.3964 99.0552 56.5334 99.0552C56.6714 99.0552 56.7834 98.9992 56.7844 98.9302C56.7844 98.8612 57.2714 98.2882 57.8674 97.6572C58.4634 97.0252 58.9504 96.4712 58.9504 96.4262C58.9504 96.3802 59.1194 96.1792 59.3254 95.9772C59.7754 95.5382 60.6174 94.5472 60.6174 94.4562C60.6174 94.4202 60.8424 94.1762 61.1174 93.9132C61.3924 93.6512 61.6174 93.4032 61.6174 93.3642C61.6174 93.2652 62.8964 91.8062 63.6654 91.0282C64.0134 90.6762 64.2594 90.3882 64.2134 90.3882C64.1664 90.3882 64.3904 90.1262 64.7114 89.8052C65.0324 89.4842 65.2634 89.2222 65.2254 89.2222C65.1874 89.2222 65.4284 88.9402 65.7614 88.5952C66.6864 87.6372 67.6044 86.5562 67.7954 86.2002C67.8904 86.0232 68.0314 85.9192 68.1094 85.9672C68.1884 86.0162 68.2154 85.8872 68.1704 85.6802C68.1044 85.3792 68.1234 85.3542 68.2664 85.5552C68.4214 85.7712 68.4454 85.7652 68.4474 85.5132C68.4494 85.3532 68.5094 85.2402 68.5804 85.2632C68.6524 85.2862 68.9504 85.0612 69.2424 84.7632C69.9434 84.0472 69.7744 84.0362 76.6614 85.2452C77.7394 85.4342 78.9604 85.6202 79.3744 85.6592C79.7884 85.6982 80.7054 85.8442 81.4134 85.9842C82.1214 86.1242 83.0374 86.2762 83.4504 86.3222C83.8624 86.3682 84.8384 86.5202 85.6174 86.6592C86.3964 86.7982 87.6634 86.9822 88.4334 87.0672C89.2024 87.1522 90.1024 87.2932 90.4334 87.3792C90.7634 87.4662 91.4834 87.5832 92.0334 87.6402C92.9584 87.7352 94.2944 87.9352 95.4084 88.1462C95.6604 88.1932 96.2044 88.2712 96.6174 88.3182C97.0294 88.3662 97.9524 88.5172 98.6684 88.6532C99.3834 88.7902 100.321 88.9292 100.751 88.9612C101.441 89.0132 102.638 89.2002 104.075 89.4822C104.327 89.5322 104.871 89.6062 105.283 89.6482C105.696 89.6902 106.633 89.8342 107.367 89.9692C108.1 90.1032 109.3 90.2952 110.033 90.3942C110.767 90.4942 111.967 90.6812 112.7 90.8112C113.433 90.9412 114.408 91.0902 114.867 91.1422C115.325 91.1952 116.075 91.3062 116.533 91.3882C116.992 91.4712 117.733 91.5832 118.18 91.6382C118.628 91.6922 119.565 91.8442 120.264 91.9742C120.962 92.1042 121.871 92.2412 122.283 92.2782C123.004 92.3432 123.771 92.4602 128.533 93.2342C129.725 93.4282 130.985 93.6112 131.334 93.6412C131.879 93.6872 132.788 93.8222 134.617 94.1272C134.846 94.1662 135.237 94.2022 135.485 94.2092C136.743 94.2442 136.944 95.5972 135.979 97.5292C135.06 99.3682 134.543 101.084 134.735 101.659C135.33 103.445 141.213 103.841 146.533 102.454C147.083 102.31 147.973 102.078 148.509 101.938C149.687 101.63 149.84 101.735 150.497 103.305C152.993 109.269 153.257 109.703 154.47 109.84C155.747 109.984 157.054 109.148 160.517 105.972C161.516 105.055 162.708 103.967 163.165 103.555C163.623 103.143 164.411 102.411 164.916 101.93C165.422 101.449 165.899 101.055 165.976 101.055C166.053 101.055 166.117 100.988 166.117 100.906C166.117 100.824 166.304 100.768 166.533 100.781C166.762 100.794 166.95 100.853 166.95 100.912C166.95 100.971 167.066 101.064 167.209 101.119C167.384 101.186 167.428 101.152 167.343 101.011C167.274 100.897 167.356 100.916 167.527 101.055C167.696 101.192 168.104 101.317 168.434 101.331C169.163 101.363 170.003 101.51 170.783 101.743C171.104 101.838 171.704 101.953 172.117 101.997C172.529 102.041 173.279 102.194 173.783 102.336C174.288 102.479 174.962 102.627 175.283 102.666C176.314 102.789 180.622 103.871 182.867 104.571C183.417 104.742 184.017 104.905 184.2 104.932C184.86 105.029 188.283 106.121 188.283 106.234C188.283 106.298 188.002 106.483 187.658 106.645C187.315 106.808 186.771 107.105 186.45 107.306C186.129 107.506 184.854 108.203 183.617 108.853C180.47 110.507 180.21 110.652 177.912 112.041C175.119 113.729 173.058 115.067 172.911 115.288C172.844 115.389 172.787 115.415 172.786 115.345C172.784 115.276 172.551 115.426 172.267 115.679C171.984 115.932 171.703 116.123 171.642 116.105C171.194 115.968 170.785 117.922 171.164 118.388C171.525 118.834 172.759 119.59 172.94 119.478C173.037 119.418 173.117 119.436 173.117 119.517C173.117 119.68 173.09 119.675 174.533 119.787C175.083 119.83 175.533 119.879 175.533 119.897C175.533 120.169 188.047 119.942 189.283 119.647C189.513 119.593 190.3 119.502 191.033 119.445C191.767 119.389 192.453 119.275 192.557 119.193C192.662 119.111 192.812 119.055 192.891 119.069C192.969 119.083 193.071 119.08 193.117 119.062C193.163 119.045 193.388 118.996 193.617 118.954C193.846 118.913 194.053 118.82 194.078 118.749C194.103 118.678 194.365 118.639 194.661 118.663C194.958 118.686 195.459 118.586 195.777 118.439C196.094 118.293 196.694 118.137 197.11 118.092C197.526 118.048 197.942 117.953 198.033 117.881C198.125 117.81 198.482 117.699 198.827 117.634C199.172 117.57 199.493 117.454 199.541 117.377C199.588 117.299 199.737 117.278 199.872 117.33C200.007 117.382 200.117 117.348 200.117 117.255C200.117 117.162 200.267 117.125 200.45 117.173C200.644 117.224 200.783 117.178 200.783 117.065C200.783 116.957 200.858 116.915 200.95 116.972C201.042 117.028 201.21 117.016 201.325 116.944C201.44 116.872 201.719 116.788 201.947 116.757C202.174 116.725 202.406 116.626 202.462 116.535C202.518 116.445 202.632 116.391 202.715 116.416C202.799 116.441 203.129 116.359 203.45 116.235C203.771 116.11 204.213 115.978 204.432 115.94C204.652 115.902 205.111 115.728 205.454 115.553C205.796 115.379 206.113 115.274 206.16 115.32C206.206 115.367 206.518 115.251 206.852 115.063C207.187 114.875 207.575 114.722 207.715 114.722C207.874 114.722 207.923 114.644 207.845 114.513C207.759 114.372 207.81 114.378 208.001 114.534C208.185 114.683 208.283 114.697 208.283 114.575C208.283 114.473 208.429 114.388 208.607 114.388C208.785 114.388 208.973 114.319 209.025 114.234C209.078 114.15 209.363 114.028 209.66 113.963C209.957 113.898 210.8 113.568 211.533 113.23C212.267 112.892 212.926 112.607 212.997 112.597C213.069 112.587 213.463 112.424 213.872 112.234C214.282 112.044 214.973 111.728 215.408 111.532C217.002 110.815 220.04 109.37 220.283 109.213C220.421 109.125 220.721 108.97 220.95 108.869C221.179 108.769 221.479 108.619 221.617 108.537C221.754 108.455 222.054 108.312 222.283 108.22C222.513 108.128 222.888 107.952 223.117 107.83C223.711 107.512 225.453 107.414 227.325 107.592C227.852 107.643 228.283 107.635 228.283 107.576C228.283 107.517 228.64 107.475 229.075 107.484C229.51 107.492 230.654 107.44 231.617 107.369C232.579 107.298 234.112 107.196 235.023 107.142C235.934 107.089 237.171 106.974 237.773 106.887C238.374 106.799 239.542 106.725 240.367 106.722C241.192 106.718 242.842 106.605 244.033 106.47C247.544 106.073 247.438 106.046 248.618 107.638C248.89 108.005 249.185 108.392 249.274 108.498C249.984 109.35 252.711 114.576 252.999 115.638C253.701 118.226 255.259 120.823 256.159 120.908C257.817 121.064 258.723 120.809 261.791 119.326C264.947 117.799 269.468 114.1 272.2 110.806C272.567 110.364 273.032 109.827 273.234 109.612C273.436 109.397 273.556 109.222 273.5 109.222C273.445 109.222 273.567 109.076 273.773 108.897C273.979 108.719 274.098 108.494 274.039 108.397C273.979 108.3 274.059 108.222 274.218 108.222C274.376 108.222 274.455 108.171 274.393 108.109C274.331 108.047 274.423 107.841 274.599 107.651C274.774 107.461 274.947 107.155 274.985 106.972C275.022 106.788 275.14 106.656 275.246 106.678C275.361 106.702 275.396 106.607 275.332 106.442C275.255 106.242 275.287 106.204 275.45 106.305C275.613 106.406 275.645 106.368 275.567 106.166C275.426 105.799 275.594 105.388 275.884 105.388C276.012 105.388 276.117 105.253 276.117 105.087C276.117 104.688 277.21 102.526 277.492 102.368C277.613 102.3 278.76 102.199 280.04 102.143C281.32 102.087 283.042 101.969 283.867 101.881C284.692 101.793 285.704 101.69 286.117 101.652C287.987 101.478 292.511 100.857 294.7 100.474C295.433 100.346 296.746 100.157 297.617 100.055C298.487 99.9522 299.612 99.8032 300.117 99.7222C300.621 99.6422 301.558 99.5292 302.2 99.4712C302.842 99.4132 303.667 99.3022 304.033 99.2242C304.4 99.1472 305.075 99.0352 305.533 98.9772C307.013 98.7882 307.511 98.7112 308.783 98.4762C309.471 98.3492 310.258 98.2072 310.533 98.1612C310.808 98.1152 311.671 97.9292 312.45 97.7482C313.229 97.5672 314.354 97.3092 314.95 97.1752C316.555 96.8152 319.649 95.8752 323.033 94.7202C324.683 94.1572 326.258 93.6342 326.533 93.5572C326.808 93.4812 327.971 93.0802 329.117 92.6672C330.263 92.2542 331.763 91.7192 332.45 91.4782C333.759 91.0182 334.76 90.1722 335.734 88.7002C336.133 88.0972 336.348 84.7302 336.021 84.2022C335.896 84.0002 336.057 84.0182 337.117 84.3222C338.433 84.7002 342.508 84.8012 343.841 84.4892C344.405 84.3572 345.617 84.0842 346.533 83.8842C348.4 83.4752 350.971 82.6792 351.642 82.3032C351.886 82.1672 352.227 82.0552 352.401 82.0552C352.574 82.0552 352.788 81.9922 352.875 81.9152C352.962 81.8382 353.296 81.6742 353.617 81.5522C354.75 81.1172 359.436 78.7752 359.617 78.5522C359.662 78.4962 360.122 78.1722 360.637 77.8332C361.153 77.4942 362.072 76.7492 362.679 76.1762C363.286 75.6042 363.783 75.1602 363.783 75.1912C363.783 75.2222 363.971 75.0242 364.2 74.7522C364.429 74.4802 364.617 74.1702 364.617 74.0632C364.617 73.9562 364.684 73.9102 364.766 73.9612C365.277 74.2772 365.566 72.2682 365.131 71.4172C364.697 70.5662 360.843 66.7222 360.424 66.7222C360.353 66.7222 360.214 66.5702 360.114 66.3842C360.015 66.1982 359.862 66.0902 359.774 66.1442C359.686 66.1982 359.573 66.1352 359.522 66.0032C359.472 65.8722 359.097 65.5932 358.689 65.3832C358.282 65.1732 357.984 64.9652 358.028 64.9212C358.072 64.8772 358.208 64.9082 358.329 64.9902C358.45 65.0712 358.406 65.0072 358.231 64.8472C358.056 64.6862 357.815 64.5552 357.695 64.5552C357.576 64.5552 357.453 64.4982 357.422 64.4272C357.311 64.1722 355.896 63.2352 355.754 63.3232C355.674 63.3732 355.629 63.3142 355.654 63.1922C355.68 63.0672 355.569 62.9822 355.397 62.9972C355.231 63.0102 355.134 62.9822 355.183 62.9332C355.314 62.8022 354.524 62.2222 354.215 62.2222C354.069 62.2222 353.95 62.1632 353.95 62.0912C353.95 62.0192 353.706 61.8262 353.408 61.6622C353.022 61.4502 352.96 61.4402 353.19 61.6272C353.368 61.7712 353.429 61.8882 353.325 61.8882C353.221 61.8882 353.019 61.7222 352.876 61.5182C352.733 61.3142 352.617 61.2162 352.617 61.2992C352.617 61.3832 352.464 61.2872 352.277 61.0862C351.965 60.7512 351.736 60.6502 351.408 60.7022C351.34 60.7132 351.283 60.6472 351.283 60.5552C351.283 60.4632 351.131 60.3882 350.945 60.3882C350.759 60.3882 350.561 60.2722 350.507 60.1292C350.452 59.9862 350.304 59.9092 350.178 59.9572C350.053 60.0052 349.95 59.9672 349.95 59.8732C349.95 59.7792 349.875 59.7482 349.783 59.8052C349.692 59.8622 349.617 59.8272 349.617 59.7272C349.617 59.6282 349.41 59.4692 349.158 59.3742C348.749 59.2202 347.455 58.5972 346.783 58.2312C346.073 57.8432 344.966 57.3882 344.733 57.3882C344.588 57.3882 344.43 57.3242 344.381 57.2442C344.332 57.1652 343.671 56.8612 342.913 56.5692C342.154 56.2772 341.271 55.9202 340.95 55.7772C340.629 55.6342 340.067 55.4192 339.7 55.3002C339.333 55.1802 338.508 54.8842 337.867 54.6422C337.225 54.3992 336.475 54.1382 336.2 54.0602C335.925 53.9832 334.95 53.6582 334.033 53.3382C333.117 53.0182 331.579 52.5172 330.617 52.2242C328.337 51.5312 328.097 51.4602 326.617 51.0442C325.929 50.8512 324.879 50.5552 324.283 50.3882C322.365 49.8482 318.387 48.8302 317.7 48.7052C317.086 48.5922 315.72 48.2552 314.283 47.8602C313.962 47.7722 313.587 47.6792 313.45 47.6542C313.312 47.6282 313.013 47.5612 312.783 47.5042C312.554 47.4472 312.093 47.3702 311.759 47.3322C311.425 47.2942 311.075 47.2152 310.981 47.1572C310.887 47.0992 310.56 47.0112 310.255 46.9612C309.95 46.9112 309.475 46.8302 309.2 46.7822C308.925 46.7332 308.538 46.6812 308.341 46.6662C308.143 46.6512 308.023 46.5722 308.073 46.4912C308.123 46.4102 307.928 46.3782 307.64 46.4202C307.352 46.4632 307.117 46.4272 307.117 46.3422C307.117 46.2562 307.004 46.2292 306.867 46.2822C306.729 46.3352 306.617 46.3012 306.617 46.2072C306.617 46.1122 306.548 46.0782 306.464 46.1302C306.38 46.1822 306.136 46.1582 305.922 46.0782C305.708 45.9982 305.083 45.8842 304.533 45.8252C303.983 45.7672 303.508 45.6442 303.478 45.5532C303.447 45.4632 303.349 45.3882 303.26 45.3882C303.17 45.3882 303.143 45.4632 303.2 45.5552C303.257 45.6472 303.224 45.7222 303.127 45.7222C303.029 45.7222 302.95 45.6542 302.95 45.5712C302.95 45.4882 302.556 45.3612 302.075 45.2892C301.001 45.1292 301.146 45.1602 300.45 44.9382C300.129 44.8362 299.604 44.7472 299.283 44.7412C298.962 44.7352 298.287 44.6142 297.783 44.4722C297.279 44.3302 296.36 44.1422 295.741 44.0552C295.122 43.9682 294.214 43.7812 293.722 43.6382C293.231 43.4952 292.65 43.3442 292.431 43.3022C292.212 43.2602 291.433 43.0792 290.7 42.8992C289.967 42.7202 289.179 42.5372 288.95 42.4932C288.721 42.4492 288.008 42.3022 287.367 42.1652C286.725 42.0282 285.975 41.8792 285.7 41.8342C283.641 41.4982 280.934 41.0082 280.45 40.8852C280.129 40.8032 279.304 40.6612 278.617 40.5682C277.929 40.4752 276.617 40.2912 275.7 40.1582C274.783 40.0262 273.658 39.8752 273.2 39.8232C272.742 39.7722 271.804 39.6562 271.117 39.5672C269.966 39.4162 268.937 39.3052 267.2 39.1442C266.833 39.1102 266.335 39.0062 266.092 38.9122C265.849 38.8192 265.611 38.7832 265.562 38.8322C265.513 38.8802 264.7 38.8372 263.753 38.7352C262.807 38.6342 261.433 38.5152 260.7 38.4722C259.967 38.4282 258.467 38.3112 257.367 38.2112C253.534 37.8632 244.002 38.0152 242.206 38.4532C242.019 38.4982 241.113 38.5842 240.193 38.6442L238.519 38.7532L237.894 37.4732C237.551 36.7692 237.12 36.0332 236.937 35.8362C236.754 35.6392 236.561 35.3082 236.509 35.1002C236.457 34.8922 236.341 34.7222 236.251 34.7222C236.162 34.7222 236.119 34.6332 236.155 34.5242C236.191 34.4152 236.12 34.2092 235.996 34.0652C235.38 33.3522 234.95 32.7382 234.95 32.5732C234.95 32.4712 234.855 32.3882 234.738 32.3882C234.621 32.3882 234.377 32.1102 234.196 31.7712C234.015 31.4312 233.585 30.7962 233.242 30.3592C232.898 29.9222 232.617 29.5012 232.617 29.4232C232.617 29.3452 232.448 29.1322 232.242 28.9502C232.035 28.7672 231.68 28.3602 231.453 28.0452C231.022 27.4492 227.798 24.0212 227.571 23.9172C227.499 23.8842 227.162 23.5922 226.821 23.2682C226.479 22.9432 225.305 21.9192 224.21 20.9912C223.116 20.0642 221.728 18.8882 221.127 18.3782C220.525 17.8682 219.806 17.2312 219.528 16.9622C219.251 16.6922 218.736 16.2472 218.385 15.9722C218.034 15.6972 217.586 15.3182 217.39 15.1292C217.194 14.9412 216.658 14.4942 216.2 14.1352C215.742 13.7762 215.329 13.4372 215.283 13.3802C215.183 13.2562 213.357 11.7322 212.199 10.8062C211.423 10.1852 210.654 9.53622 210.218 9.13422C209.911 8.85122 204.325 5.22224 204.196 5.22224C204.154 5.22224 203.688 4.92223 203.16 4.55523C202.632 4.18923 202.147 3.88923 202.082 3.88923C202.018 3.88823 201.602 3.67522 201.16 3.41422C200.717 3.15222 199.945 2.78523 199.444 2.59623C198.943 2.40823 198.03 2.06423 197.415 1.83123C196.346 1.42723 196.28 1.42124 195.94 1.69624Z" fill="#0CD4E4"/>
<path fill-rule="evenodd" clip-rule="evenodd" d="M195.908 0.0732051C195.748 0.164205 195.614 0.328195 195.61 0.438195C195.601 0.705195 194.769 1.6412 194.435 1.7622C194.094 1.8852 193.95 4.9082 193.95 11.9562C193.95 16.6142 193.925 17.0362 193.607 17.8732C193.344 18.5652 193.272 19.1082 193.296 20.2082C193.322 21.4122 193.271 21.7342 192.973 22.2232C192.726 22.6272 192.618 23.0812 192.617 23.7092C192.617 24.2772 192.524 24.7152 192.367 24.8882C192.229 25.0402 192.104 25.4962 192.088 25.9022C192.073 26.3072 191.915 26.9652 191.739 27.3652C191.561 27.7682 191.455 28.2852 191.501 28.5262C191.554 28.8032 191.469 29.1062 191.267 29.3632C191.093 29.5852 190.95 29.9672 190.95 30.2122C190.95 30.4572 190.84 30.8042 190.705 30.9812C190.571 31.1592 190.458 31.4932 190.454 31.7222C190.451 31.9512 190.299 32.3632 190.117 32.6382C189.935 32.9132 189.785 33.3352 189.784 33.5762C189.784 33.8172 189.671 34.1082 189.533 34.2222C189.396 34.3362 189.283 34.5172 189.283 34.6242C189.283 34.7302 189.133 35.1122 188.95 35.4722C188.767 35.8312 188.617 36.2802 188.617 36.4702C188.617 36.6592 188.467 36.9432 188.283 37.1002C188.1 37.2572 187.95 37.5642 187.95 37.7832C187.95 38.0022 187.842 38.2702 187.711 38.3792C187.579 38.4892 187.424 38.7932 187.367 39.0552C187.309 39.3172 187.154 39.6212 187.023 39.7312C186.891 39.8402 186.783 40.0022 186.783 40.0912C186.783 40.4452 184.627 44.5782 184.187 45.0682C184.056 45.2132 183.95 45.3892 183.95 45.4602C183.95 46.1682 181.212 48.5752 179.367 49.4902C178.725 49.8082 178.087 50.1272 177.95 50.2002C176.655 50.8822 176.256 51.0552 175.976 51.0552C175.798 51.0552 175.609 51.1672 175.556 51.3052C175.502 51.4462 175.254 51.5552 174.987 51.5552C174.727 51.5552 174.368 51.6652 174.19 51.8002C174.012 51.9342 173.642 52.0492 173.367 52.0562C173.092 52.0622 172.679 52.1742 172.45 52.3052C172.221 52.4362 171.883 52.5462 171.7 52.5502C171.517 52.5542 171.152 52.6692 170.889 52.8062C170.627 52.9432 170.243 53.0552 170.037 53.0552C169.83 53.0552 169.471 53.2052 169.238 53.3882C168.946 53.6182 168.562 53.7222 168.002 53.7222C167.556 53.7222 167.043 53.8252 166.862 53.9512C166.681 54.0772 166.139 54.2342 165.658 54.3002C165.14 54.3712 164.723 54.5262 164.637 54.6792C164.541 54.8502 164.363 54.9042 164.111 54.8392C163.697 54.7302 162.732 55.0672 162.533 55.3892C162.409 55.5902 162.564 55.5772 163.783 55.2822C164.013 55.2272 164.369 55.1832 164.575 55.1842C164.781 55.1852 164.95 55.1352 164.95 55.0712C164.95 55.0082 165.225 54.9382 165.561 54.9152C165.897 54.8932 166.225 54.8412 166.29 54.8012C166.356 54.7602 167.74 54.5002 169.367 54.2222C173.144 53.5762 174.345 53.1852 177.525 51.5632C181.066 49.7572 181.729 49.1752 183.807 46.0452C185.352 43.7192 187.77 39.4032 187.883 38.7692C187.903 38.6582 188.076 38.3462 188.268 38.0772C188.46 37.8072 188.617 37.5442 188.617 37.4912C188.617 37.4382 188.905 36.7752 189.258 36.0172C190.353 33.6652 190.574 33.1582 191.168 31.6252C191.707 30.2332 191.991 29.4172 192.005 29.2222C192.008 29.1762 192.304 28.3132 192.664 27.3052C193.023 26.2972 193.373 25.2472 193.441 24.9722C193.51 24.6972 193.72 24.0222 193.909 23.4722C194.478 21.8162 195.151 17.6452 195.141 15.8472C195.138 15.4112 195.188 15.0552 195.251 15.0552C195.315 15.0552 195.374 14.6612 195.383 14.1802C195.413 12.4882 195.511 11.6372 195.688 11.5132C195.814 11.4252 195.811 11.3522 195.679 11.2632C195.476 11.1282 195.386 9.5552 195.581 9.5552C195.646 9.5552 195.688 8.8242 195.672 7.9302C195.55 0.7662 195.457 1.0912 197.415 1.8312C198.03 2.0642 198.943 2.4082 199.444 2.5962C199.945 2.7852 200.717 3.15219 201.16 3.41419C201.602 3.67519 202.018 3.8882 202.082 3.8892C202.147 3.8892 202.632 4.1892 203.16 4.5552C203.688 4.9222 204.154 5.22221 204.196 5.22221C204.275 5.22221 206.226 6.46621 208.531 7.98721C210.562 9.32721 210.392 8.9252 208.193 7.1872C207.647 6.7562 206.675 5.98819 206.033 5.48119C205.392 4.97419 204.778 4.5582 204.67 4.5572C204.562 4.5562 204.195 4.29221 203.855 3.97221C203.515 3.65121 203.127 3.38819 202.992 3.38819C202.858 3.38819 202.461 3.1612 202.109 2.8832C201.758 2.6052 200.984 2.1562 200.389 1.8872C199.795 1.6172 199.26 1.3192 199.202 1.2262C199.144 1.1322 198.962 1.0552 198.796 1.0552C198.63 1.0552 198.304 0.905207 198.071 0.722207C197.838 0.538207 197.488 0.388192 197.293 0.388192C197.098 0.388192 196.772 0.280202 196.569 0.148202C196.308 -0.021798 196.115 -0.0437949 195.908 0.0732051ZM210.117 9.0292C210.117 9.1352 210.173 9.22221 210.242 9.22221C210.31 9.22321 210.592 9.4312 210.867 9.6842C211.142 9.9382 211.742 10.4352 212.2 10.7902L213.033 11.4342L212.358 10.7862C211.987 10.4302 211.462 9.9592 211.191 9.7402C210.921 9.5202 210.569 9.2272 210.408 9.0892C210.222 8.9282 210.117 8.9062 210.117 9.0292ZM213.626 11.9182C214.464 12.7002 216.067 14.0662 216.66 14.5042C216.936 14.7072 217.293 15.0082 217.454 15.1732C217.614 15.3372 218.033 15.6972 218.385 15.9722C218.736 16.2472 219.251 16.6922 219.528 16.9622C219.806 17.2312 220.525 17.8682 221.127 18.3782C221.728 18.8882 223.116 20.0642 224.21 20.9912C225.305 21.9192 226.479 22.9432 226.821 23.2682C227.162 23.5922 227.499 23.8842 227.571 23.9172C227.798 24.0212 231.022 27.4492 231.453 28.0452C231.68 28.3602 232.035 28.7672 232.242 28.9502C232.448 29.1322 232.617 29.3452 232.617 29.4232C232.617 29.5012 232.898 29.9222 233.242 30.3592C233.585 30.7962 234.015 31.4312 234.196 31.7712C234.462 32.2682 234.968 32.7172 234.752 32.2632C234.599 31.9432 233.997 30.9672 233.661 30.4952C233.456 30.2072 233.019 29.5722 232.688 29.0822C232.358 28.5932 231.963 28.0662 231.811 27.9112C231.658 27.7562 231.317 27.3692 231.053 27.0512C229.839 25.5882 224.276 19.9882 223.501 19.4492C223.026 19.1172 222.597 18.7432 222.548 18.6172C222.5 18.4912 222.4 18.3882 222.326 18.3882C222.252 18.3882 221.756 17.9762 221.222 17.4722C220.689 16.9672 220.148 16.5552 220.019 16.5552C219.89 16.5552 219.253 16.0672 218.604 15.4722C217.955 14.8762 217.298 14.3882 217.145 14.3872C216.992 14.3862 216.604 14.0872 216.283 13.7222C215.962 13.3572 215.62 13.0582 215.522 13.0572C215.424 13.0562 215.049 12.8092 214.688 12.5072C213.649 11.6392 212.855 11.1982 213.626 11.9182ZM0.985672 15.6572C0.352672 16.3602 0.364673 16.4542 1.05367 16.1942C1.55167 16.0062 2.12667 16.1722 4.35867 17.1482C4.63767 17.2702 5.38367 17.5692 6.01667 17.8112C7.67967 18.4492 9.80567 19.5802 11.9497 20.9682C15.1957 23.0682 18.0797 25.0032 19.0627 25.7412C19.7217 26.2352 20.6587 26.9192 21.1467 27.2612C21.6337 27.6032 22.5897 28.2782 23.2707 28.7612C23.9507 29.2442 24.8887 29.9062 25.3537 30.2322C27.1557 31.4982 32.8217 35.7142 32.9497 35.8842C32.9957 35.9452 33.4827 36.3232 34.0327 36.7232C34.5827 37.1232 35.2207 37.6182 35.4497 37.8232C35.8927 38.2192 36.8177 39.0002 38.2907 40.2222C39.0687 40.8672 39.5907 41.3282 41.1197 42.7222C41.2707 42.8592 42.0627 43.5682 42.8807 44.2972C44.3097 45.5722 47.0617 48.2952 51.7377 53.0592C53.9597 55.3242 55.6407 56.9182 56.8667 57.9242C57.2327 58.2252 57.7317 58.6782 57.9747 58.9302C58.2177 59.1822 58.4507 59.3882 58.4927 59.3882C58.5717 59.3882 59.3787 60.0962 60.7277 61.3472C61.1477 61.7362 61.5387 62.0552 61.5977 62.0552C61.6557 62.0552 61.8857 62.2762 62.1087 62.5452C62.3307 62.8152 62.5637 63.0042 62.6267 62.9662C62.6887 62.9272 62.9927 63.1412 63.3027 63.4422C63.9387 64.0582 67.6197 67.0212 68.7747 67.8472C72.9517 70.8332 72.6287 70.7142 76.5567 70.7182C79.3797 70.7212 81.4747 70.6012 83.9497 70.2922C84.3617 70.2412 86.1997 70.1322 88.0327 70.0512C92.5717 69.8492 98.3007 69.3152 99.6167 68.9712C100.784 68.6672 100.852 68.6522 101.888 68.4802C102.539 68.3722 103.384 67.7112 103.159 67.4862C103.105 67.4322 103.14 67.3882 103.235 67.3882C103.442 67.3882 103.872 66.4222 103.729 66.2792C103.675 66.2242 103.735 65.9762 103.864 65.7262C103.993 65.4772 104.14 64.7182 104.19 64.0392C104.53 59.4592 105.685 58.6522 109.283 60.4812C110.169 60.9322 110.284 60.9892 111.45 61.5692C112.046 61.8662 112.929 62.3592 113.412 62.6652C113.895 62.9712 114.358 63.2222 114.44 63.2222C114.939 63.2222 115.636 64.1232 115.585 64.7042C115.525 65.3982 116.132 65.5402 117.275 65.0992C117.591 64.9772 117.947 64.9152 118.066 64.9612C118.186 65.0072 118.283 64.9862 118.283 64.9142C118.283 64.8432 118.64 64.7682 119.075 64.7482C119.51 64.7282 120.242 64.6092 120.7 64.4842C121.158 64.3602 121.646 64.2542 121.783 64.2492C121.921 64.2452 122.446 64.1682 122.95 64.0802C127.611 63.2582 128.834 63.0672 128.954 63.1412C129.031 63.1882 129.138 63.1552 129.192 63.0672C129.247 62.9792 129.646 62.8622 130.079 62.8062C131.448 62.6302 134.079 62.0672 137.95 61.1232C140.013 60.6202 142.037 60.1272 142.45 60.0262C142.862 59.9262 143.35 59.7832 143.533 59.7082C143.717 59.6342 144.167 59.5332 144.533 59.4852C144.9 59.4372 145.35 59.3612 145.533 59.3162C146 59.2022 148.818 58.5782 150.117 58.3012C150.712 58.1742 151.375 58.0322 151.588 57.9862C151.802 57.9402 152.115 57.8592 152.283 57.8052C152.452 57.7512 152.728 57.6812 152.896 57.6492C153.064 57.6162 153.539 57.4892 153.951 57.3652L154.7 57.1412L153.807 57.0892C153.205 57.0532 152.824 57.1142 152.64 57.2762C152.475 57.4202 151.859 57.5462 151.081 57.5932C150.374 57.6362 149.685 57.7632 149.549 57.8752C149.414 57.9872 148.857 58.0972 148.311 58.1202C147.743 58.1432 147.143 58.2752 146.909 58.4282C146.633 58.6092 146.288 58.6692 145.85 58.6112C145.453 58.5582 144.908 58.6332 144.45 58.8032C144.037 58.9552 143.237 59.0982 142.672 59.1192C142.077 59.1422 141.522 59.2592 141.356 59.3982C141.187 59.5372 140.515 59.6772 139.739 59.7342C138.71 59.8102 138.374 59.8982 138.247 60.1262C138.111 60.3692 137.95 60.4012 137.333 60.3092C136.628 60.2032 135.08 60.4442 134.7 60.7192C134.608 60.7852 134.1 60.8482 133.569 60.8592C133.039 60.8692 132.346 61.0012 132.029 61.1522C131.688 61.3142 131.283 61.3822 131.036 61.3212C130.52 61.1912 129.116 61.5292 129.009 61.8082C128.953 61.9552 128.629 61.9912 127.898 61.9322C127.167 61.8732 126.678 61.9282 126.221 62.1192C125.866 62.2672 125.117 62.3892 124.555 62.3892C123.853 62.3892 123.374 62.4872 123.025 62.7002C122.67 62.9162 122.081 63.0332 121.079 63.0852C120.288 63.1272 119.542 63.2392 119.421 63.3352C119.299 63.4312 118.526 63.5592 117.702 63.6202L116.204 63.7302L115.619 63.1372C114.633 62.1402 113.303 61.2482 112.943 61.3422C112.723 61.3992 112.617 61.3432 112.617 61.1702C112.617 61.0292 112.41 60.8052 112.158 60.6732C106.778 57.8562 107.111 57.9142 105.485 59.5132C103.868 61.1042 103.152 62.3652 103.001 63.8882C102.961 64.3012 102.826 64.8632 102.703 65.1382C102.58 65.4132 102.44 65.8922 102.392 66.2022C102.232 67.2462 100.658 67.8862 98.2337 67.8922C96.8397 67.8962 95.6097 68.0612 94.9497 68.3342C94.8117 68.3902 93.5747 68.4502 92.1997 68.4672C88.6147 68.5102 86.7837 68.8102 87.4787 69.2402C87.5947 69.3112 87.6347 69.4252 87.5677 69.4922C87.5007 69.5592 87.3407 69.4692 87.2117 69.2932C86.7987 68.7292 79.9547 68.9072 79.3637 69.4982C79.1637 69.6982 79.0067 69.7112 78.5697 69.5672C78.2607 69.4652 77.0187 69.4032 75.6957 69.4232L73.3667 69.4592L72.4837 68.9232C71.9987 68.6292 71.5657 68.3882 71.5207 68.3882C71.4767 68.3882 71.0487 68.0912 70.5697 67.7272C70.0917 67.3642 69.5127 66.9252 69.2827 66.7522C69.0537 66.5782 68.6417 66.3192 68.3667 66.1762C68.0917 66.0332 67.3787 65.4532 66.7827 64.8862C66.1867 64.3192 65.5577 63.8012 65.3837 63.7342C65.2097 63.6672 64.5507 63.1682 63.9197 62.6262C61.8077 60.8082 57.3797 56.8932 56.1167 55.7252C55.4287 55.0902 54.4617 54.2482 53.9667 53.8542C53.4727 53.4602 52.4177 52.5012 51.6237 51.7222C50.0027 50.1302 48.4117 48.7192 47.9847 48.4932C47.8277 48.4112 46.9027 47.5852 45.9287 46.6572C44.9547 45.7302 43.7937 44.6722 43.3497 44.3052C42.9047 43.9382 42.1267 43.2212 41.6207 42.7122C41.1137 42.2032 40.3627 41.5342 39.9497 41.2262C39.5367 40.9182 38.9667 40.4352 38.6817 40.1522C37.6147 39.0932 36.6707 38.2692 35.7217 37.5692C35.1827 37.1732 34.4697 36.5762 34.1357 36.2432C33.4127 35.5222 32.0417 34.3882 31.8937 34.3882C31.8357 34.3882 31.3497 33.9772 30.8147 33.4742C30.2787 32.9712 29.5377 32.3532 29.1667 32.0992C28.7967 31.8462 28.0517 31.2492 27.5127 30.7722C26.3737 29.7662 22.1587 26.5612 21.7867 26.4182C21.6467 26.3642 21.2367 26.0362 20.8747 25.6882C20.5127 25.3402 20.1577 25.0552 20.0867 25.0552C19.9337 25.0552 16.8137 23.0022 16.4497 22.6622C16.3117 22.5342 15.8107 22.2272 15.3347 21.9802C14.8597 21.7332 14.3817 21.4242 14.2727 21.2932C14.1647 21.1622 13.9427 21.0552 13.7807 21.0552C13.6177 21.0552 13.4437 20.9462 13.3927 20.8132C13.3417 20.6802 12.9597 20.4162 12.5447 20.2272C12.1307 20.0382 11.5217 19.7012 11.1937 19.4782C10.8657 19.2552 10.1327 18.8392 9.56467 18.5522C8.99767 18.2662 8.23267 17.8532 7.86667 17.6342C7.49967 17.4162 7.08667 17.1912 6.94967 17.1342C6.81267 17.0772 6.58667 16.9632 6.44967 16.8792C6.31267 16.7962 5.78667 16.5322 5.28267 16.2942C4.77867 16.0552 4.08967 15.7172 3.75167 15.5422C3.41367 15.3672 2.96367 15.2272 2.75167 15.2322C2.53967 15.2362 2.17867 15.1972 1.94967 15.1442C1.61767 15.0682 1.42167 15.1722 0.985672 15.6572ZM0.369673 17.6382C0.427673 17.9132 0.592673 18.3872 0.736673 18.6922C1.01067 19.2712 1.03967 19.7442 0.861673 20.7312C0.782673 21.1672 0.823673 21.3822 1.01867 21.5432C1.16367 21.6642 1.28367 21.9972 1.28367 22.2842C1.28467 22.5702 1.43467 23.0302 1.61667 23.3052C1.79867 23.5802 1.94767 23.9622 1.94867 24.1542C1.94967 24.3462 2.09967 24.6392 2.28267 24.8052C2.46867 24.9732 2.61667 25.3182 2.61667 25.5832C2.61667 25.8452 2.68767 26.1902 2.77467 26.3492C3.72967 28.0902 3.63167 28.5992 2.37167 28.4512C1.69567 28.3712 1.39067 28.4112 1.10067 28.6142C0.737672 28.8682 0.790673 28.8802 2.12567 28.8432C2.89967 28.8222 3.88967 28.8662 4.32467 28.9402C5.37867 29.1202 5.40567 29.2632 3.53467 24.8882C3.20167 24.1092 2.70367 22.9092 2.42767 22.2222C1.88967 20.8792 1.20267 19.3182 0.943672 18.8492C0.854672 18.6902 0.780672 18.4272 0.776672 18.2662C0.773672 18.1042 0.656673 17.7842 0.517673 17.5552L0.263672 17.1382L0.369673 17.6382ZM0.695673 32.2622C0.608673 32.6082 0.723673 32.8672 1.26867 33.5562C1.64267 34.0302 1.94967 34.5542 1.94967 34.7192C1.94967 34.8842 2.06167 35.0632 2.19967 35.1152C2.33667 35.1682 2.45067 35.3452 2.45267 35.5082C2.45467 35.6712 2.67967 36.1352 2.95267 36.5382C3.22567 36.9422 3.44967 37.3732 3.44967 37.4972C3.44967 37.6202 3.52667 37.7222 3.61967 37.7222C3.71367 37.7222 3.87867 37.9282 3.98767 38.1802C4.09667 38.4322 4.48867 39.1482 4.85867 39.7722C6.04967 41.7752 6.44667 42.4612 6.71267 42.9722C6.85567 43.2472 7.15267 43.7722 7.37367 44.1382C7.59467 44.5052 7.85367 44.9852 7.95067 45.2042C8.04767 45.4232 8.33467 45.8732 8.58867 46.2042C8.84267 46.5352 9.29467 47.2922 9.59267 47.8882C9.89167 48.4842 10.3547 49.3092 10.6237 49.7222C10.8917 50.1342 11.2027 50.6592 11.3147 50.8882C11.4267 51.1182 11.7657 51.7002 12.0677 52.1832C12.3697 52.6662 12.6167 53.1102 12.6167 53.1702C12.6167 53.2302 12.7197 53.3972 12.8467 53.5422C12.9727 53.6872 13.3587 54.3302 13.7037 54.9722C14.0477 55.6132 14.4317 56.2572 14.5567 56.4012C14.6807 56.5462 14.7827 56.7262 14.7827 56.8012C14.7827 56.8762 15.0457 57.2582 15.3667 57.6492C15.6867 58.0412 15.9497 58.4802 15.9497 58.6262C15.9497 58.8672 16.8247 60.2502 17.3887 60.9012C17.5137 61.0462 17.6167 61.2432 17.6167 61.3402C17.6167 61.5322 18.6247 63.2732 19.0427 63.8052C19.4697 64.3482 20.4497 65.9072 20.4497 66.0452C20.4497 66.1142 20.6557 66.4662 20.9077 66.8252C21.1597 67.1852 21.5527 67.8342 21.7797 68.2672C22.0067 68.7002 22.2387 69.0552 22.2947 69.0552C22.3507 69.0552 22.4827 69.2452 22.5887 69.4782C22.6947 69.7112 22.8577 69.9922 22.9517 70.1032C23.0447 70.2142 23.4947 70.8822 23.9517 71.5872C24.4087 72.2922 25.0447 73.1552 25.3657 73.5042C25.6857 73.8532 25.9487 74.2562 25.9487 74.4002C25.9497 74.5442 26.1817 74.9192 26.4647 75.2332C26.7477 75.5482 27.1157 76.0672 27.2827 76.3882C27.4487 76.7092 27.9357 77.3472 28.3647 77.8052C29.4527 78.9702 29.5437 79.2692 29.0947 80.2062C28.8927 80.6282 28.6957 81.4212 28.6557 81.9722C28.6167 82.5222 28.4797 83.2932 28.3507 83.6862C28.2217 84.0792 28.1167 84.6882 28.1167 85.0402C28.1167 85.3932 28.0037 85.9502 27.8667 86.2792C27.7287 86.6082 27.6167 87.2682 27.6167 87.7452C27.6167 88.3102 27.5227 88.7162 27.3467 88.9102C27.1987 89.0742 27.0417 89.5672 26.9987 90.0072C26.9557 90.4462 26.8147 91.0412 26.6847 91.3302C26.5557 91.6192 26.4497 92.0692 26.4487 92.3302C26.4477 92.5912 26.3287 93.0302 26.1847 93.3052C26.0397 93.5802 25.8797 94.1982 25.8287 94.6792C25.7777 95.1592 25.6347 95.6372 25.5097 95.7412C25.3747 95.8532 25.2827 96.2622 25.2827 96.7572C25.2827 97.3332 25.1817 97.7152 24.9497 98.0102C24.7437 98.2712 24.6167 98.6862 24.6167 99.0932C24.6167 99.5002 24.4887 99.9152 24.2827 100.176C24.0927 100.418 23.9477 100.859 23.9447 101.202C23.9417 101.534 23.8287 101.951 23.6947 102.129C23.5597 102.306 23.4497 102.741 23.4497 103.094C23.4497 103.487 23.3127 103.921 23.0947 104.215C22.8417 104.557 22.7717 104.821 22.8507 105.134C22.9287 105.445 22.8627 105.697 22.6217 106.003C22.4357 106.24 22.2807 106.629 22.2777 106.869C22.2747 107.109 22.1627 107.451 22.0277 107.629C21.8927 107.806 21.7827 108.2 21.7827 108.504C21.7827 108.807 21.7197 109.055 21.6427 109.055C21.4307 109.055 21.1167 109.844 21.1167 110.376C21.1167 110.635 21.0037 110.941 20.8667 111.055C20.7287 111.169 20.6167 111.516 20.6167 111.825C20.6167 112.166 20.4847 112.52 20.2827 112.722C20.0997 112.905 19.9497 113.249 19.9497 113.487C19.9497 113.725 19.7997 114.11 19.6167 114.343C19.4327 114.576 19.2827 114.935 19.2827 115.14C19.2827 115.346 19.1707 115.608 19.0327 115.722C18.8957 115.836 18.7827 116.12 18.7827 116.354C18.7827 116.588 18.6827 116.897 18.5597 117.042C18.4367 117.187 18.1647 117.792 17.9557 118.388C17.7457 118.984 17.3217 120.006 17.0117 120.659C16.7027 121.312 16.4497 121.996 16.4497 122.18C16.4497 122.364 16.3367 122.608 16.1997 122.722C16.0617 122.836 15.9477 123.089 15.9457 123.284C15.9437 123.479 15.7957 123.826 15.6167 124.055C15.4367 124.284 15.2887 124.681 15.2867 124.937C15.2847 125.193 15.1227 125.619 14.9257 125.885C14.6347 126.279 14.5927 126.483 14.6987 127.003C14.7707 127.352 14.8377 127.922 14.8477 128.269C14.8627 128.764 14.9557 128.943 15.2827 129.107C15.5127 129.221 15.7977 129.52 15.9177 129.77C16.2687 130.502 18.3667 131.094 18.6997 130.555C18.7567 130.463 19.2767 130.388 19.8557 130.388C20.5447 130.388 20.9747 130.309 21.0987 130.16C21.2027 130.034 21.5727 129.893 21.9207 129.847C22.2687 129.8 23.1917 129.453 23.9717 129.075C24.7527 128.697 25.4697 128.388 25.5667 128.388C25.6627 128.388 25.8387 128.272 25.9577 128.129C26.0767 127.986 26.4227 127.765 26.7277 127.637C27.0337 127.51 27.2827 127.327 27.2827 127.23C27.2827 127.134 27.4287 127.055 27.6067 127.055C27.7847 127.055 27.9807 126.973 28.0437 126.872C28.1057 126.771 28.3537 126.602 28.5947 126.496C28.8357 126.39 29.5817 125.929 30.2527 125.471C30.9237 125.013 31.6357 124.548 31.8337 124.437C32.0317 124.326 32.2707 124.139 32.3657 124.02C32.5697 123.764 33.5567 123.055 33.7097 123.055C33.7687 123.055 34.1927 122.717 34.6517 122.305C35.1107 121.892 35.5717 121.554 35.6757 121.552C35.7807 121.551 36.3907 121.088 37.0317 120.525C37.6737 119.961 38.3857 119.381 38.6157 119.235C39.1507 118.894 40.1347 118.009 42.0237 116.166C42.8537 115.356 43.7347 114.588 43.9807 114.458C44.2277 114.329 44.6777 113.907 44.9807 113.52C45.2847 113.133 46.4097 111.914 47.4817 110.811C48.5537 109.708 49.7167 108.467 50.0677 108.055C50.4177 107.643 51.1827 106.817 51.7687 106.222C52.3537 105.626 53.2067 104.688 53.6637 104.138C54.7757 102.801 56.2547 101.152 57.8277 99.4992C58.5387 98.7512 59.3267 97.8432 59.5777 97.4822C59.8277 97.1212 60.1827 96.6682 60.3667 96.4752C61.3137 95.4782 62.6117 94.0372 63.2957 93.2222C65.1587 91.0042 66.3297 89.6752 67.8607 88.0402C68.4267 87.4362 69.1017 86.6462 69.3617 86.2852C69.9527 85.4632 71.0317 84.9342 71.2657 85.3522C71.5087 85.7852 76.0107 86.2052 77.2027 85.9052C77.8687 85.7372 78.0147 85.7462 78.1767 85.9632C78.4167 86.2862 79.8307 86.5552 81.2857 86.5552C81.9557 86.5552 82.6697 86.6662 83.0547 86.8292C83.4747 87.0082 84.2807 87.1192 85.3667 87.1482C86.4277 87.1762 87.2577 87.2882 87.6527 87.4572C88.0457 87.6252 88.7577 87.7222 89.5967 87.7222C90.5517 87.7222 91.1397 87.8152 91.6997 88.0552C92.2457 88.2892 92.8477 88.3882 93.7187 88.3882C94.4747 88.3882 95.2027 88.4912 95.5797 88.6512C95.9207 88.7952 96.9927 88.9732 97.9627 89.0462C98.9327 89.1192 99.9077 89.2772 100.13 89.3962C100.352 89.5152 101.135 89.6292 101.87 89.6492C102.667 89.6702 103.474 89.7982 103.87 89.9642C104.327 90.1572 104.897 90.2302 105.7 90.1992C106.622 90.1632 106.968 90.2212 107.349 90.4732C107.705 90.7082 108.165 90.7992 109.099 90.8202C109.796 90.8352 110.592 90.9492 110.867 91.0732C111.161 91.2062 112.007 91.3052 112.922 91.3142C113.889 91.3242 114.522 91.4022 114.595 91.5202C114.764 91.7932 116.388 92.1072 117.122 92.0092C117.558 91.9502 117.828 92.0042 118.01 92.1862C118.193 92.3692 118.708 92.4702 119.728 92.5242C120.596 92.5692 121.272 92.6872 121.4 92.8142C121.636 93.0502 123.593 93.3102 124.111 93.1752C124.299 93.1262 124.594 93.2242 124.803 93.4052C125.102 93.6652 125.433 93.7222 126.642 93.7222C127.453 93.7222 128.117 93.7852 128.117 93.8622C128.117 94.1402 128.987 94.3882 129.964 94.3882C130.634 94.3882 131.178 94.4982 131.617 94.7222C132.304 95.0722 133.69 95.1752 133.867 94.8882C134.025 94.6332 134.45 94.6912 134.45 94.9682C134.45 95.1032 134.641 95.3392 134.873 95.4912C135.345 95.8002 135.329 97.0152 134.846 97.5682C134.72 97.7132 134.617 98.0902 134.617 98.4062C134.617 98.7752 134.497 99.0832 134.283 99.2662C133.999 99.5092 133.95 99.7562 133.953 100.928C133.955 102.48 133.989 102.567 134.742 102.953C135.06 103.116 135.283 103.358 135.283 103.541C135.283 103.882 135.594 104.055 136.204 104.055C136.42 104.055 136.643 104.13 136.7 104.222C136.91 104.561 137.95 104.418 137.95 104.05C137.95 103.562 138.368 103.473 138.77 103.875C139.207 104.312 140.725 104.35 141.804 103.953C142.289 103.774 143.009 103.692 143.95 103.707C145.42 103.731 146.42 103.539 146.634 103.194C146.947 102.687 149.283 103.136 149.283 103.702C149.283 103.868 149.433 104.177 149.617 104.388C149.8 104.6 149.95 104.94 149.95 105.143C149.95 105.347 150.062 105.608 150.2 105.722C150.337 105.836 150.45 106.06 150.45 106.22C150.45 106.379 150.6 106.701 150.783 106.934C150.967 107.167 151.117 107.447 151.117 107.556C151.117 107.817 152.329 109.714 152.498 109.718C152.654 109.722 153.654 110.409 153.804 110.614C153.861 110.693 153.96 110.674 154.022 110.573C154.166 110.34 154.783 110.33 154.783 110.56C154.783 110.655 154.627 110.79 154.435 110.861C154.123 110.977 154.114 111.012 154.352 111.209C154.66 111.465 155.449 111.225 156.044 110.695C156.233 110.526 156.469 110.388 156.568 110.388C156.667 110.388 156.791 110.276 156.844 110.138C156.896 110.001 157.053 109.888 157.191 109.888C157.33 109.888 157.95 109.43 158.568 108.869C159.187 108.308 159.818 107.802 159.97 107.744C160.123 107.686 161.351 106.626 162.699 105.388C164.048 104.151 165.237 103.101 165.343 103.055C165.709 102.895 166.283 102.313 166.283 102.101C166.283 101.984 166.358 101.888 166.45 101.888C166.542 101.888 166.617 102.003 166.617 102.142C166.617 102.51 167.318 102.722 168.534 102.722C169.119 102.722 169.637 102.787 169.686 102.866C169.85 103.131 171.67 103.387 172.317 103.237C172.852 103.113 172.967 103.141 173.171 103.449C173.374 103.755 173.572 103.806 174.572 103.812C175.442 103.817 175.81 103.891 176.022 104.103C176.233 104.314 176.591 104.388 177.394 104.388C178.228 104.388 178.579 104.466 178.905 104.722C179.23 104.978 179.581 105.055 180.418 105.055C181.221 105.055 181.592 105.132 181.829 105.347C182.063 105.558 182.441 105.64 183.206 105.644C183.963 105.647 184.349 105.73 184.576 105.935C184.75 106.093 184.981 106.222 185.088 106.222C185.394 106.222 185.317 106.72 184.992 106.842C184.831 106.902 184.345 107.199 183.91 107.503C183.476 107.807 183.039 108.055 182.94 108.055C182.841 108.055 182.433 108.28 182.033 108.555C181.634 108.83 181.238 109.055 181.154 109.055C181.07 109.055 180.866 109.205 180.7 109.388C180.534 109.572 180.265 109.722 180.103 109.722C179.94 109.722 179.537 109.977 179.206 110.288C178.876 110.6 178.427 110.9 178.209 110.955C177.991 111.009 177.6 111.279 177.34 111.555C177.08 111.83 176.755 112.056 176.617 112.057C176.405 112.058 175.509 112.671 174.64 113.41C174.515 113.516 174.065 113.864 173.64 114.182C172.868 114.761 172.494 115.122 171.868 115.895L171.536 116.305L172.033 115.888C172.307 115.659 172.586 115.397 172.654 115.305C172.737 115.194 172.78 115.194 172.783 115.305C172.786 115.402 172.84 115.395 172.911 115.288C173.058 115.067 175.119 113.729 177.912 112.041C180.21 110.652 180.47 110.507 183.617 108.853C184.854 108.203 186.129 107.506 186.45 107.306C186.771 107.105 187.315 106.808 187.658 106.645C188.002 106.483 188.283 106.298 188.283 106.234C188.283 106.121 184.86 105.029 184.2 104.932C184.017 104.905 183.417 104.742 182.867 104.571C180.622 103.871 176.314 102.789 175.283 102.666C174.962 102.627 174.288 102.479 173.783 102.336C173.279 102.194 172.529 102.041 172.117 101.997C171.704 101.953 171.104 101.838 170.783 101.743C170.003 101.51 169.163 101.363 168.434 101.331C168.104 101.317 167.696 101.192 167.527 101.055C167.356 100.916 167.274 100.897 167.343 101.011C167.428 101.152 167.384 101.186 167.209 101.119C167.066 101.064 166.95 100.971 166.95 100.912C166.95 100.853 166.762 100.794 166.533 100.781C166.304 100.768 166.117 100.824 166.117 100.906C166.117 100.988 166.053 101.055 165.976 101.055C165.899 101.055 165.422 101.449 164.916 101.93C164.411 102.411 163.623 103.143 163.165 103.555C162.708 103.967 161.516 105.055 160.517 105.972C157.054 109.148 155.747 109.984 154.47 109.84C153.257 109.703 152.993 109.269 150.497 103.305C149.84 101.735 149.687 101.63 148.509 101.938C147.973 102.078 147.083 102.31 146.533 102.454C141.213 103.841 135.33 103.445 134.735 101.659C134.543 101.084 135.06 99.3682 135.979 97.5292C136.944 95.5972 136.743 94.2442 135.485 94.2092C135.237 94.2022 134.846 94.1662 134.617 94.1272C132.788 93.8222 131.879 93.6872 131.334 93.6412C130.985 93.6112 129.725 93.4282 128.533 93.2342C123.771 92.4602 123.004 92.3432 122.283 92.2782C121.871 92.2412 120.962 92.1042 120.264 91.9742C119.565 91.8442 118.628 91.6922 118.18 91.6382C117.733 91.5832 116.992 91.4712 116.533 91.3882C116.075 91.3062 115.325 91.1952 114.867 91.1422C114.408 91.0902 113.433 90.9412 112.7 90.8112C111.967 90.6812 110.767 90.4942 110.033 90.3942C109.3 90.2952 108.1 90.1032 107.367 89.9692C106.633 89.8342 105.696 89.6902 105.283 89.6482C104.871 89.6062 104.308 89.5282 104.033 89.4752C102.55 89.1862 101.449 89.0132 100.751 88.9612C100.321 88.9292 99.3827 88.7902 98.6677 88.6532C97.9517 88.5172 97.0287 88.3662 96.6167 88.3182C96.2037 88.2712 95.6787 88.1972 95.4497 88.1532C94.3587 87.9462 92.9397 87.7332 92.0327 87.6402C91.4827 87.5832 90.7627 87.4662 90.4327 87.3792C90.1017 87.2932 89.2017 87.1522 88.4327 87.0672C87.6627 86.9822 86.3957 86.7982 85.6167 86.6592C84.8377 86.5202 83.8617 86.3682 83.4497 86.3222C83.0367 86.2762 82.1207 86.1242 81.4127 85.9842C80.7047 85.8442 79.7877 85.6982 79.3737 85.6592C78.9597 85.6202 77.7387 85.4342 76.6607 85.2452C69.7737 84.0362 69.9427 84.0472 69.2417 84.7632C68.9497 85.0612 68.6517 85.2862 68.5797 85.2632C68.5087 85.2402 68.4487 85.3532 68.4467 85.5132C68.4447 85.7652 68.4207 85.7712 68.2657 85.5552C68.1227 85.3542 68.1037 85.3792 68.1697 85.6802C68.2147 85.8872 68.1877 86.0162 68.1087 85.9672C68.0307 85.9192 67.8897 86.0232 67.7947 86.2002C67.6037 86.5562 66.6857 87.6372 65.7607 88.5952C65.4277 88.9402 65.1867 89.2222 65.2247 89.2222C65.2627 89.2222 65.0317 89.4842 64.7107 89.8052C64.3897 90.1262 64.1657 90.3882 64.2127 90.3882C64.2587 90.3882 64.0127 90.6762 63.6647 91.0282C62.8957 91.8062 61.6167 93.2652 61.6167 93.3642C61.6167 93.4032 61.3917 93.6512 61.1167 93.9132C60.8417 94.1762 60.6167 94.4202 60.6167 94.4562C60.6167 94.5472 59.7747 95.5382 59.3247 95.9772C59.1187 96.1792 58.9497 96.3802 58.9497 96.4262C58.9497 96.4712 58.4627 97.0252 57.8667 97.6572C57.2707 98.2882 56.7837 98.8612 56.7837 98.9302C56.7827 98.9992 56.6707 99.0552 56.5327 99.0552C56.3957 99.0552 56.2827 99.1932 56.2827 99.3622C56.2827 99.5302 56.0397 99.8952 55.7417 100.172C54.7117 101.131 53.6167 102.355 53.6167 102.548C53.6167 102.654 53.5447 102.697 53.4567 102.643C53.3687 102.588 53.1807 102.769 53.0387 103.045C52.8957 103.32 52.6307 103.625 52.4477 103.723C52.2657 103.82 52.1167 103.978 52.1167 104.073C52.1167 104.315 51.6777 104.727 51.5527 104.603C51.4957 104.546 51.4497 104.598 51.4497 104.718C51.4497 104.955 51.2857 105.15 49.8797 106.589C49.3677 107.112 48.9497 107.623 48.9497 107.724C48.9497 107.825 48.8787 107.864 48.7907 107.81C48.7037 107.756 48.5227 107.92 48.3897 108.175C48.2557 108.43 48.1027 108.62 48.0487 108.597C47.8157 108.498 47.6047 108.567 47.6937 108.712C47.8017 108.886 46.7867 109.996 46.5797 109.93C46.5087 109.907 46.4497 109.991 46.4497 110.115C46.4497 110.24 45.4747 111.335 44.2827 112.549C43.0917 113.762 42.1167 114.693 42.1167 114.618C42.1167 114.542 41.9877 114.666 41.8307 114.893C41.6737 115.12 41.3547 115.455 41.1227 115.638C40.8897 115.821 40.5497 116.124 40.3667 116.312C40.1827 116.5 39.4327 117.129 38.6997 117.711C37.9667 118.293 37.2527 118.89 37.1137 119.037C36.5007 119.688 34.1917 121.479 32.5327 122.592C32.1667 122.838 31.3037 123.426 30.6167 123.898C29.9287 124.37 28.9657 124.993 28.4767 125.281C27.9867 125.569 27.3867 125.924 27.1427 126.07C26.2617 126.597 23.3687 128.055 23.2027 128.056C23.1097 128.057 22.8077 128.175 22.5327 128.319C20.7347 129.259 17.8137 129.815 16.8227 129.405C15.3457 128.793 15.5617 126.312 17.4137 122.625C18.2847 120.891 20.1057 116.653 20.7027 114.972C20.9627 114.238 21.2747 113.49 21.3967 113.31C21.5177 113.129 21.6167 112.858 21.6167 112.707C21.6167 112.556 21.7597 112.067 21.9357 111.619C22.6257 109.858 22.9697 108.852 23.9207 105.805C25.5167 100.69 26.2107 98.1452 27.0267 94.4202C27.4787 92.3562 27.7717 91.1452 28.1207 89.8882C29.7317 84.0992 30.7557 78.0552 30.1267 78.0552C30.0357 78.0552 29.6437 77.6052 29.2557 77.0552C28.8677 76.5052 28.4907 76.0552 28.4167 76.0552C28.3437 76.0552 28.2827 75.9542 28.2827 75.8312C28.2827 75.7082 28.1317 75.4702 27.9467 75.3022C27.5297 74.9242 25.8257 72.6742 23.7227 69.7212C22.8417 68.4842 21.7827 67.0072 21.3687 66.4392C20.9547 65.8722 20.6167 65.3282 20.6167 65.2312C20.6167 65.1342 20.5567 65.0552 20.4837 65.0552C20.4097 65.0552 20.1667 64.7572 19.9417 64.3932C19.7167 64.0292 19.4767 63.7292 19.4077 63.7262C19.3397 63.7242 19.2827 63.6152 19.2827 63.4842C19.2827 63.3532 19.1887 63.1462 19.0727 63.0252C18.8877 62.8322 18.4307 62.1292 17.0317 59.8882C15.8667 58.0222 15.5157 57.4552 15.3667 57.1972C15.2747 57.0392 14.9397 56.4742 14.6227 55.9412C14.3047 55.4082 13.9607 54.8222 13.8567 54.6382C13.2177 53.5072 12.9177 53.0122 12.2247 51.9422C11.7987 51.2852 11.4497 50.6962 11.4497 50.6352C11.4497 50.5732 11.3087 50.3242 11.1367 50.0812C10.8547 49.6832 10.2577 48.5572 7.36967 42.9722C6.46067 41.2152 5.91667 40.2772 4.85567 38.6382C4.49967 38.0882 4.22567 37.5822 4.24567 37.5132C4.26667 37.4452 4.21667 37.3882 4.13567 37.3882C4.05467 37.3882 3.94567 37.2572 3.89267 37.0972C3.84067 36.9362 3.60867 36.5052 3.37767 36.1382C2.94567 35.4522 2.78367 35.1832 1.53467 33.0672C0.856672 31.9182 0.796673 31.8602 0.695673 32.2622ZM236.45 34.9912C236.45 35.0832 236.56 35.3042 236.695 35.4812C236.829 35.6592 236.939 35.7302 236.939 35.6382C236.939 35.5472 236.829 35.3262 236.695 35.1482C236.56 34.9702 236.45 34.9002 236.45 34.9912ZM237.963 37.5002C237.956 37.6072 238.081 37.9302 238.242 38.2182L238.533 38.7422L240.282 38.6332C241.243 38.5742 242.071 38.5002 242.121 38.4692C242.264 38.3812 247.075 38.0752 250.117 37.9612C251.629 37.9042 252.898 37.8272 252.936 37.7902C252.974 37.7522 249.662 37.7222 245.575 37.7222C239.787 37.7222 238.126 37.6762 238.06 37.5132C238.002 37.3702 237.972 37.3652 237.963 37.5002ZM254.283 37.9972C254.696 38.0252 256.046 38.1272 257.283 38.2242C258.521 38.3212 260.13 38.4362 260.859 38.4802C261.589 38.5232 262.826 38.6332 263.609 38.7222C265.467 38.9352 265.617 38.9312 265.617 38.6612C265.617 38.5052 265.291 38.4012 264.575 38.3272C264.002 38.2682 263.121 38.1512 262.617 38.0662C262.112 37.9822 259.862 37.9202 257.617 37.9302C255.371 37.9392 253.871 37.9692 254.283 37.9972ZM266.463 38.7892C266.225 39.0762 266.184 39.0542 267.117 39.1332C268.377 39.2402 270.168 39.4322 271.141 39.5642C271.75 39.6482 272.65 39.7612 273.141 39.8162C273.632 39.8722 274.783 40.0262 275.7 40.1582C276.617 40.2912 277.929 40.4752 278.617 40.5682C279.304 40.6612 280.129 40.8032 280.45 40.8852C280.934 41.0082 283.641 41.4982 285.7 41.8342C285.975 41.8792 286.725 42.0282 287.367 42.1652C288.008 42.3022 288.721 42.4492 288.95 42.4932C289.179 42.5372 289.967 42.7202 290.7 42.8992C291.433 43.0792 292.212 43.2602 292.431 43.3022C292.65 43.3442 293.231 43.4952 293.722 43.6382C294.214 43.7812 295.122 43.9682 295.741 44.0552C296.36 44.1422 297.279 44.3302 297.783 44.4722C298.287 44.6142 298.962 44.7352 299.283 44.7412C299.604 44.7472 300.129 44.8362 300.45 44.9382C301.146 45.1602 301.001 45.1292 302.075 45.2892C302.556 45.3612 302.95 45.4882 302.95 45.5712C302.95 45.6542 303.029 45.7222 303.127 45.7222C303.224 45.7222 303.257 45.6472 303.2 45.5552C303.143 45.4632 303.17 45.3882 303.26 45.3882C303.349 45.3882 303.447 45.4632 303.478 45.5532C303.508 45.6442 303.983 45.7672 304.533 45.8252C305.083 45.8842 305.708 45.9982 305.922 46.0782C306.136 46.1582 306.38 46.1822 306.464 46.1302C306.548 46.0782 306.617 46.1122 306.617 46.2072C306.617 46.3012 306.729 46.3352 306.867 46.2822C307.004 46.2292 307.117 46.2562 307.117 46.3422C307.117 46.4272 307.352 46.4632 307.64 46.4202C307.928 46.3782 308.123 46.4102 308.073 46.4912C308.023 46.5722 308.143 46.6512 308.341 46.6662C308.538 46.6812 308.925 46.7332 309.2 46.7822C309.475 46.8302 309.95 46.9112 310.255 46.9612C310.56 47.0112 310.887 47.0992 310.981 47.1572C311.075 47.2152 311.425 47.2942 311.759 47.3322C312.093 47.3702 312.554 47.4472 312.783 47.5042C313.013 47.5612 313.312 47.6282 313.45 47.6542C313.587 47.6792 313.962 47.7722 314.283 47.8602C315.72 48.2552 317.086 48.5922 317.7 48.7052C318.387 48.8302 322.365 49.8482 324.283 50.3882C324.879 50.5552 325.929 50.8512 326.617 51.0442C328.097 51.4602 328.337 51.5312 330.617 52.2242C331.579 52.5172 333.117 53.0182 334.033 53.3382C334.95 53.6582 335.925 53.9832 336.2 54.0602C336.475 54.1382 337.225 54.3992 337.867 54.6422C338.508 54.8842 339.333 55.1802 339.7 55.3002C340.067 55.4192 340.629 55.6342 340.95 55.7772C341.271 55.9202 342.154 56.2772 342.913 56.5692C343.671 56.8612 344.332 57.1652 344.381 57.2442C344.43 57.3242 344.588 57.3882 344.733 57.3882C344.966 57.3882 346.073 57.8432 346.783 58.2312C347.455 58.5972 348.749 59.2202 349.158 59.3742C349.41 59.4692 349.617 59.6282 349.617 59.7272C349.617 59.8272 349.692 59.8622 349.783 59.8052C349.875 59.7482 349.95 59.7792 349.95 59.8732C349.95 59.9672 350.053 60.0052 350.178 59.9572C350.304 59.9092 350.452 59.9862 350.507 60.1292C350.561 60.2722 350.759 60.3882 350.945 60.3882C351.131 60.3882 351.283 60.4632 351.283 60.5552C351.283 60.6472 351.34 60.7132 351.408 60.7022C351.736 60.6502 351.965 60.7512 352.277 61.0862C352.464 61.2872 352.617 61.3832 352.617 61.2992C352.617 61.2162 352.733 61.3142 352.876 61.5182C353.019 61.7222 353.221 61.8882 353.325 61.8882C353.429 61.8882 353.368 61.7712 353.19 61.6272C352.96 61.4402 353.022 61.4502 353.408 61.6622C353.706 61.8262 353.95 62.0192 353.95 62.0912C353.95 62.1632 354.069 62.2222 354.215 62.2222C354.524 62.2222 355.314 62.8022 355.183 62.9332C355.134 62.9822 355.231 63.0102 355.397 62.9972C355.569 62.9822 355.68 63.0672 355.654 63.1922C355.629 63.3142 355.674 63.3732 355.754 63.3232C355.896 63.2352 357.311 64.1722 357.422 64.4272C357.453 64.4982 357.576 64.5552 357.695 64.5552C357.815 64.5552 358.056 64.6862 358.231 64.8472C358.406 65.0072 358.45 65.0712 358.329 64.9902C358.208 64.9082 358.072 64.8772 358.028 64.9212C357.984 64.9652 358.282 65.1732 358.689 65.3832C359.097 65.5932 359.472 65.8722 359.522 66.0032C359.573 66.1352 359.686 66.1982 359.774 66.1442C359.862 66.0902 360.015 66.1982 360.114 66.3842C360.214 66.5702 360.353 66.7222 360.424 66.7222C360.843 66.7222 364.697 70.5662 365.131 71.4172C365.566 72.2682 365.277 74.2772 364.766 73.9612C364.684 73.9102 364.617 73.9562 364.617 74.0632C364.617 74.1702 364.429 74.4802 364.2 74.7522C363.971 75.0242 363.783 75.2222 363.783 75.1912C363.783 75.1602 363.286 75.6042 362.679 76.1762C362.072 76.7492 361.153 77.4942 360.637 77.8332C360.122 78.1722 359.662 78.4962 359.617 78.5522C359.436 78.7752 354.75 81.1172 353.617 81.5522C353.296 81.6742 352.962 81.8382 352.875 81.9152C352.788 81.9922 352.574 82.0552 352.401 82.0552C352.227 82.0552 351.886 82.1672 351.642 82.3032C350.971 82.6792 348.4 83.4752 346.533 83.8842C345.617 84.0842 344.405 84.3572 343.841 84.4892C342.508 84.8012 338.433 84.7002 337.117 84.3222C336.057 84.0182 335.896 84.0002 336.021 84.2022C336.348 84.7302 336.133 88.0972 335.734 88.7002C334.76 90.1722 333.759 91.0182 332.45 91.4782C331.763 91.7192 330.263 92.2542 329.117 92.6672C327.971 93.0802 326.808 93.4812 326.533 93.5572C326.258 93.6342 324.683 94.1572 323.033 94.7202C319.649 95.8752 316.555 96.8152 314.95 97.1752C314.354 97.3092 313.229 97.5672 312.45 97.7482C311.671 97.9292 310.808 98.1152 310.533 98.1612C310.258 98.2072 309.471 98.3492 308.783 98.4762C307.511 98.7112 307.013 98.7882 305.533 98.9772C305.075 99.0352 304.4 99.1472 304.033 99.2242C303.667 99.3022 302.842 99.4132 302.2 99.4712C301.558 99.5292 300.621 99.6422 300.117 99.7222C299.612 99.8032 298.487 99.9522 297.617 100.055C296.746 100.157 295.433 100.346 294.7 100.474C292.511 100.857 287.987 101.478 286.117 101.652C285.704 101.69 284.692 101.793 283.867 101.881C283.042 101.969 281.32 102.087 280.04 102.143C278.76 102.199 277.613 102.3 277.492 102.368C277.21 102.526 276.117 104.688 276.117 105.087C276.117 105.253 276.012 105.388 275.884 105.388C275.594 105.388 275.426 105.799 275.567 106.166C275.645 106.368 275.613 106.406 275.45 106.305C275.287 106.204 275.255 106.242 275.332 106.442C275.396 106.607 275.361 106.702 275.246 106.678C275.14 106.656 275.022 106.788 274.985 106.972C274.947 107.155 274.774 107.461 274.599 107.651C274.423 107.841 274.331 108.047 274.393 108.109C274.455 108.171 274.376 108.222 274.218 108.222C274.059 108.222 273.979 108.3 274.039 108.397C274.098 108.494 273.979 108.719 273.773 108.897C273.567 109.076 273.445 109.222 273.5 109.222C273.556 109.222 273.436 109.397 273.234 109.612C273.032 109.827 272.567 110.364 272.2 110.806C269.468 114.1 264.947 117.799 261.791 119.326C258.723 120.809 257.817 121.064 256.159 120.908C255.259 120.823 253.701 118.226 252.999 115.638C252.711 114.576 249.984 109.35 249.274 108.498C249.185 108.392 248.89 108.005 248.618 107.638C247.438 106.046 247.544 106.073 244.033 106.47C242.842 106.605 241.192 106.718 240.367 106.722C239.542 106.725 238.374 106.799 237.773 106.887C237.171 106.974 235.934 107.089 235.023 107.142C234.112 107.196 232.579 107.298 231.617 107.369C230.654 107.44 229.51 107.492 229.075 107.484C228.64 107.475 228.283 107.517 228.283 107.576C228.283 107.635 227.852 107.643 227.325 107.592C225.453 107.414 223.711 107.512 223.117 107.83C222.888 107.952 222.513 108.128 222.283 108.22C222.054 108.312 221.754 108.455 221.617 108.537C221.479 108.619 221.179 108.769 220.95 108.869C220.721 108.97 220.421 109.125 220.283 109.213C220.04 109.37 217.002 110.815 215.408 111.532C214.973 111.728 214.282 112.044 213.872 112.234C213.463 112.424 213.09 112.578 213.043 112.576C212.996 112.574 212.338 112.859 211.579 113.209C210.821 113.559 209.957 113.898 209.66 113.963C209.363 114.028 209.078 114.15 209.025 114.234C208.973 114.319 208.785 114.388 208.607 114.388C208.429 114.388 208.283 114.473 208.283 114.575C208.283 114.697 208.185 114.683 208.001 114.534C207.81 114.378 207.759 114.372 207.845 114.513C207.923 114.644 207.874 114.722 207.715 114.722C207.575 114.722 207.187 114.875 206.852 115.063C206.518 115.251 206.206 115.367 206.16 115.32C206.113 115.274 205.796 115.379 205.454 115.553C205.111 115.728 204.652 115.902 204.432 115.94C204.213 115.978 203.771 116.11 203.45 116.235C203.129 116.359 202.799 116.441 202.715 116.416C202.632 116.391 202.518 116.445 202.462 116.535C202.406 116.626 202.174 116.725 201.947 116.757C201.719 116.788 201.44 116.872 201.325 116.944C201.21 117.016 201.042 117.028 200.95 116.972C200.858 116.915 200.783 116.957 200.783 117.065C200.783 117.178 200.644 117.224 200.45 117.173C200.267 117.125 200.117 117.162 200.117 117.255C200.117 117.348 200.007 117.382 199.872 117.33C199.737 117.278 199.588 117.299 199.541 117.377C199.493 117.454 199.172 117.57 198.827 117.634C198.482 117.699 198.125 117.81 198.033 117.881C197.942 117.953 197.526 118.048 197.11 118.092C196.694 118.137 196.094 118.293 195.777 118.439C195.459 118.586 194.958 118.686 194.661 118.663C194.365 118.639 194.103 118.678 194.078 118.749C194.053 118.82 193.846 118.913 193.617 118.954C193.388 118.996 193.163 119.045 193.117 119.062C193.071 119.08 192.969 119.083 192.891 119.069C192.812 119.055 192.662 119.111 192.557 119.193C192.453 119.275 191.767 119.389 191.033 119.445C190.3 119.502 189.513 119.593 189.283 119.647C188.047 119.942 175.533 120.169 175.533 119.897C175.533 119.879 175.083 119.83 174.533 119.787C173.09 119.675 173.117 119.68 173.117 119.517C173.117 119.436 173.037 119.418 172.94 119.478C172.52 119.737 170.964 118.373 170.955 117.738C170.95 117.347 170.941 117.345 170.617 117.638C170.01 118.188 170.181 118.775 171.117 119.357C171.67 119.701 171.95 119.987 171.95 120.211C171.95 120.695 172.592 121.046 173.454 121.033C173.864 121.027 174.425 121.116 174.7 121.231C175.302 121.482 181.11 121.69 182.944 121.526C186.138 121.241 186.571 121.151 186.304 120.829C186.202 120.707 186.168 120.559 186.228 120.499C186.288 120.439 186.441 120.54 186.57 120.723C186.888 121.177 190.234 121.218 191.033 120.777C191.349 120.604 191.847 120.515 192.382 120.536C192.849 120.556 193.562 120.456 193.966 120.316C194.37 120.175 194.85 120.056 195.033 120.051C195.601 120.036 197.957 119.29 198.262 119.029C198.446 118.871 198.772 118.807 199.157 118.852C199.515 118.893 199.984 118.813 200.299 118.655C200.594 118.509 201.029 118.388 201.267 118.387C201.505 118.387 201.925 118.237 202.2 118.055C202.475 117.873 202.929 117.723 203.208 117.723C203.488 117.722 203.801 117.638 203.903 117.535C204.006 117.432 204.377 117.288 204.728 117.215C205.579 117.037 206.449 116.703 206.993 116.347C207.238 116.186 207.613 116.055 207.827 116.055C208.042 116.055 208.288 115.993 208.375 115.916C208.462 115.84 208.852 115.687 209.242 115.576C209.631 115.466 209.95 115.303 209.95 115.215C209.95 115.127 210.138 115.055 210.367 115.055C210.596 115.055 210.933 114.905 211.117 114.722C211.3 114.538 211.666 114.388 211.93 114.388C212.193 114.388 212.503 114.276 212.617 114.138C212.731 114.001 212.911 113.888 213.018 113.888C213.125 113.888 213.972 113.513 214.901 113.055C215.83 112.597 216.697 112.222 216.828 112.222C216.958 112.222 217.201 112.072 217.367 111.888C217.533 111.705 217.835 111.555 218.039 111.555C218.242 111.555 218.503 111.442 218.617 111.305C218.731 111.167 219 111.055 219.215 111.055C219.434 111.055 219.683 110.909 219.783 110.722C219.884 110.534 220.132 110.388 220.352 110.388C220.567 110.388 220.836 110.276 220.95 110.138C221.064 110.001 221.282 109.888 221.433 109.888C221.585 109.888 221.857 109.787 222.038 109.663C222.219 109.539 222.591 109.383 222.865 109.317C223.139 109.25 223.411 109.118 223.469 109.025C223.611 108.794 226.961 108.737 228.147 108.944C229.175 109.124 232.634 108.803 233.617 108.437C233.754 108.386 234.9 108.36 236.163 108.38C238.287 108.414 239.76 108.243 240.474 107.88C240.625 107.804 241.412 107.781 242.224 107.829C243.036 107.878 244.342 107.852 245.127 107.773C247.193 107.564 247.163 107.547 248.642 109.727C249.356 110.778 249.942 111.72 249.945 111.821C249.948 111.921 250.1 112.139 250.283 112.305C250.467 112.471 250.617 112.771 250.617 112.972C250.617 113.172 250.767 113.472 250.95 113.638C251.133 113.804 251.283 114.017 251.283 114.112C251.283 114.361 251.952 115.703 252.131 115.814C252.215 115.866 252.283 116.094 252.283 116.322C252.283 116.776 253.335 118.862 253.713 119.157C253.843 119.258 253.95 119.409 253.95 119.492C253.95 119.574 254.134 119.828 254.358 120.057C256.177 121.907 257.224 122.417 258.333 121.993C258.724 121.844 259.174 121.722 259.332 121.722C259.49 121.722 259.748 121.572 259.905 121.388C260.062 121.205 260.35 121.055 260.545 121.055C260.739 121.055 261.034 120.905 261.2 120.722C261.366 120.538 261.653 120.388 261.838 120.388C262.023 120.388 262.297 120.277 262.447 120.141C262.597 120.005 263.027 119.724 263.402 119.516C265.175 118.534 265.95 118.038 265.95 117.887C265.95 117.796 266.037 117.722 266.144 117.722C266.251 117.722 266.457 117.607 266.603 117.467C266.748 117.327 267.354 116.848 267.95 116.403C269.303 115.393 274.032 110.592 274.778 109.472C275.084 109.013 275.469 108.487 275.634 108.302C276.033 107.856 276.783 106.435 276.783 106.124C276.783 105.989 276.896 105.835 277.033 105.782C277.171 105.729 277.283 105.521 277.283 105.32C277.283 104.602 278.245 103.562 278.914 103.558C279.123 103.556 279.573 103.438 279.914 103.295C280.375 103.101 281.234 103.026 283.283 102.999C285.224 102.974 286.152 102.897 286.436 102.739C286.701 102.591 287.357 102.521 288.353 102.534C290.089 102.558 291.051 102.375 291.351 101.965C291.528 101.723 291.619 101.711 291.948 101.887C292.689 102.284 294.778 102.019 295.213 101.473C295.565 101.031 295.598 101.023 295.969 101.283C296.452 101.621 297.723 101.638 298.572 101.318C298.917 101.188 299.746 101.047 300.413 101.007C301.215 100.957 301.727 100.84 301.926 100.66C302.144 100.463 302.549 100.388 303.41 100.388C304.312 100.388 304.662 100.319 304.883 100.098C305.099 99.8822 305.464 99.8042 306.307 99.7952C307.151 99.7852 307.525 99.7052 307.772 99.4822C308.001 99.2742 308.236 99.2162 308.536 99.2912C308.774 99.3502 309.433 99.2902 310.001 99.1552C310.569 99.0212 311.331 98.8622 311.694 98.8022C312.058 98.7422 312.56 98.5872 312.811 98.4572C313.062 98.3282 313.594 98.2222 313.993 98.2222C314.393 98.2222 314.865 98.1122 315.043 97.9772C315.221 97.8422 315.73 97.7302 316.174 97.7272C316.722 97.7232 317.117 97.6152 317.405 97.3882C317.69 97.1642 318.081 97.0552 318.602 97.0552C319.028 97.0552 319.524 96.9542 319.705 96.8302C319.885 96.7062 320.321 96.5602 320.673 96.5052C321.025 96.4502 321.427 96.3102 321.567 96.1942C321.706 96.0782 322.059 96.0042 322.35 96.0292C322.694 96.0592 323.04 95.9492 323.337 95.7152C323.588 95.5182 323.901 95.3982 324.033 95.4492C324.395 95.5872 326.498 94.8912 326.783 94.5372C326.975 94.3002 327.171 94.2502 327.619 94.3232C328.079 94.3992 328.271 94.3442 328.519 94.0702C328.693 93.8792 329.005 93.7222 329.212 93.7222C329.42 93.7222 329.802 93.6172 330.061 93.4902C331.888 92.5922 333.074 92.0552 333.229 92.0552C333.328 92.0552 333.722 91.7522 334.103 91.3822C334.484 91.0122 334.868 90.7552 334.957 90.8092C335.155 90.9322 337.098 88.9512 337.302 88.4192C337.383 88.2072 337.45 87.5322 337.45 86.9192V85.8052L340.754 85.8612C343.486 85.9082 344.167 85.8722 344.691 85.6532C345.039 85.5072 345.638 85.3882 346.022 85.3882C346.406 85.3882 346.865 85.2782 347.043 85.1442C347.221 85.0092 347.638 84.8972 347.969 84.8942C348.316 84.8912 348.755 84.7442 349.002 84.5502C349.285 84.3272 349.567 84.2452 349.824 84.3092C350.081 84.3742 350.363 84.2912 350.65 84.0642C350.89 83.8762 351.243 83.7222 351.435 83.7222C351.627 83.7222 352.064 83.5722 352.406 83.3882C352.749 83.2052 353.152 83.0552 353.302 83.0552C353.453 83.0552 353.669 82.9422 353.783 82.8052C353.897 82.6672 354.166 82.5552 354.381 82.5552C354.601 82.5552 354.85 82.4092 354.95 82.2222C355.055 82.0252 355.299 81.8882 355.546 81.8882C356.12 81.8882 357.283 81.2702 357.283 80.9652C357.283 80.7872 357.394 80.7432 357.671 80.8132C357.917 80.8742 358.137 80.8152 358.274 80.6492C358.393 80.5062 358.597 80.3882 358.727 80.3882C358.989 80.3882 359.963 79.7472 360.157 79.4462C360.226 79.3412 360.638 79.0482 361.074 78.7952C362.465 77.9892 365.283 75.4542 365.283 75.0082C365.283 74.8712 365.432 74.4312 365.613 74.0322C366.037 73.0962 366.037 71.8472 365.613 70.9122C365.432 70.5122 365.283 70.0992 365.283 69.9932C365.283 69.7512 361.514 66.0272 360.283 65.0532C359.779 64.6542 359.292 64.2462 359.2 64.1462C359.108 64.0462 358.645 63.7182 358.171 63.4172C357.697 63.1162 357.222 62.7652 357.116 62.6382C357.01 62.5102 356.59 62.2442 356.184 62.0472C355.777 61.8502 355.368 61.5472 355.275 61.3722C355.181 61.1982 354.969 61.0552 354.803 61.0552C354.637 61.0552 354.366 60.9052 354.2 60.7222C354.034 60.5382 353.764 60.3882 353.601 60.3882C353.437 60.3882 353.26 60.3182 353.207 60.2322C353.153 60.1462 352.905 59.9692 352.655 59.8392C351.822 59.4042 348.214 57.6062 347.238 57.1392C346.709 56.8852 346.236 56.6132 346.187 56.5332C346.137 56.4542 345.851 56.3882 345.549 56.3882C345.213 56.3882 344.885 56.2602 344.7 56.0552C344.534 55.8722 344.253 55.7222 344.075 55.7222C343.898 55.7222 343.571 55.5792 343.349 55.4042C343.113 55.2192 342.804 55.1242 342.604 55.1772C342.375 55.2372 342.181 55.1492 342.013 54.9112C341.867 54.7012 341.58 54.5532 341.316 54.5502C341.069 54.5472 340.721 54.4342 340.543 54.3002C340.365 54.1652 340.043 54.0552 339.828 54.0552C339.613 54.0552 339.221 53.8952 338.957 53.7002C338.637 53.4642 338.345 53.3792 338.079 53.4452C337.798 53.5162 337.596 53.4442 337.384 53.1972C337.154 52.9292 336.96 52.8702 336.53 52.9402C336.088 53.0122 335.926 52.9582 335.739 52.6762C335.565 52.4142 335.334 52.3222 334.852 52.3242C334.411 52.3262 334.13 52.2292 333.982 52.0242C333.839 51.8252 333.552 51.7222 333.144 51.7222C332.73 51.7222 332.429 51.6112 332.239 51.3882C332.039 51.1562 331.747 51.0552 331.27 51.0552C330.838 51.0552 330.429 50.9322 330.162 50.7222C329.929 50.5382 329.57 50.3882 329.365 50.3882C329.159 50.3882 328.721 50.2762 328.392 50.1382C328.063 50.0012 327.569 49.8882 327.294 49.8882C327.019 49.8882 326.494 49.7322 326.128 49.5422C325.744 49.3412 325.326 49.2392 325.138 49.2982C324.945 49.3592 324.586 49.2632 324.256 49.0622C323.95 48.8762 323.461 48.7232 323.168 48.7222C322.876 48.7222 322.595 48.6542 322.544 48.5722C322.493 48.4892 322.057 48.3352 321.576 48.2302C321.094 48.1242 320.301 47.9202 319.813 47.7772C319.291 47.6242 318.671 47.5572 318.309 47.6152C317.809 47.6952 317.653 47.6512 317.486 47.3842C317.32 47.1172 317.096 47.0552 316.308 47.0552C315.547 47.0552 315.269 46.9822 315.033 46.7222C314.801 46.4652 314.52 46.3882 313.812 46.3882C313.201 46.3882 312.794 46.2982 312.596 46.1202C312.412 45.9532 311.871 45.8192 311.166 45.7652C310.543 45.7172 309.958 45.6232 309.867 45.5552C309.391 45.2042 308.423 45.0322 307.916 45.2092C307.461 45.3672 307.341 45.3442 307.009 45.0332C306.737 44.7762 306.304 44.6382 305.497 44.5492C304.875 44.4812 304.032 44.2992 303.622 44.1452C303.162 43.9722 302.67 43.9042 302.335 43.9672C301.959 44.0372 301.654 43.9782 301.344 43.7752C300.854 43.4542 298.945 43.3522 298.398 43.6182C298.165 43.7322 298.076 43.6872 298.007 43.4232C297.913 43.0642 296.513 42.5982 296.055 42.7732C295.932 42.8212 295.396 42.7162 294.865 42.5412C294.333 42.3652 293.507 42.2222 293.028 42.2222C292.549 42.2222 291.867 42.1002 291.512 41.9502C290.7 41.6092 288.77 41.5542 288.4 41.8612C288.1 42.1092 287.783 41.9932 287.783 41.6342C287.783 41.2372 287.191 41.0552 285.896 41.0552C285.014 41.0552 284.442 40.9592 283.927 40.7252C283.405 40.4892 282.833 40.3952 281.902 40.3922C280.973 40.3892 280.484 40.3092 280.177 40.1082C279.869 39.9062 279.209 39.7992 277.808 39.7252C276.74 39.6692 275.717 39.5402 275.533 39.4392C275.029 39.1622 273.099 39.0032 272.594 39.1972C272.244 39.3312 272.008 39.2922 271.428 39.0022C270.448 38.5132 266.822 38.3572 266.463 38.7892ZM159.783 55.6472C159.371 55.7652 158.841 55.8682 158.607 55.8752C158.372 55.8822 158.035 55.9982 157.857 56.1332C157.673 56.2722 157.164 56.3802 156.677 56.3832C156.068 56.3872 155.707 56.4852 155.427 56.7222L155.033 57.0562L155.617 56.9692C156.209 56.8822 156.531 56.8142 159.2 56.2132C160.025 56.0272 160.999 55.8372 161.365 55.7912C161.731 55.7452 162.103 55.6362 162.19 55.5482C162.423 55.3162 160.691 55.3872 159.783 55.6472Z" fill="#0CCCE0"/>
</svg>
