<svg width="361" height="184" viewBox="0 0 361 184" fill="none" xmlns="http://www.w3.org/2000/svg">
<path fill-rule="evenodd" clip-rule="evenodd" d="M85.247 0.299314C85.935 0.462314 86.797 0.637315 87.164 0.687315C88.465 0.867315 90.343 1.31431 91.247 1.65931C91.752 1.85231 92.298 2.03132 92.462 2.05632C92.626 2.08132 93.048 2.24931 93.4 2.42831C93.752 2.60831 94.086 2.70831 94.142 2.65231C94.199 2.59531 94.404 2.69232 94.597 2.86732C94.791 3.04232 94.979 3.16431 95.016 3.13731C95.194 3.00731 96.233 3.32531 96.137 3.48031C96.076 3.57731 96.109 3.60531 96.211 3.54231C96.401 3.42431 97.551 3.95132 98.225 4.46432C98.442 4.62932 98.687 4.72332 98.768 4.67332C98.85 4.62232 98.961 4.69831 99.016 4.84231C99.071 4.98531 99.221 5.10231 99.348 5.10231C99.476 5.10231 99.581 5.18231 99.581 5.27931C99.581 5.37631 99.651 5.41231 99.737 5.35931C99.823 5.30531 99.971 5.39531 100.065 5.55731C100.16 5.72031 100.239 5.78932 100.242 5.71332C100.245 5.63632 100.491 5.77531 100.789 6.02331C101.508 6.62131 103.52 8.40331 104.124 8.97731C104.389 9.22931 104.649 9.43632 104.702 9.43632C104.988 9.43632 108.774 13.5203 108.625 13.6693C108.57 13.7243 108.609 13.7693 108.712 13.7693C108.922 13.7693 110.004 15.2683 109.797 15.2723C109.724 15.2733 109.739 15.3293 109.831 15.3973C110.113 15.6043 110.541 16.5073 110.461 16.7273C110.42 16.8423 110.459 16.9363 110.548 16.9363C110.712 16.9363 110.983 17.9373 110.967 18.4773C110.962 18.6383 111.022 18.7693 111.101 18.7693C111.251 18.7693 111.265 18.9033 111.293 20.5193C111.311 21.6083 111.125 23.5623 110.981 23.7953C110.931 23.8763 110.854 24.1443 110.809 24.3923C110.764 24.6393 110.658 24.9263 110.572 25.0293C110.487 25.1323 110.466 25.2663 110.527 25.3263C110.587 25.3863 110.551 25.4363 110.447 25.4363C110.343 25.4363 110.301 25.5483 110.354 25.6863C110.406 25.8233 110.372 25.9363 110.278 25.9363C110.184 25.9363 110.024 26.1863 109.923 26.4923C109.822 26.7983 109.572 27.2283 109.368 27.4473C109.164 27.6663 109.017 27.9063 109.041 27.9793C109.064 28.0523 108.971 28.1553 108.832 28.2083C108.694 28.2613 108.581 28.4053 108.581 28.5273C108.581 28.6503 108.443 28.8483 108.274 28.9683C108.105 29.0883 107.876 29.3573 107.765 29.5653C107.654 29.7753 107.482 29.8943 107.38 29.8313C107.277 29.7683 107.242 29.7933 107.302 29.8893C107.36 29.9833 107.217 30.2013 106.984 30.3733C106.545 30.6973 105.427 31.6703 104.813 32.2633C104.62 32.4503 104.417 32.6023 104.362 32.6023C104.307 32.6023 103.94 32.9013 103.546 33.2673C103.153 33.6323 102.752 33.9323 102.656 33.9343C102.56 33.9353 102.335 34.0493 102.156 34.1883C101.977 34.3273 101.418 34.7433 100.914 35.1133C99.537 36.1223 99.143 36.4233 97.676 37.5833C96.936 38.1683 96.148 38.7673 95.924 38.9143C95.701 39.0623 95.203 39.5013 94.818 39.8923C94.432 40.2833 94.07 40.6023 94.011 40.6023C93.953 40.6023 93.635 40.8463 93.305 41.1443C92.975 41.4423 92.64 41.6673 92.56 41.6443C92.48 41.6213 92.414 41.6783 92.414 41.7703C92.414 41.8633 91.645 42.7193 90.706 43.6733C89 45.4053 87.777 46.7623 87.537 47.1873C87.41 47.4133 87.599 47.5203 88.442 47.6983C88.656 47.7433 89.168 47.8543 89.581 47.9433C89.993 48.0333 90.545 48.1403 90.806 48.1823C91.068 48.2243 91.405 48.2953 91.556 48.3413C92.072 48.4973 92.872 48.6003 94.185 48.6793C94.907 48.7223 96.06 48.8013 96.747 48.8533C97.435 48.9063 99.985 48.9733 102.414 49.0013C104.843 49.0303 107.281 49.0993 107.831 49.1553C108.381 49.2103 109.393 49.2913 110.081 49.3353C111.157 49.4033 112.066 49.5203 114.081 49.8533C114.31 49.8903 114.91 49.9663 115.414 50.0213C115.918 50.0763 116.781 50.2213 117.331 50.3433C117.881 50.4653 118.706 50.6143 119.164 50.6753C119.622 50.7363 120.485 50.9223 121.081 51.0893C121.677 51.2563 122.764 51.5213 123.497 51.6803C124.231 51.8383 124.958 52.0333 125.115 52.1153C125.528 52.3303 125.626 51.9623 125.84 49.3913C125.876 48.9543 125.985 48.4483 126.082 48.2663C126.18 48.0843 126.223 47.9363 126.179 47.9363C126.135 47.9363 126.212 47.5533 126.351 47.0863C126.49 46.6193 126.563 46.1963 126.515 46.1473C126.466 46.0983 126.506 45.9093 126.603 45.7273C126.74 45.4713 126.733 45.4253 126.572 45.5253C126.436 45.6083 126.404 45.5863 126.482 45.4613C126.593 45.2803 126.803 44.2773 127.01 42.9363C127.059 42.6153 127.145 42.2403 127.2 42.1023C127.255 41.9653 127.287 41.7933 127.271 41.7203C127.255 41.6473 127.551 40.5593 127.928 39.3033C128.306 38.0473 128.619 36.9253 128.625 36.8113C128.631 36.6963 128.699 36.6023 128.775 36.6023C128.851 36.6023 128.902 36.5463 128.887 36.4773C128.872 36.4093 128.908 36.1653 128.968 35.9363C129.028 35.7073 129.11 35.3183 129.149 35.0723C129.189 34.8263 129.334 34.3763 129.471 34.0723C129.758 33.4373 129.864 33.0793 129.998 32.2883C130.05 31.9773 130.171 31.5793 130.265 31.4023C130.36 31.2263 130.443 30.8613 130.451 30.5923C130.458 30.3233 130.528 30.1023 130.606 30.1023C130.684 30.1023 130.732 30.0463 130.713 29.9773C130.694 29.9093 130.767 29.5903 130.874 29.2693C130.981 28.9483 131.104 28.4813 131.146 28.2303C131.189 27.9803 131.271 27.6993 131.329 27.6063C131.386 27.5133 131.461 27.3053 131.495 27.1453C131.529 26.9843 131.756 26.1023 131.999 25.1863C132.243 24.2693 132.472 23.3693 132.509 23.1863C132.722 22.1173 132.81 21.8083 133.021 21.3963C133.149 21.1453 133.268 20.8823 133.285 20.8123C133.316 20.6833 133.756 20.4263 134.298 20.2203C134.503 20.1423 134.56 20.1673 134.479 20.2993C134.396 20.4333 134.457 20.4553 134.678 20.3683C135.038 20.2283 135.078 20.2223 135.382 20.2493C135.503 20.2603 135.547 20.3553 135.481 20.4613C135.408 20.5803 135.436 20.6093 135.553 20.5363C135.657 20.4723 135.838 20.4983 135.954 20.5963C136.069 20.6933 136.374 20.9303 136.631 21.1233C136.888 21.3163 137.057 21.5153 137.007 21.5653C136.957 21.6153 137.066 21.7603 137.248 21.8893C137.431 22.0173 137.581 22.1903 137.581 22.2753C137.581 22.3603 137.974 22.8263 138.456 23.3123C138.937 23.7973 139.856 24.7853 140.497 25.5073C141.139 26.2293 141.851 27.0113 142.081 27.2463C142.31 27.4813 142.479 27.7323 142.456 27.8043C142.433 27.8773 142.492 27.9363 142.588 27.9363C142.683 27.9363 142.922 28.0863 143.119 28.2693C143.316 28.4523 143.427 28.6023 143.365 28.6023C143.304 28.6023 143.514 28.8713 143.834 29.2003C144.153 29.5293 144.414 29.8683 144.414 29.9543C144.414 30.0863 144.907 30.6923 145.672 31.5013C146.145 32.0003 148.243 34.9433 148.596 35.6023C148.817 36.0153 149.091 36.4513 149.206 36.5733C149.32 36.6943 149.414 36.8663 149.414 36.9553C149.414 37.0433 149.567 37.2803 149.754 37.4813C149.941 37.6823 150.14 38.0353 150.196 38.2663C150.252 38.4973 150.473 38.8633 150.687 39.0813C150.9 39.2983 151.035 39.5423 150.985 39.6223C150.935 39.7033 150.978 39.7693 151.081 39.7693C151.183 39.7693 151.221 39.8443 151.164 39.9363C151.107 40.0273 151.145 40.1023 151.247 40.1023C151.35 40.1023 151.387 40.1773 151.331 40.2693C151.274 40.3613 151.292 40.4363 151.37 40.4363C151.449 40.4363 151.797 40.8823 152.145 41.4273C152.492 41.9713 152.833 42.4403 152.904 42.4683C153.104 42.5483 154.581 44.4133 154.581 44.5863C154.581 44.6713 154.642 44.7663 154.717 44.7973C154.792 44.8273 155.185 45.3373 155.592 45.9303C155.998 46.5223 156.499 47.1963 156.706 47.4283C156.912 47.6593 157.081 47.9393 157.081 48.0503C157.081 48.1603 157.23 48.3553 157.413 48.4833C157.596 48.6113 157.696 48.7653 157.635 48.8263C157.575 48.8863 157.601 48.9363 157.693 48.9363C157.785 48.9363 158.06 49.3013 158.303 49.7483C158.546 50.1943 158.857 50.6533 158.994 50.7663C159.131 50.8803 159.203 51.0403 159.152 51.1213C159.102 51.2023 159.135 51.2693 159.226 51.2693C159.317 51.2693 159.444 51.4383 159.509 51.6443C159.573 51.8503 159.695 52.0643 159.781 52.1193C159.866 52.1743 159.96 52.3623 159.989 52.5363C160.018 52.7103 160.125 52.8343 160.228 52.8113C160.33 52.7883 160.414 52.9103 160.414 53.0823C160.414 53.2543 160.524 53.4863 160.659 53.5983C160.793 53.7103 160.89 53.8503 160.873 53.9103C160.856 53.9703 161.049 54.3413 161.301 54.7343C161.553 55.1273 161.719 55.5143 161.669 55.5943C161.619 55.6753 161.645 55.7663 161.727 55.7963C161.809 55.8273 162.189 56.5093 162.573 57.3123C162.975 58.1533 163.452 58.8943 163.699 59.0623C163.934 59.2213 164.338 59.5493 164.596 59.7903C164.855 60.0313 165.107 60.1883 165.157 60.1383C165.206 60.0883 165.247 60.1343 165.247 60.2413C165.247 60.3483 165.324 60.4363 165.417 60.4363C165.511 60.4363 165.905 60.6383 166.292 60.8863C166.68 61.1343 167.098 61.3533 167.22 61.3743C167.343 61.3943 167.568 61.5233 167.72 61.6603C167.873 61.7973 168.204 61.9613 168.456 62.0243C168.708 62.0873 168.914 62.2103 168.914 62.2973C168.914 62.3843 168.989 62.4093 169.081 62.3523C169.172 62.2963 169.247 62.3293 169.247 62.4263C169.247 62.5233 169.426 62.6023 169.644 62.6023C169.862 62.6023 170.133 62.7153 170.247 62.8523C170.361 62.9903 170.528 63.1023 170.619 63.1023C170.709 63.1023 171.156 63.2903 171.612 63.5193C172.068 63.7483 172.541 63.9363 172.664 63.9363C172.786 63.9363 172.911 63.9923 172.942 64.0613C173.028 64.2543 174.344 64.9363 174.631 64.9363C174.771 64.9363 174.912 65.0143 174.944 65.1093C174.976 65.2053 175.188 65.3023 175.416 65.3263C175.644 65.3503 176.128 65.5003 176.492 65.6593C176.855 65.8183 177.268 65.9723 177.408 66.0013C177.549 66.0293 177.777 66.1003 177.914 66.1583C178.578 66.4383 179.558 66.7363 179.618 66.6763C179.655 66.6393 180.092 66.7573 180.589 66.9393C181.086 67.1203 181.662 67.2693 181.87 67.2693C182.078 67.2693 182.247 67.3573 182.247 67.4633C182.247 67.5703 182.292 67.6143 182.346 67.5593C182.4 67.5053 182.794 67.5743 183.221 67.7123C183.648 67.8503 184.185 67.9863 184.414 68.0143C184.916 68.0773 187.996 68.8803 188.581 69.1013C188.81 69.1883 189.297 69.2913 189.664 69.3313C190.031 69.3723 190.537 69.4853 190.789 69.5833C191.041 69.6813 191.247 69.7303 191.247 69.6933C191.247 69.6563 191.491 69.7023 191.789 69.7963C192.087 69.8903 192.518 69.9923 192.747 70.0233C193.493 70.1263 194.317 70.2873 194.996 70.4643C195.361 70.5593 195.876 70.6643 196.138 70.6973C196.401 70.7303 196.739 70.7953 196.89 70.8413C197.041 70.8863 197.427 70.9663 197.747 71.0183C198.068 71.0713 198.573 71.1913 198.869 71.2863C199.165 71.3813 199.482 71.4133 199.574 71.3573C199.665 71.3003 200.06 71.3413 200.452 71.4463C200.844 71.5523 201.351 71.6713 201.581 71.7103C201.81 71.7503 202.111 71.8163 202.25 71.8583C202.389 71.8993 202.876 71.9733 203.333 72.0233C204.425 72.1403 205.133 72.2403 206.247 72.4363C206.752 72.5243 207.689 72.6393 208.331 72.6913C209.581 72.7933 209.714 72.8103 211.497 73.0953C212.139 73.1983 213.039 73.3103 213.497 73.3453C213.956 73.3803 214.331 73.4193 214.331 73.4313C214.331 73.4443 214.631 73.4803 214.997 73.5113C215.963 73.5933 217.271 73.7623 217.712 73.8603C217.922 73.9073 218.669 73.9833 219.373 74.0293C220.076 74.0753 220.702 74.1953 220.764 74.2963C220.826 74.3963 220.961 74.4263 221.064 74.3633C221.167 74.2993 221.794 74.3293 222.458 74.4303C223.121 74.5303 224.114 74.6513 224.664 74.6993C225.687 74.7873 226.497 74.8903 226.497 74.9323C226.497 74.9453 226.872 74.9923 227.331 75.0353C227.789 75.0793 228.351 75.1513 228.581 75.1953C228.963 75.2673 231.654 75.4703 232.539 75.4933C232.745 75.4983 232.914 75.5443 232.914 75.5943C232.914 75.6443 233.201 75.6783 233.552 75.6683C233.903 75.6583 234.672 75.7183 235.26 75.8013C235.849 75.8843 237.081 75.9833 237.997 76.0213C242.22 76.1933 244.443 76.3123 247.652 76.5363C248.47 76.5943 249.52 76.6673 249.985 76.6993C254.028 76.9803 254.914 76.8243 254.914 75.8303C254.914 75.7053 254.987 75.6023 255.075 75.6023C255.164 75.6023 255.194 75.4903 255.141 75.3523C255.088 75.2153 255.132 75.1023 255.239 75.1023C255.346 75.1023 255.391 75.0343 255.339 74.9503C255.288 74.8663 255.302 74.7723 255.371 74.7423C255.441 74.7113 255.764 74.1613 256.091 73.5193C256.621 72.4783 257.515 70.9933 257.747 70.7693C257.795 70.7233 258.018 70.4103 258.243 70.0733C258.469 69.7363 258.712 69.4973 258.784 69.5413C258.855 69.5863 258.914 69.5193 258.914 69.3943C258.914 69.2683 259.045 69.0203 259.206 68.8423C259.366 68.6643 259.76 68.1593 260.081 67.7193C261.574 65.6713 262.591 65.1623 263.858 65.8273C264.387 66.1053 265.752 67.3753 265.641 67.4863C265.602 67.5263 265.837 67.7743 266.163 68.0393C266.49 68.3033 266.912 68.6463 267.1 68.8013C267.585 69.2003 270.323 70.5023 271.414 70.8523C271.918 71.0143 272.421 71.2183 272.532 71.3053C272.642 71.3933 272.811 71.4163 272.906 71.3573C273.002 71.2983 273.286 71.3603 273.539 71.4943C274.009 71.7443 275.893 72.2133 276.129 72.1393C276.202 72.1163 276.417 72.1813 276.608 72.2843C276.964 72.4743 277.163 72.5143 278.747 72.7093C280.655 72.9433 285.257 72.8223 285.738 72.5253C285.805 72.4833 286.134 72.4313 286.47 72.4093C286.806 72.3863 287.081 72.3203 287.081 72.2633C287.081 72.2053 287.174 72.1473 287.289 72.1343C288.495 71.9973 288.851 71.9293 289.537 71.7083C289.974 71.5673 290.601 71.4053 290.932 71.3463C291.537 71.2403 291.988 70.8283 294.331 68.2393C294.789 67.7333 295.502 66.9463 295.914 66.4913C296.327 66.0363 296.889 65.3723 297.164 65.0163C297.439 64.6603 297.887 64.1583 298.159 63.9023C298.432 63.6453 298.586 63.4363 298.502 63.4363C298.418 63.4363 298.603 63.2483 298.914 63.0193C299.225 62.7903 299.417 62.6023 299.342 62.6023C299.267 62.6023 299.508 62.2843 299.877 61.8943C300.572 61.1603 300.978 60.7003 301.831 59.6813C302.106 59.3523 302.499 58.9233 302.706 58.7293C302.912 58.5353 303.081 58.3223 303.081 58.2573C303.081 58.1493 303.897 57.2673 306.474 54.5893C306.966 54.0773 307.5 53.4593 307.661 53.2143C307.821 52.9693 308.056 52.7693 308.183 52.7693C308.31 52.7693 308.414 52.6943 308.414 52.6013C308.414 52.5093 309.384 51.4593 310.569 50.2683C311.754 49.0773 312.692 48.1023 312.652 48.1023C312.562 48.1023 313.22 47.4393 313.322 47.4273C313.453 47.4123 314.414 46.4743 314.414 46.3623C314.414 46.2683 315.066 45.5793 316.831 43.8073C317.106 43.5313 318.268 42.4053 319.414 41.3053C320.56 40.2053 322.086 38.7343 322.807 38.0373C323.527 37.3403 324.183 36.7693 324.265 36.7693C324.347 36.7693 324.414 36.6563 324.414 36.5193C324.414 36.3813 324.502 36.2693 324.609 36.2693C324.717 36.2693 325.192 35.8753 325.665 35.3943C327.295 33.7353 329.421 31.7693 329.584 31.7693C329.674 31.7693 329.747 31.6523 329.747 31.5093C329.747 31.3663 329.814 31.2913 329.896 31.3413C329.978 31.3923 330.315 31.1343 330.645 30.7683C330.976 30.4023 331.294 30.1023 331.353 30.1023C331.411 30.1023 331.632 29.9343 331.844 29.7273C332.842 28.7563 333.017 28.6023 333.128 28.6023C333.194 28.6023 333.384 28.4713 333.55 28.3113C333.717 28.1503 334.369 27.5693 334.999 27.0193C335.629 26.4693 336.259 25.8883 336.399 25.7273C336.54 25.5673 336.748 25.4363 336.862 25.4363C336.976 25.4363 337.153 25.2793 337.255 25.0883C337.357 24.8973 337.477 24.7763 337.521 24.8203C337.565 24.8643 337.774 24.7403 337.986 24.5433C338.704 23.8773 339.275 23.4363 339.42 23.4363C339.499 23.4363 339.624 23.3423 339.697 23.2273C339.771 23.1133 340.281 22.7193 340.831 22.3523C341.381 21.9863 341.906 21.6293 341.997 21.5593C342.089 21.4893 342.454 21.2093 342.809 20.9363C343.164 20.6643 343.52 20.4813 343.601 20.5313C343.681 20.5813 343.747 20.5053 343.747 20.3623C343.747 20.2193 343.827 20.1023 343.924 20.1023C344.083 20.1023 346.214 18.6903 346.414 18.4523C346.684 18.1303 347.141 17.8593 347.003 18.1023C346.925 18.2403 347.042 18.1813 347.263 17.9713C348.114 17.1623 349.715 15.9593 349.812 16.0563C349.868 16.1123 349.914 16.0583 349.914 15.9363C349.914 15.8133 349.963 15.7623 350.022 15.8223C350.082 15.8813 350.251 15.8003 350.399 15.6413C350.679 15.3413 351.151 15.0143 351.581 14.8223C351.718 14.7603 351.868 14.6673 351.914 14.6143C352.084 14.4193 353.556 13.4363 353.678 13.4363C353.748 13.4363 353.923 13.3333 354.068 13.2073C354.212 13.0823 355.081 12.5843 355.997 12.1023C356.914 11.6193 357.755 11.1533 357.866 11.0653C357.977 10.9773 358.445 10.8953 358.906 10.8823C360.769 10.8303 361.372 13.0213 359.944 14.6523C359.799 14.8173 359.664 15.0703 359.642 15.2163C359.59 15.5723 358.56 17.5053 358.385 17.5753C358.308 17.6063 358.284 17.6943 358.332 17.7723C358.38 17.8493 358.238 18.1803 358.016 18.5083C357.791 18.8383 357.649 19.2423 357.694 19.4173C357.739 19.5903 357.695 19.7823 357.595 19.8433C357.496 19.9053 357.414 20.0953 357.414 20.2653C357.414 20.4353 357.358 20.6003 357.289 20.6303C357.178 20.6793 355.686 23.5293 355.65 23.7603C355.609 24.0213 355.333 24.5543 355.097 24.8283C354.951 24.9983 354.84 25.1863 354.852 25.2453C354.874 25.3613 353.726 27.7973 353.583 27.9363C353.536 27.9813 353.474 28.1313 353.444 28.2693C353.33 28.8073 351.453 32.6063 350.158 34.9203C349.932 35.3243 349.747 35.7193 349.747 35.7973C349.747 35.8753 349.524 36.2473 349.25 36.6253C348.977 37.0023 348.794 37.3763 348.844 37.4563C348.893 37.5373 348.873 37.6033 348.799 37.6043C348.647 37.6053 348.247 38.3983 348.247 38.6983C348.247 38.8063 348.135 38.9883 347.997 39.1023C347.86 39.2163 347.747 39.4513 347.747 39.6233C347.747 39.7953 347.683 39.9363 347.604 39.9363C347.525 39.9363 347.281 40.2923 347.062 40.7273C346.843 41.1633 346.559 41.6503 346.43 41.8113C346.301 41.9713 346.254 42.1023 346.325 42.1023C346.397 42.1023 346.361 42.2163 346.246 42.3543C345.976 42.6793 345.31 43.8563 344.973 44.6023C344.828 44.9233 344.625 45.2413 344.52 45.3083C344.416 45.3753 344.384 45.4323 344.45 45.4333C344.516 45.4353 344.347 45.8413 344.075 46.3363C343.803 46.8323 343.581 47.3233 343.581 47.4273C343.581 47.5313 343.506 47.7073 343.415 47.8183C343.248 48.0193 341.579 51.2403 341.603 51.3133C341.618 51.3593 340.232 54.1913 339.952 54.6863C339.849 54.8693 339.487 55.6563 339.147 56.4363C338.808 57.2153 338.471 57.8763 338.398 57.9053C338.326 57.9343 338.312 58.0773 338.368 58.2243C338.436 58.4013 338.405 58.4503 338.276 58.3703C338.162 58.2993 338.081 58.3483 338.081 58.4863C338.081 58.6923 337.763 59.4633 336.833 61.5193C336.253 62.8003 335.095 65.8593 334.972 66.4363C334.832 67.0873 334.811 67.1553 334.592 67.6863C334.478 67.9613 334.363 68.4113 334.336 68.6863C334.309 68.9613 334.213 69.3733 334.123 69.6023C333.612 70.9003 333.483 74.9773 333.929 75.7053C334.104 75.9913 334.25 76.3663 334.253 76.5393C334.256 76.7113 334.368 76.9983 334.503 77.1763C334.637 77.3543 334.747 77.6353 334.747 77.8013C334.747 77.9673 334.806 78.1023 334.878 78.1023C334.949 78.1023 335.112 78.4593 335.24 78.8943C335.367 79.3293 335.603 79.9233 335.765 80.2133C335.926 80.5033 336.151 81.0653 336.265 81.4633C336.379 81.8603 336.565 82.2983 336.68 82.4363C336.794 82.5733 336.912 82.7953 336.943 82.9293C336.973 83.0633 337.278 83.7383 337.62 84.4293C337.963 85.1203 338.244 85.7453 338.245 85.8183C338.246 85.8903 338.323 86.0403 338.416 86.1513C338.805 86.6143 339.395 87.6033 339.284 87.6053C339.218 87.6063 339.243 87.6633 339.339 87.7303C339.436 87.7973 339.694 88.1523 339.914 88.5193C340.133 88.8863 340.41 89.2463 340.53 89.3193C340.649 89.3923 340.747 89.5613 340.747 89.6943C340.747 89.8273 340.817 89.9363 340.903 89.9363C340.988 89.9363 341.101 90.0673 341.154 90.2273C341.207 90.3883 341.456 90.7603 341.707 91.0553C341.958 91.3503 342.351 91.8633 342.581 92.1973C342.81 92.5303 343.129 92.9453 343.289 93.1193C343.449 93.2933 343.581 93.4823 343.581 93.5393C343.581 93.5953 343.787 93.8923 344.039 94.1973C344.291 94.5033 344.647 94.9513 344.831 95.1933C345.014 95.4363 345.412 95.9083 345.715 96.2433C346.018 96.5783 346.376 97.0593 346.511 97.3113C346.646 97.5633 346.829 97.7693 346.918 97.7693C347.008 97.7693 347.081 97.8313 347.081 97.9073C347.081 97.9833 347.418 98.4123 347.831 98.8613C348.243 99.3113 348.581 99.7263 348.581 99.7853C348.581 99.8433 348.974 100.303 349.456 100.805C349.937 101.308 351.081 102.529 351.997 103.519C352.914 104.51 353.846 105.477 354.069 105.669C354.292 105.862 354.979 106.525 355.596 107.144C356.213 107.763 356.804 108.269 356.909 108.269C357.014 108.269 357.054 108.344 356.997 108.436C356.941 108.527 356.972 108.602 357.066 108.602C357.161 108.602 357.578 108.942 357.993 109.357C358.408 109.772 358.747 110.08 358.747 110.041C358.747 109.842 360.167 111.39 360.181 111.602C360.189 111.74 360.255 112.144 360.328 112.501C360.424 112.972 360.408 113.118 360.27 113.033C360.162 112.966 360.081 113.019 360.081 113.158C360.081 113.291 359.963 113.445 359.82 113.5C359.674 113.556 359.612 113.685 359.679 113.794C359.747 113.904 359.727 113.943 359.632 113.884C359.54 113.827 359.303 113.965 359.107 114.192L358.749 114.603L355.322 114.572C353.438 114.555 351.857 114.478 351.81 114.402C351.763 114.326 351.663 114.301 351.588 114.348C351.452 114.432 349.712 114.168 349.247 113.992C349.11 113.94 348.735 113.872 348.414 113.841C347.851 113.786 347.164 113.655 347.164 113.602C347.164 113.588 347.052 113.548 346.914 113.513C346.777 113.478 346.364 113.369 345.997 113.271C345.631 113.173 345.218 113.063 345.081 113.027C344.943 112.991 344.5 112.842 344.096 112.697C343.692 112.551 343.323 112.471 343.276 112.518C343.229 112.565 343.035 112.502 342.844 112.378C342.653 112.254 342.085 112.051 341.581 111.928C341.077 111.804 340.516 111.606 340.335 111.486C340.154 111.367 339.887 111.269 339.742 111.269C339.596 111.269 339.166 111.119 338.787 110.936C338.407 110.752 337.952 110.602 337.776 110.602C337.599 110.602 337.365 110.495 337.256 110.363C337.147 110.231 336.819 110.072 336.527 110.009C336.033 109.902 335.485 109.682 333.831 108.927C332.336 108.244 331.573 107.935 331.374 107.932C331.259 107.93 330.976 107.782 330.747 107.602C330.518 107.423 330.264 107.275 330.181 107.273C330.099 107.271 329.363 106.931 328.545 106.519C327.727 106.107 326.951 105.769 326.819 105.769C326.688 105.769 326.58 105.713 326.579 105.644C326.578 105.575 326.296 105.39 325.954 105.232C324.321 104.479 322.456 103.585 322.081 103.376C320.964 102.755 320.26 102.436 320.006 102.436C319.853 102.436 319.767 102.372 319.815 102.294C319.864 102.216 319.587 102.051 319.2 101.928C318.814 101.805 318.236 101.531 317.917 101.32C317.598 101.108 317.256 100.936 317.157 100.936C317.058 100.936 316.644 100.77 316.237 100.569C315.83 100.367 315.46 100.192 315.414 100.18C315.368 100.168 315.106 100.065 314.831 99.9523C314.556 99.8383 314.302 99.7573 314.266 99.7723C314.23 99.7863 314.143 99.7033 314.071 99.5873C314 99.4723 313.801 99.3563 313.63 99.3293C313.458 99.3033 312.889 99.0923 312.365 98.8613C311.841 98.6293 311.377 98.4353 311.333 98.4303C311.29 98.4253 310.73 98.1623 310.089 97.8453C309.448 97.5283 308.884 97.2693 308.836 97.2693C308.709 97.2693 304.226 95.1923 303.229 94.6723C302.99 94.5473 302.75 94.4883 302.697 94.5423C302.644 94.5953 302.389 94.4953 302.132 94.3203C300.599 93.2753 297.653 93.4393 294.747 94.7323C294.427 94.8743 294.07 94.9913 293.956 94.9913C293.841 94.9913 293.747 95.0543 293.747 95.1303C293.747 95.2073 293.636 95.2693 293.5 95.2693C293.214 95.2693 291.191 96.2913 291.108 96.4773C291.078 96.5463 290.961 96.6023 290.848 96.6023C290.736 96.6023 290.496 96.7343 290.315 96.8943C289.913 97.2513 288.914 97.8233 288.914 97.6953C288.914 97.6443 288.775 97.7343 288.606 97.8943C288.437 98.0543 287.9 98.4863 287.415 98.8523C286.929 99.2193 286.28 99.7783 285.973 100.095C285.665 100.412 285.414 100.614 285.414 100.544C285.414 100.473 285.131 100.742 284.786 101.141C284.441 101.54 283.986 102.051 283.775 102.276C283.564 102.501 283.241 102.929 283.056 103.227C282.871 103.525 282.651 103.769 282.567 103.769C282.483 103.769 282.414 103.881 282.414 104.019C282.414 104.156 282.339 104.269 282.247 104.269C282.156 104.269 282.081 104.345 282.081 104.439C282.081 104.617 282.676 104.518 283.414 104.217C283.896 104.02 283.838 104.038 284.539 103.871C284.837 103.8 285.081 103.688 285.081 103.622C285.081 103.556 285.249 103.498 285.456 103.492C285.662 103.486 285.962 103.426 286.122 103.357C286.299 103.282 286.414 103.306 286.414 103.418C286.414 103.519 286.518 103.602 286.646 103.602C286.953 103.602 287.627 104.157 287.676 104.452C287.698 104.58 287.755 104.891 287.803 105.141C287.851 105.392 287.82 105.641 287.733 105.694C287.646 105.748 287.618 105.862 287.671 105.947C287.724 106.033 287.688 106.102 287.591 106.102C287.493 106.102 287.414 106.177 287.414 106.269C287.414 106.449 285.584 108.294 285.576 108.122C285.573 108.066 285.493 108.152 285.399 108.314C285.304 108.477 285.168 108.573 285.096 108.528C285.024 108.484 284.822 108.579 284.648 108.741C284.085 109.262 282.032 110.159 280.331 110.627C278.735 111.066 278.581 111.101 277.914 111.18C277.593 111.218 276.783 111.355 276.113 111.485C275.28 111.647 273.569 111.726 270.696 111.738C265.683 111.758 264.073 111.84 262.128 112.176C261.323 112.315 260.364 112.467 259.997 112.513C259.168 112.616 258.605 112.722 257.331 113.013C256.781 113.138 255.581 113.412 254.664 113.621C252.689 114.07 251.695 114.427 251.197 114.865C250.997 115.041 250.585 115.387 250.281 115.633C249.978 115.879 249.719 116.141 249.707 116.216C249.68 116.372 248.775 117.4 247.914 118.252C247.593 118.57 247.202 119.022 247.045 119.258C246.72 119.743 245.876 120.763 245.226 121.455C244.985 121.711 244.817 121.95 244.853 121.985C244.888 122.021 244.733 122.249 244.507 122.493C244.281 122.736 244.145 122.936 244.204 122.936C244.263 122.936 244.195 123.029 244.054 123.144C243.653 123.468 241.711 126.1 241.255 126.936C240.842 127.695 240.206 128.706 239.94 129.028C239.861 129.124 239.587 129.668 239.332 130.236C239.077 130.804 238.818 131.269 238.757 131.269C238.695 131.269 238.512 131.588 238.349 131.977C237.991 132.836 237.451 134.036 237.167 134.602C237.052 134.832 236.992 135.113 237.033 135.227C237.075 135.342 236.985 135.436 236.835 135.436C236.684 135.436 236.603 135.504 236.655 135.587C236.731 135.711 236.396 136.745 235.623 138.769C235.571 138.906 235.54 139.075 235.554 139.144C235.569 139.213 235.511 139.269 235.426 139.269C235.341 139.269 235.219 139.685 235.156 140.194C235.092 140.703 234.956 141.209 234.852 141.319C234.749 141.429 234.642 141.707 234.614 141.936C234.587 142.165 234.494 142.54 234.408 142.769C234.321 142.998 234.223 143.336 234.19 143.519C234.115 143.933 233.674 144.987 233.236 145.799C233.055 146.136 232.924 146.473 232.946 146.549C232.968 146.624 232.862 147.023 232.711 147.436C232.561 147.848 232.397 148.375 232.349 148.606C232.3 148.837 232.112 149.185 231.93 149.38C231.749 149.574 231.641 149.773 231.689 149.822C231.847 149.98 230.294 150.139 229.753 150.02C229.413 149.946 229.173 149.763 229.075 149.504C228.991 149.283 228.841 149.102 228.742 149.102C228.642 149.102 228.599 149.041 228.645 148.967C228.691 148.892 228.558 148.633 228.35 148.391C228.142 148.149 227.835 147.647 227.667 147.276C227.5 146.906 227.3 146.602 227.222 146.602C227.144 146.602 227.081 146.495 227.081 146.364C227.081 146.233 226.982 146.027 226.862 145.906C226.742 145.785 226.427 145.236 226.162 144.686C225.897 144.136 225.639 143.648 225.589 143.602C225.248 143.292 225.009 142.878 225.247 143.014C225.386 143.093 225.343 142.978 225.15 142.754C224.959 142.533 224.674 142.09 224.518 141.769C224.361 141.448 224.095 140.961 223.926 140.686C223.415 139.854 221.51 136.55 221.261 136.063C221.132 135.813 220.904 135.475 220.753 135.313C220.602 135.152 220.475 134.955 220.471 134.877C220.461 134.71 220.153 134.246 219.608 133.579C219.393 133.317 219.265 133.102 219.322 133.102C219.38 133.102 219.35 133.009 219.256 132.894C219.161 132.779 218.693 132.198 218.215 131.602C216.388 129.325 212.468 125.929 211.693 125.952C211.494 125.958 209.381 125.914 206.997 125.854C204.614 125.794 202.008 125.742 201.206 125.737C200.404 125.732 199.747 125.681 199.747 125.623C199.747 125.566 199.091 125.515 198.289 125.511C197.487 125.507 195.406 125.44 193.664 125.363C191.922 125.286 189.86 125.204 189.081 125.181C187.182 125.124 183.403 124.913 183.038 124.843C182.877 124.813 180.402 124.742 177.538 124.686C169.774 124.535 167.566 124.45 164.997 124.204C162.648 123.979 158.566 123.759 158.419 123.849C158.331 123.903 158.679 124.564 159.192 125.317C160.079 126.62 160.674 128.385 160.107 128.035C159.988 127.962 159.952 128.008 160.011 128.16C160.062 128.293 159.934 128.559 159.727 128.752C159.52 128.945 159.422 129.107 159.508 129.113C160.091 129.155 157.995 129.582 157.028 129.619C156.37 129.644 155.745 129.728 155.64 129.806C155.535 129.884 155.385 129.932 155.307 129.914C154.361 129.694 150.918 131.73 150.317 132.864C149.44 134.52 148.849 135.545 148.601 135.839C148.383 136.098 148.379 136.133 148.581 136.021C148.718 135.944 148.649 136.082 148.427 136.325C148.204 136.569 148.073 136.769 148.134 136.769C148.276 136.769 147.226 138.811 147 138.975C146.907 139.042 146.89 139.098 146.962 139.1C147.034 139.101 146.999 139.271 146.884 139.477C146.77 139.684 146.692 139.909 146.712 139.977C146.731 140.046 146.672 140.102 146.581 140.102C146.489 140.102 146.414 140.19 146.414 140.297C146.414 140.524 145.392 142.812 145.235 142.936C145.177 142.981 145.001 143.412 144.842 143.892C144.684 144.372 144.481 144.811 144.391 144.867C144.209 144.979 143.897 145.673 143.801 146.18C143.767 146.36 143.572 146.69 143.368 146.915C143.164 147.139 143.102 147.262 143.23 147.188C143.39 147.095 143.364 147.228 143.146 147.619C142.973 147.931 142.774 148.211 142.706 148.241C142.637 148.272 142.581 148.445 142.581 148.626C142.581 148.807 142.512 148.913 142.429 148.861C142.345 148.81 142.295 148.892 142.317 149.045C142.34 149.197 142.206 149.629 142.021 150.004C141.836 150.379 141.668 150.778 141.648 150.891C141.628 151.003 141.491 151.216 141.344 151.362C141.198 151.509 141.12 151.698 141.172 151.782C141.224 151.867 141.188 151.936 141.091 151.936C140.993 151.936 140.914 152.044 140.914 152.177C140.914 152.309 140.621 152.984 140.263 153.677C139.904 154.369 139.639 154.936 139.672 154.936C139.776 154.936 138.528 157.345 138.368 157.454C138.286 157.51 138.227 157.604 138.236 157.663C138.282 157.951 138.027 158.589 137.898 158.509C137.817 158.459 137.796 158.535 137.85 158.677C137.905 158.819 137.867 158.936 137.765 158.936C137.664 158.936 137.595 158.992 137.612 159.061C137.654 159.231 136.495 161.758 135.758 163.102C135.277 163.981 134.179 166.374 134.21 166.477C134.231 166.546 134.187 166.602 134.114 166.602C134.041 166.602 133.886 166.865 133.77 167.186C133.654 167.506 133.489 167.769 133.403 167.769C133.317 167.769 133.261 167.825 133.277 167.894C133.309 168.027 132.728 169.294 132.571 169.436C132.52 169.481 132.377 169.769 132.253 170.075C132.13 170.381 131.944 170.718 131.84 170.825C131.468 171.208 130.921 172.22 131.027 172.327C131.087 172.387 131.06 172.436 130.967 172.436C130.874 172.436 130.663 172.736 130.497 173.102C130.332 173.469 130.133 173.769 130.055 173.769C129.978 173.769 129.931 173.825 129.953 173.894C129.974 173.963 129.843 174.19 129.661 174.399C129.479 174.609 129.331 174.847 129.331 174.93C129.331 175.152 127.888 177.432 127.463 177.881C127.261 178.094 127.135 178.269 127.183 178.269C127.268 178.269 126.609 179.271 126.416 179.436C126.362 179.481 126.153 179.781 125.952 180.102C125.751 180.423 125.585 180.618 125.583 180.536C125.581 180.387 124.86 181.366 124.23 182.375C123.426 183.663 121.869 184.148 120.747 183.461C120.427 183.264 120.232 183.103 120.315 183.103C120.397 183.103 120.292 182.952 120.081 182.769C119.869 182.586 119.75 182.436 119.815 182.436C119.921 182.436 119.454 181.475 119.247 181.269C119.202 181.223 119.158 181.111 119.15 181.019C119.122 180.696 118.673 179.769 118.544 179.769C118.473 179.769 118.414 179.68 118.414 179.572C118.414 179.463 118.271 179.069 118.097 178.697C117.613 177.662 116.869 175.86 116.818 175.602C116.809 175.556 116.741 175.369 116.667 175.186C116.203 174.043 116.137 173.823 116.175 173.56C116.199 173.4 116.166 173.269 116.102 173.269C116.039 173.269 115.885 172.913 115.76 172.477C115.635 172.042 115.453 171.536 115.356 171.352C115.26 171.169 115.157 170.869 115.129 170.686C115.101 170.502 115.002 170.165 114.91 169.936C114.817 169.707 114.712 169.294 114.677 169.019C114.641 168.744 114.447 168.083 114.247 167.549C114.046 167.016 113.926 166.535 113.98 166.481C114.034 166.427 113.995 166.283 113.894 166.161C113.793 166.04 113.75 165.836 113.799 165.708C113.848 165.581 113.823 165.411 113.744 165.331C113.614 165.199 113.444 164.594 113.35 163.933C113.331 163.794 113.258 163.587 113.188 163.474C113.118 163.361 113.103 163.2 113.155 163.116C113.207 163.032 113.169 162.751 113.07 162.491C112.874 161.975 112.055 157.541 111.983 156.602C111.958 156.281 111.922 155.981 111.902 155.936C111.883 155.89 111.849 155.515 111.827 155.102C111.806 154.69 111.738 153.79 111.676 153.102C111.309 148.99 111.284 148.671 111.128 146.186C110.871 142.078 111.086 131.967 111.499 128.755C111.806 126.367 111.771 121.416 111.442 120.785C111.256 120.428 111.148 120.09 111.203 120.036C111.258 119.981 111.203 119.936 111.081 119.936C110.958 119.936 110.902 119.892 110.956 119.838C111.073 119.721 110.697 119.243 109.932 118.539C109.621 118.253 109.271 117.925 109.153 117.811C109.034 117.696 108.857 117.602 108.759 117.602C108.661 117.602 108.581 117.542 108.581 117.469C108.581 117.396 108.318 117.241 107.997 117.125C107.677 117.009 107.414 116.844 107.414 116.758C107.414 116.672 107.349 116.602 107.269 116.602C107.189 116.602 106.795 116.457 106.394 116.28C105.992 116.102 105.627 115.962 105.581 115.969C105.535 115.976 105.126 115.746 104.673 115.458C104.22 115.171 103.713 114.936 103.548 114.936C103.383 114.936 103.247 114.861 103.247 114.769C103.247 114.677 103.149 114.602 103.029 114.602C102.91 114.602 102.312 114.351 101.702 114.044C101.091 113.737 100.64 113.564 100.7 113.66C100.759 113.756 100.569 113.665 100.277 113.457C99.986 113.249 99.747 113.119 99.747 113.167C99.747 113.254 97.762 112.422 97.208 112.103C97.049 112.011 96.805 111.936 96.666 111.936C96.528 111.936 96.414 111.861 96.414 111.769C96.414 111.677 96.308 111.602 96.178 111.602C96.047 111.602 95.729 111.495 95.469 111.363C94.168 110.704 92.45 109.936 92.277 109.936C92.169 109.936 92.081 109.861 92.081 109.769C92.081 109.677 92.024 109.615 91.956 109.631C91.788 109.67 90.857 109.229 90.729 109.05C90.673 108.971 90.56 108.911 90.479 108.915C90.397 108.919 89.243 108.384 87.914 107.726C86.585 107.069 85.46 106.523 85.414 106.514C85.105 106.454 83.747 105.675 83.747 105.559C83.747 105.48 83.683 105.456 83.604 105.504C83.526 105.553 83.02 105.325 82.479 104.999C81.939 104.672 80.916 104.101 80.205 103.729C79.495 103.357 78.83 102.951 78.727 102.828C78.624 102.704 78.448 102.602 78.336 102.602C78.224 102.602 77.999 102.455 77.837 102.276C77.674 102.096 77.494 101.954 77.436 101.96C77.207 101.985 76.581 101.723 76.581 101.602C76.581 101.531 76.322 101.351 76.007 101.201C75.448 100.936 74.057 100.064 73.277 99.4903C72.808 99.1443 72.328 98.8663 71.664 98.5553C71.389 98.4263 71.061 98.1973 70.935 98.0453C70.809 97.8933 70.647 97.7693 70.575 97.7693C70.443 97.7693 68.828 96.7593 68.479 96.4593C68.377 96.3713 67.974 96.1243 67.582 95.9093C66.663 95.4073 66.435 95.2653 65.801 94.8113C65.514 94.6043 65.225 94.4363 65.158 94.4363C65.091 94.4363 64.765 94.2673 64.434 94.0623C64.102 93.8563 63.793 93.6863 63.747 93.6843C63.621 93.6793 61.72 92.8973 61.259 92.6603C61.037 92.5463 60.793 92.4913 60.718 92.5373C60.642 92.5843 60.581 92.5433 60.581 92.4463C60.581 92.3483 60.426 92.2693 60.236 92.2693C60.047 92.2693 59.729 92.1823 59.53 92.0753C59.33 91.9683 59.016 91.8613 58.832 91.8363C58.648 91.8113 58.085 91.7123 57.581 91.6163C55.722 91.2633 53.946 91.2613 53.056 91.6123C52.604 91.7903 52.088 91.9363 51.908 91.9363C51.728 91.9363 51.581 92.0153 51.581 92.1123C51.581 92.2093 51.505 92.2423 51.413 92.1853C51.321 92.1283 51.2 92.1983 51.145 92.3413C51.091 92.4843 50.981 92.5613 50.903 92.5123C50.824 92.4633 50.607 92.5763 50.42 92.7633C50.233 92.9503 50.027 93.1023 49.961 93.1023C49.895 93.1023 49.676 93.2953 49.474 93.5303C49.272 93.7653 49.044 93.9423 48.968 93.9243C48.893 93.9053 48.748 94.0523 48.646 94.2513C48.545 94.4503 48.334 94.7423 48.178 94.8993C47.26 95.8273 45.533 99.2573 45.658 99.9053C45.697 100.105 45.673 100.269 45.607 100.269C45.54 100.269 45.472 100.438 45.457 100.644C45.442 100.85 45.351 101.506 45.255 102.102C45.159 102.698 45.044 103.486 44.999 103.852C44.82 105.336 44.732 105.873 44.576 106.453C44.486 106.787 44.384 107.276 44.349 107.54C44.106 109.398 42.439 112.312 40.674 113.968C40.314 114.306 39.967 114.552 39.905 114.513C39.843 114.475 39.662 114.588 39.502 114.763C39.247 115.046 38.447 115.342 38.144 115.267C38.084 115.253 37.984 115.323 37.921 115.424C37.814 115.597 37.141 115.706 35.41 115.829C34.996 115.859 34.473 115.982 34.247 116.102C33.591 116.454 31.192 116.456 29.5 116.106C28.677 115.936 27.949 115.831 27.882 115.872C27.815 115.913 27.627 115.874 27.462 115.785C26.984 115.524 24.783 115.061 24.59 115.18C24.493 115.24 24.414 115.225 24.414 115.148C24.414 115.07 24.259 114.995 24.069 114.981C23.879 114.966 23.357 114.833 22.908 114.684C22.46 114.535 21.857 114.383 21.569 114.347C21.281 114.31 20.946 114.198 20.825 114.097C20.703 113.997 20.363 113.884 20.069 113.847C19.774 113.809 19.113 113.651 18.599 113.495C18.085 113.339 17.608 113.224 17.539 113.24C17.47 113.256 17.414 113.19 17.414 113.092C17.414 112.995 17.344 112.959 17.259 113.012C17.081 113.122 14.948 112.47 14.598 112.199C14.47 112.1 14.02 111.935 13.598 111.831C12.593 111.586 9.35498 110.48 7.49698 109.748C7.22198 109.64 6.88597 109.529 6.74997 109.502C6.61497 109.476 6.47697 109.374 6.44397 109.277C6.41197 109.18 6.31497 109.144 6.22797 109.198C6.02097 109.325 3.91397 108.338 3.91397 108.114C3.91397 108.02 3.72699 107.895 3.49799 107.838C3.26999 107.78 3.12396 107.666 3.17496 107.585C3.22596 107.503 3.18096 107.436 3.07596 107.436C2.86596 107.436 1.08096 105.637 1.08096 105.425C1.08096 105.352 0.967963 105.18 0.830963 105.043C0.692963 104.906 0.561971 104.619 0.538971 104.406C0.515971 104.193 0.456982 103.982 0.406982 103.936C0.0379824 103.594 -0.142019 101.201 0.130981 100.269C0.171981 100.131 0.260956 99.7753 0.329956 99.4773C0.398956 99.1793 0.520959 98.9363 0.601959 98.9363C0.681959 98.9363 0.730975 98.8793 0.711975 98.8113C0.659975 98.6273 1.04498 97.9723 1.81598 96.9363C3.43198 94.7613 3.95298 93.1093 3.33698 92.1123C3.27198 92.0073 3.19197 91.6053 3.15997 91.2203C3.12797 90.8343 2.97596 89.9943 2.82196 89.3523C2.53096 88.1463 2.30097 80.5843 2.54297 80.1973C2.60397 80.0993 2.66698 79.8693 2.68298 79.6863C2.74598 78.9513 3.28598 77.0143 3.59598 76.4053C3.77798 76.0493 3.88597 75.6923 3.83597 75.6113C3.78597 75.5303 3.80197 75.4393 3.87097 75.4083C4.06497 75.3223 4.58096 74.3333 4.58096 74.0473C4.58096 73.9073 4.67397 73.6923 4.78897 73.5693C5.00197 73.3393 5.09097 73.0783 5.12997 72.5623C5.14197 72.4013 5.20198 72.2693 5.26498 72.2693C5.32698 72.2693 5.41496 72.0253 5.45996 71.7273C5.50596 71.4293 5.59696 70.9983 5.66196 70.7693C5.72696 70.5403 5.80998 69.9123 5.84698 69.3753C5.88298 68.8373 6.05396 67.6753 6.22696 66.7923C6.39896 65.9083 6.54397 65.0733 6.54697 64.9363C6.55697 64.5843 6.67898 64.0993 6.98398 63.2003C7.12898 62.7733 7.24698 62.2813 7.24698 62.1063C7.24698 61.9323 7.32197 61.7423 7.41397 61.6863C7.50597 61.6293 7.58096 61.4793 7.58096 61.3533C7.58096 61.2273 7.66796 60.9133 7.77496 60.6553C7.88196 60.3973 7.97896 60.1483 7.98996 60.1023C8.07196 59.7693 8.81096 57.9653 9.08496 57.4283C9.26896 57.0663 9.36697 56.7693 9.30197 56.7693C9.23697 56.7693 9.30498 56.6753 9.45398 56.5613C9.60298 56.4463 9.74798 56.2023 9.77698 56.0193C9.80698 55.8363 9.96497 55.5373 10.129 55.3563C10.293 55.1743 10.473 54.8373 10.53 54.6063C10.587 54.3753 10.81 53.9043 11.026 53.5613C11.242 53.2173 11.361 52.9333 11.291 52.9313C11.221 52.9283 11.295 52.8493 11.456 52.7563C11.616 52.6623 11.747 52.4453 11.747 52.2733C11.747 52.1003 11.841 51.8603 11.956 51.7393C12.295 51.3823 13.081 50.1243 13.081 49.9393C13.081 49.8463 13.156 49.7693 13.247 49.7693C13.339 49.7693 13.414 49.6563 13.414 49.5193C13.414 49.3813 13.489 49.2693 13.581 49.2693C13.672 49.2693 13.747 49.1563 13.747 49.0193C13.747 48.8813 13.81 48.7693 13.886 48.7693C13.962 48.7693 14.277 48.3793 14.586 47.9023C14.895 47.4253 15.249 46.9193 15.371 46.7773C15.777 46.3073 17.326 44.3143 17.581 43.9343C17.718 43.7293 17.926 43.4623 18.042 43.3413C18.158 43.2203 18.528 42.7603 18.864 42.3203C19.2 41.8793 19.555 41.4303 19.653 41.3213C19.751 41.2123 20.018 40.8483 20.247 40.5123C20.476 40.1773 20.795 39.7603 20.956 39.5853C21.116 39.4113 21.247 39.1983 21.247 39.1113C21.247 39.0243 21.341 38.8923 21.456 38.8193C21.732 38.6423 22.414 37.6623 22.414 37.4423C22.414 37.3473 22.477 37.2693 22.554 37.2693C22.786 37.2693 24.497 35.4773 24.497 35.2353C24.497 35.1653 24.648 35.0033 24.833 34.8743C25.017 34.7453 25.786 34.0313 26.542 33.2873C27.297 32.5443 27.984 31.9363 28.068 31.9363C28.152 31.9363 28.478 31.6363 28.792 31.2693C29.106 30.9023 29.422 30.6023 29.495 30.6023C29.568 30.6023 29.723 30.4713 29.841 30.3113C29.958 30.1503 30.118 30.0193 30.197 30.0193C30.275 30.0193 30.702 29.7223 31.144 29.3603C31.587 28.9973 32.061 28.6843 32.197 28.6643C32.334 28.6443 32.57 28.5053 32.722 28.3563C32.873 28.2073 33.597 27.7173 34.331 27.2673C35.064 26.8173 35.755 26.3713 35.865 26.2763C35.976 26.1803 36.112 26.1023 36.168 26.1023C36.287 26.1023 37.376 25.3133 37.769 24.9423C37.918 24.8013 38.255 24.5373 38.519 24.3563C38.782 24.1743 39.39 23.6363 39.871 23.1603C40.351 22.6833 41.101 22.0073 41.538 21.6563C41.974 21.3063 42.368 20.9813 42.414 20.9363C42.658 20.6913 43.59 20.1023 43.732 20.1023C43.823 20.1023 43.957 19.9983 44.031 19.8703C44.104 19.7423 44.445 19.4723 44.789 19.2703C45.133 19.0683 45.414 18.8313 45.414 18.7433C45.414 18.6553 45.483 18.6253 45.567 18.6773C45.652 18.7293 45.839 18.6543 45.984 18.5093C46.129 18.3643 46.247 18.3003 46.247 18.3663C46.247 18.4333 46.385 18.3633 46.553 18.2113C46.72 18.0593 46.908 17.9853 46.969 18.0463C47.031 18.1083 47.081 18.0713 47.081 17.9643C47.081 17.7883 50.031 16.2713 50.511 16.2013C50.623 16.1843 50.815 16.0873 50.939 15.9843C51.319 15.6693 55.206 14.2293 55.706 14.2183C55.82 14.2163 55.914 14.1563 55.914 14.0853C55.914 14.0143 56.045 13.9663 56.206 13.9783C56.571 14.0053 58.167 13.4913 61.164 12.3813C61.806 12.1443 62.518 11.9243 62.747 11.8933C62.976 11.8623 63.338 11.7423 63.55 11.6253C63.762 11.5083 64.091 11.3823 64.281 11.3463C64.471 11.3093 64.753 11.1643 64.909 11.0243C65.064 10.8833 65.234 10.8113 65.286 10.8643C65.339 10.9163 65.518 10.7283 65.684 10.4473C65.85 10.1663 66.12 9.89332 66.283 9.84132C66.447 9.78932 66.581 9.64132 66.581 9.51332C66.581 9.38132 66.682 9.31932 66.814 9.36932C66.942 9.41832 67.096 9.37832 67.157 9.28032C67.217 9.18232 67.386 9.10231 67.531 9.10231C67.835 9.10231 69.278 8.41031 69.179 8.31231C69.143 8.27631 69.442 7.94232 69.845 7.57132C70.247 7.20132 70.54 6.83932 70.496 6.76732C70.452 6.69632 70.521 6.59732 70.649 6.54832C70.778 6.49832 70.932 6.23331 70.992 5.95831C71.187 5.07031 72.04 3.19831 72.463 2.72731C72.69 2.47531 72.841 2.26932 72.799 2.26932C72.608 2.26932 73.704 1.46932 74.039 1.36432C74.245 1.29932 74.414 1.18032 74.414 1.09932C74.414 1.01732 74.695 0.900316 75.039 0.838316C75.383 0.776316 75.769 0.64232 75.898 0.53932C76.027 0.43632 76.158 0.371315 76.19 0.394315C76.221 0.417315 76.266 0.430322 76.289 0.423322C76.312 0.416322 76.668 0.376318 77.081 0.334318C77.493 0.292318 78.037 0.189314 78.289 0.105314C78.586 0.00631381 78.747 0.0123203 78.747 0.12132C78.747 0.21532 78.839 0.230309 78.956 0.156309C79.384 -0.114691 83.935 -0.0116859 85.247 0.299314Z" fill="#0CD4E4"/>
<path fill-rule="evenodd" clip-rule="evenodd" d="M134.871 20.2882C134.695 20.3872 134.474 20.3932 134.313 20.3032C134.113 20.1912 134.185 20.1502 134.605 20.1392C135.054 20.1272 135.106 20.1562 134.871 20.2882ZM39.7464 23.3522C39.4354 23.6732 39.1434 23.9362 39.0984 23.9362C39.0524 23.9362 39.2694 23.6732 39.5804 23.3522C39.8914 23.0312 40.1834 22.7692 40.2284 22.7692C40.2744 22.7692 40.0574 23.0312 39.7464 23.3522ZM24.0804 35.7962C24.0804 35.8462 23.8554 36.1222 23.5804 36.4092C23.3054 36.6972 23.0804 36.8722 23.0804 36.7992C23.0804 36.7252 23.3054 36.4492 23.5804 36.1862C23.8554 35.9222 24.0804 35.7472 24.0804 35.7962ZM345.74 43.3522C345.738 43.4442 345.551 43.8192 345.325 44.1862C345.099 44.5522 344.917 44.7772 344.919 44.6862C344.921 44.5942 345.108 44.2192 345.334 43.8522C345.56 43.4862 345.743 43.2612 345.74 43.3522ZM10.5794 54.4422C10.5784 54.5762 10.4284 54.9112 10.2464 55.1862C9.8224 55.8272 9.8224 55.6852 10.2464 54.8522C10.4304 54.4932 10.5794 54.3082 10.5794 54.4422ZM5.87439 69.6022C5.87439 69.9232 5.8404 70.0542 5.7984 69.8942C5.7564 69.7342 5.7564 69.4712 5.7984 69.3112C5.8404 69.1502 5.87439 69.2812 5.87439 69.6022ZM49.0804 93.8952C49.0804 93.9872 48.9674 94.1552 48.8304 94.2692C48.6904 94.3852 48.5804 94.4032 48.5804 94.3102C48.5804 94.2182 48.6924 94.0502 48.8304 93.9362C48.9694 93.8202 49.0804 93.8022 49.0804 93.8952ZM288.413 98.1632C288.413 98.2092 288.188 98.4072 287.913 98.6022C287.638 98.7982 287.413 98.9212 287.413 98.8752C287.413 98.8292 287.638 98.6312 287.913 98.4362C288.188 98.2402 288.413 98.1172 288.413 98.1632ZM360.309 111.692C360.366 111.841 360.407 112.088 360.399 112.241C360.391 112.394 360.318 112.298 360.238 112.027C360.08 111.501 360.136 111.241 360.309 111.692ZM272.663 111.769C272.956 111.895 272.94 111.914 272.528 111.924C272.256 111.931 272.103 111.866 272.163 111.769C272.22 111.677 272.28 111.608 272.298 111.614C272.315 111.62 272.48 111.69 272.663 111.769ZM159.746 123.862C159.127 123.997 158.277 124.02 158.351 123.901C158.396 123.828 158.784 123.778 159.215 123.788C159.645 123.799 159.884 123.832 159.746 123.862ZM169.953 124.554C169.745 124.593 169.445 124.592 169.286 124.55C169.127 124.508 169.296 124.476 169.663 124.478C170.03 124.48 170.16 124.514 169.953 124.554ZM189.538 125.217C189.378 125.259 189.115 125.259 188.955 125.217C188.794 125.175 188.926 125.141 189.246 125.141C189.567 125.141 189.698 125.175 189.538 125.217ZM209.038 125.884C208.878 125.926 208.615 125.926 208.455 125.884C208.294 125.842 208.426 125.808 208.746 125.808C209.067 125.808 209.198 125.842 209.038 125.884ZM205.953 125.887C205.745 125.927 205.445 125.925 205.286 125.884C205.127 125.842 205.296 125.809 205.663 125.811C206.03 125.813 206.16 125.847 205.953 125.887Z" fill="#0CCCE4"/>
</svg>
