<svg width="367" height="225" viewBox="0 0 367 225" fill="none" xmlns="http://www.w3.org/2000/svg">
<path fill-rule="evenodd" clip-rule="evenodd" d="M24.8949 0.195183C24.5069 0.336183 24.0249 1.11419 23.8899 1.81619C23.8249 2.15419 24.0509 3.12118 24.3489 3.77718C24.4869 4.08218 24.5589 4.43818 24.5079 4.56918C24.4579 4.70018 24.4819 4.80718 24.5609 4.80718C24.6399 4.80718 24.7019 4.97618 24.6999 5.18218C24.6979 5.38918 24.8089 5.97018 24.9469 6.47418C25.0849 6.97818 25.2029 7.50318 25.2079 7.64118C25.2139 7.77818 25.2789 8.45318 25.3539 9.14118C25.5299 10.7632 25.5179 15.5922 25.3309 18.5572C25.2489 19.8412 25.1839 21.1532 25.1849 21.4742C25.1869 21.7952 25.1279 22.8822 25.0549 23.8912C24.5599 30.7172 24.3819 40.0202 24.6549 44.8912C24.7159 45.9912 24.7589 47.0412 24.7499 47.2242C24.7409 47.4072 24.8119 48.7202 24.9069 50.1412C25.0019 51.5612 25.1079 53.4132 25.1429 54.2542C25.1769 55.0962 25.2619 55.8762 25.3319 55.9882C25.4179 56.1272 25.3879 56.1492 25.2399 56.0572C25.1059 55.9752 25.0619 55.9882 25.1259 56.0922C25.1829 56.1842 25.2729 56.9272 25.3249 57.7422C25.3779 58.5572 25.4599 59.4102 25.5089 59.6372C25.5979 60.0472 25.5969 68.0052 25.5089 68.8072C25.4829 69.0372 25.4089 69.9742 25.3429 70.8912C25.1789 73.1652 25.0699 74.3282 24.9829 74.7242C24.9429 74.9072 24.8789 75.2452 24.8409 75.4742C24.8029 75.7032 24.7159 76.1072 24.6489 76.3722C24.5809 76.6372 24.5139 76.9742 24.4989 77.1222C24.4639 77.4812 24.1209 78.6332 23.6239 80.0572C23.3999 80.6992 23.1859 81.3742 23.1489 81.5572C23.0129 82.2242 21.9029 84.6882 21.6979 84.7802C21.6289 84.8102 21.5729 84.9322 21.5729 85.0512C21.5729 85.1692 21.4589 85.3612 21.3189 85.4772C21.1789 85.5932 21.1029 85.7262 21.1489 85.7722C21.1949 85.8182 21.0089 86.1602 20.7359 86.5312C20.4629 86.9032 20.2399 87.3082 20.2399 87.4332C20.2399 87.5582 20.1649 87.6142 20.0729 87.5572C19.9809 87.5012 19.9059 87.5672 19.9059 87.7052C19.9059 87.8422 19.7399 88.0722 19.5359 88.2152C19.3319 88.3572 19.2289 88.4742 19.3069 88.4742C19.3849 88.4742 18.6829 89.2242 17.7479 90.1412C16.8119 91.0572 15.9779 91.8072 15.8929 91.8072C15.8089 91.8072 15.7399 91.8772 15.7399 91.9632C15.7399 92.0482 15.5899 92.1662 15.4059 92.2242C15.2229 92.2822 15.0729 92.4372 15.0729 92.5692C15.0729 92.7002 14.9569 92.8072 14.8159 92.8072C14.6739 92.8072 14.1639 93.0992 13.6809 93.4562C13.1979 93.8122 12.3949 94.3162 11.8959 94.5742C11.3979 94.8322 10.9649 95.1032 10.9339 95.1752C10.9039 95.2482 10.7899 95.3072 10.6819 95.3072C10.5729 95.3072 10.1859 95.4682 9.8209 95.6632C9.4549 95.8592 9.1559 96.0042 9.1559 95.9862C9.1559 95.8502 5.9369 97.2592 5.7399 97.4812C5.5699 97.6732 4.2209 98.3072 3.9849 98.3072C3.8499 98.3072 3.7399 98.3822 3.7399 98.4742C3.7399 98.5662 3.6269 98.6412 3.4899 98.6412C3.3519 98.6412 3.2399 98.7242 3.2399 98.8252C3.2399 98.9272 3.1289 98.9672 2.9939 98.9152C2.8569 98.8632 2.6489 98.9642 2.5209 99.1472C2.3959 99.3252 2.2529 99.4322 2.2039 99.3832C2.0489 99.2282 0.321903 101.036 0.0909033 101.596C-0.233097 102.381 0.363903 103.807 1.0159 103.807C1.1159 103.807 1.3049 104.029 1.4359 104.299C1.7249 104.895 3.1029 106.141 3.4739 106.141C3.6199 106.141 3.7399 106.211 3.7399 106.296C3.7399 106.382 3.9079 106.503 4.1149 106.566C4.3209 106.628 4.8859 106.858 5.3699 107.077C5.8539 107.295 6.3789 107.475 6.5359 107.476C6.6939 107.478 7.1249 107.584 7.4939 107.713C7.8639 107.842 8.4639 107.992 8.8279 108.047C9.1919 108.101 10.4239 108.29 11.5659 108.465C12.7079 108.641 13.6909 108.754 13.7519 108.717C13.8119 108.68 14.3929 108.76 15.0439 108.896C16.1759 109.132 17.2339 109.252 19.2399 109.371C20.5979 109.452 22.7639 109.658 23.2399 109.752C23.4689 109.797 25.1189 109.868 26.9059 109.909C28.6939 109.95 30.2879 110.012 30.4479 110.046C30.6079 110.081 30.7399 110.039 30.7399 109.953C30.7399 109.858 30.8639 109.862 31.0519 109.963C31.3289 110.111 31.4909 110.112 32.1559 109.97C32.2479 109.951 32.3979 109.949 32.4899 109.967C32.5809 109.985 33.1809 109.985 33.8229 109.967C38.6339 109.833 44.0019 109.991 45.0499 110.298C45.3579 110.388 45.6579 110.452 45.7169 110.441C45.7749 110.43 45.9349 110.462 46.0729 110.512C46.2099 110.562 46.6419 110.689 47.0309 110.795C47.4209 110.901 47.7399 111.059 47.7399 111.147C47.7399 111.235 47.8399 111.307 47.9619 111.307C48.3729 111.307 51.0979 113.542 52.8409 115.307C54.1879 116.673 54.5969 117.116 54.5569 117.168C54.5329 117.199 54.8389 117.543 55.2369 117.932C55.6339 118.322 55.9129 118.641 55.8569 118.641C55.8009 118.641 56.0889 118.97 56.4979 119.372C56.9059 119.775 57.2399 120.169 57.2399 120.249C57.2399 120.329 57.3929 120.489 57.5789 120.606C57.7659 120.723 57.8849 120.874 57.8429 120.942C57.7999 121.011 58.0669 121.364 58.4349 121.729C58.8029 122.093 59.2099 122.595 59.3399 122.844C59.4699 123.093 59.7279 123.378 59.9129 123.477C60.0979 123.576 60.2099 123.721 60.1619 123.798C60.1139 123.876 60.1869 123.982 60.3239 124.035C60.4609 124.087 60.5729 124.208 60.5729 124.302C60.5729 124.397 60.7039 124.614 60.8649 124.784C61.0249 124.955 61.3809 125.377 61.6559 125.722C61.9309 126.067 62.3219 126.527 62.5239 126.745C62.7259 126.963 62.8379 127.143 62.7739 127.146C62.7089 127.149 62.7889 127.228 62.9519 127.323C63.1139 127.417 63.2029 127.565 63.1499 127.651C63.0969 127.737 63.1289 127.807 63.2219 127.807C63.3139 127.807 63.6349 128.164 63.9339 128.599C64.2329 129.034 64.6299 129.552 64.8169 129.749C65.0039 129.946 65.3439 130.353 65.5729 130.653C65.8019 130.954 66.0689 131.28 66.1659 131.378C66.2619 131.477 66.5319 131.838 66.7639 132.181C66.9959 132.525 67.2349 132.756 67.2959 132.695C67.3569 132.635 67.4059 132.693 67.4059 132.825C67.4059 132.957 67.8189 133.502 68.3229 134.035C68.8269 134.568 69.2399 135.028 69.2399 135.058C69.2399 135.087 69.6329 135.536 70.1149 136.055C71.0839 137.101 72.1179 138.286 73.3229 139.73C73.5979 140.06 74.8539 141.369 76.1149 142.639C77.3749 143.909 78.4119 145.011 78.4189 145.086C78.4259 145.162 78.4609 145.374 78.4959 145.557C78.5809 146.001 78.5779 146.795 78.4849 148.307C78.4099 149.519 78.7199 150.807 79.0869 150.807C79.1589 150.807 79.2589 150.939 79.3099 151.099C79.3969 151.375 79.6409 151.518 80.8229 151.991C81.1499 152.122 82.6499 152.204 85.1559 152.228C88.7749 152.263 89.3079 152.301 90.7399 152.629C91.0599 152.703 91.4969 152.769 91.7099 152.776C91.9229 152.783 92.4479 152.904 92.8759 153.045C93.3049 153.186 93.9559 153.347 94.3229 153.404C94.6899 153.461 95.0329 153.534 95.0869 153.567C95.1409 153.599 95.4029 153.666 95.6699 153.715C95.9379 153.764 96.3439 153.845 96.5729 153.896C96.8019 153.946 97.2799 154.018 97.6349 154.055C98.2599 154.12 98.5769 154.211 100.906 154.999C101.502 155.201 102.136 155.356 102.315 155.344C102.494 155.333 102.729 155.396 102.836 155.484C102.943 155.573 103.574 155.831 104.24 156.057C104.905 156.284 105.552 156.554 105.678 156.658C105.803 156.763 105.906 156.8 105.906 156.74C105.906 156.681 106.262 156.822 106.697 157.053C107.131 157.285 107.565 157.474 107.661 157.474C107.757 157.474 108.47 157.742 109.246 158.069C110.022 158.396 111.013 158.782 111.448 158.927C111.883 159.073 112.24 159.251 112.24 159.323C112.24 159.396 112.388 159.426 112.569 159.391C112.751 159.356 112.946 159.403 113.002 159.494C113.13 159.701 115.399 160.751 116.74 161.224C117.11 161.355 117.656 161.573 117.952 161.71C118.463 161.946 120.518 162.73 120.78 162.789C121.109 162.863 121.499 163.047 121.58 163.166C121.63 163.239 121.818 163.327 121.997 163.361C122.785 163.509 123.24 163.69 123.24 163.853C123.24 163.95 123.285 163.984 123.341 163.928C123.396 163.873 123.841 164.004 124.328 164.219C124.815 164.435 125.255 164.569 125.306 164.519C125.357 164.468 125.494 164.505 125.611 164.602C125.727 164.699 126.105 164.83 126.45 164.895C126.795 164.959 127.119 165.08 127.17 165.162C127.221 165.245 127.333 165.27 127.418 165.217C127.503 165.164 127.573 165.213 127.573 165.325C127.573 165.438 127.616 165.486 127.669 165.433C127.722 165.381 128.603 165.639 129.627 166.007C130.652 166.376 131.602 166.696 131.74 166.719C132.102 166.78 132.594 166.967 133.091 167.233C133.331 167.361 133.565 167.426 133.612 167.379C133.66 167.332 133.951 167.403 134.261 167.538C135.061 167.887 135.453 168.028 135.74 168.072C135.877 168.092 136.423 168.263 136.953 168.451C137.484 168.639 137.866 168.71 137.803 168.608C137.736 168.499 137.764 168.469 137.87 168.535C138.089 168.67 141.089 169.316 141.893 169.402C142.207 169.435 142.882 169.549 143.393 169.655C144.508 169.887 144.544 169.895 145.073 170.022C145.302 170.077 145.779 170.168 146.133 170.225C146.757 170.326 146.773 170.346 146.659 170.86C146.594 171.152 146.522 171.541 146.499 171.724C146.476 171.907 146.369 172.274 146.261 172.538C146.152 172.803 146.034 173.178 145.998 173.372C145.961 173.565 145.917 173.761 145.899 173.807C145.881 173.853 145.878 173.955 145.892 174.033C145.906 174.111 145.766 174.581 145.58 175.077C145.049 176.497 145.043 178.141 145.57 178.141C145.642 178.141 145.744 178.306 145.797 178.508C145.85 178.711 145.943 178.826 146.005 178.764C146.066 178.703 146.276 178.741 146.47 178.849C146.664 178.957 146.879 179.058 146.948 179.072C147.017 179.087 147.092 179.119 147.115 179.143C147.387 179.434 150.485 179.192 152.906 178.691C154.419 178.378 155.955 178.083 156.32 178.036C156.686 177.989 157.061 177.889 157.154 177.815C157.344 177.662 158.418 177.392 158.623 177.445C158.696 177.464 159.333 177.288 160.039 177.054C162.392 176.274 162.987 176.092 163.323 176.045C163.506 176.02 164.081 175.85 164.601 175.667C165.12 175.484 165.589 175.379 165.642 175.432C165.696 175.486 165.74 175.449 165.74 175.35C165.74 175.251 165.871 175.192 166.031 175.218C166.192 175.244 166.585 175.154 166.906 175.017C167.227 174.88 167.677 174.745 167.906 174.718C168.136 174.691 168.473 174.627 168.656 174.576C169.412 174.366 170.511 174.099 170.823 174.051C171.006 174.022 171.756 173.876 172.49 173.727C173.223 173.577 174.199 173.427 174.658 173.394C175.118 173.36 176.13 173.215 176.908 173.071C178.293 172.815 179.899 172.674 182.74 172.561C188.234 172.341 191.611 172.285 204.406 172.198C221.577 172.081 220.573 172.098 220.573 171.914C220.573 171.833 220.674 171.85 220.797 171.952C220.92 172.054 221.053 172.105 221.092 172.066C221.132 172.026 221.538 171.947 221.994 171.889C222.45 171.832 222.952 171.748 223.111 171.703C223.269 171.658 223.719 171.594 224.111 171.562C224.502 171.53 224.93 171.478 225.061 171.447C225.202 171.414 225.371 171.594 225.475 171.891C225.573 172.166 225.69 172.428 225.738 172.474C225.785 172.52 225.832 172.707 225.843 172.891C225.89 173.67 226.12 174.897 226.233 174.974C226.301 175.02 226.361 175.17 226.368 175.307C226.374 175.445 226.427 175.745 226.484 175.974C226.542 176.203 226.674 176.822 226.777 177.349C226.881 177.876 227.023 178.307 227.093 178.307C227.163 178.307 227.194 178.443 227.162 178.609C227.13 178.775 227.175 179.281 227.262 179.734C227.385 180.375 227.501 187.769 227.394 188.141C227.348 188.301 227.257 189.401 227.175 190.807C227.101 192.067 226.955 193.555 226.643 196.224C226.589 196.682 226.533 197.264 226.518 197.516C226.502 197.768 226.425 197.974 226.345 197.974C226.266 197.974 226.24 198.124 226.288 198.307C226.336 198.491 226.301 198.641 226.21 198.641C226.119 198.641 226.077 198.734 226.117 198.849C226.156 198.964 226.121 199.282 226.038 199.557C225.819 200.283 225.694 200.85 225.68 201.182C225.674 201.343 225.619 201.474 225.559 201.474C225.498 201.474 225.39 201.793 225.319 202.182C225.15 203.101 225.171 203.026 225.019 203.266C224.946 203.38 224.93 203.544 224.983 203.629C225.035 203.714 225.012 203.825 224.931 203.876C224.81 203.95 224.583 204.718 224.58 205.06C224.58 205.106 224.464 205.368 224.322 205.642C224.125 206.023 224.115 206.141 224.277 206.143C224.449 206.145 224.449 206.171 224.277 206.28C224.161 206.355 224.036 206.56 224.001 206.736C223.965 206.913 223.817 207.282 223.672 207.557C223.527 207.832 223.408 208.154 223.407 208.272C223.407 208.389 223.287 208.667 223.142 208.889C222.997 209.111 222.926 209.371 222.985 209.467C223.044 209.562 223.021 209.641 222.934 209.641C222.806 209.641 222.58 210.196 222.563 210.553C222.561 210.598 222.332 211.093 222.053 211.654C221.775 212.214 221.518 212.829 221.481 213.02C221.444 213.21 221.328 213.42 221.222 213.485C221.117 213.55 221.078 213.68 221.136 213.774C221.194 213.869 221.183 213.971 221.112 214.001C221.041 214.032 220.771 214.582 220.511 215.224C220.252 215.866 219.861 216.81 219.643 217.322C219.424 217.834 219.225 218.434 219.201 218.655C219.176 218.876 219.086 219.108 219 219.17C218.684 219.398 218.688 221.919 219.006 222.457C219.704 223.639 224.678 224.619 225.695 223.775C225.811 223.679 225.906 223.639 225.906 223.686C225.906 223.761 226.199 223.705 227.406 223.402C227.544 223.367 227.994 223.216 228.406 223.066C228.819 222.917 229.302 222.761 229.48 222.721C229.657 222.681 230.13 222.494 230.53 222.306C230.929 222.118 231.327 222.009 231.415 222.062C231.502 222.116 231.573 222.096 231.573 222.017C231.573 221.938 231.967 221.733 232.448 221.562C233.966 221.022 238.008 218.801 238.29 218.353C238.363 218.236 238.532 218.141 238.665 218.141C238.798 218.141 238.906 218.066 238.906 217.974C238.906 217.882 239 217.805 239.115 217.803C239.229 217.801 239.772 217.426 240.32 216.97C240.868 216.514 241.369 216.141 241.432 216.141C241.495 216.141 241.85 215.841 242.22 215.474C242.59 215.107 242.928 214.807 242.971 214.807C243.013 214.807 243.429 214.431 243.894 213.97C244.359 213.51 244.74 213.166 244.74 213.207C244.74 213.28 248.231 209.778 249.531 208.399C249.921 207.986 250.24 207.572 250.24 207.478C250.24 207.384 250.3 207.307 250.374 207.307C250.448 207.307 250.729 207.014 250.999 206.656C251.268 206.298 251.557 206.047 251.64 206.099C251.723 206.15 251.744 206.116 251.687 206.023C251.63 205.931 251.918 205.489 252.328 205.043C252.738 204.597 253.073 204.155 253.074 204.061C253.074 203.967 253.337 203.605 253.657 203.256C253.978 202.908 254.24 202.551 254.24 202.465C254.24 202.378 254.355 202.176 254.496 202.016C255.118 201.307 255.646 200.575 255.675 200.383C255.708 200.156 256.291 199.281 256.807 198.682C256.985 198.476 257.069 198.307 256.993 198.307C256.917 198.307 256.972 198.176 257.115 198.016C257.259 197.855 257.767 196.974 258.245 196.057C258.723 195.141 259.404 193.846 259.758 193.181C260.111 192.515 260.401 191.934 260.401 191.888C260.4 191.566 260.638 190.974 260.768 190.974C260.855 190.974 260.874 190.891 260.811 190.789C260.748 190.687 260.763 190.556 260.843 190.497C261.051 190.347 261.74 188.902 261.74 188.618C261.74 188.488 261.846 188.23 261.976 188.044C262.106 187.859 262.264 187.429 262.328 187.089C262.392 186.749 262.512 186.428 262.595 186.377C262.677 186.326 262.702 186.214 262.649 186.129C262.596 186.044 262.624 185.974 262.711 185.974C262.846 185.974 263.015 185.418 263.104 184.682C263.117 184.568 263.191 184.474 263.267 184.474C263.344 184.474 263.406 184.36 263.406 184.222C263.406 184.083 263.479 183.839 263.567 183.68C263.655 183.521 263.911 182.866 264.135 182.224C264.359 181.582 264.636 180.832 264.75 180.557C264.864 180.282 264.983 179.922 265.015 179.757C265.047 179.591 265.191 179.229 265.334 178.952C265.478 178.675 265.611 178.285 265.63 178.086C265.649 177.887 265.759 177.556 265.874 177.351C266.053 177.032 266.845 174.886 266.967 174.391C266.989 174.299 267.172 173.858 267.374 173.411C267.575 172.964 267.74 172.524 267.74 172.434C267.74 172.343 267.881 171.997 268.054 171.663C268.507 170.791 269.468 168.739 269.47 168.641C269.47 168.595 269.604 168.415 269.766 168.24C269.929 168.066 270.022 167.86 269.974 167.782C269.926 167.704 269.968 167.641 270.067 167.641C270.167 167.641 270.324 167.472 270.418 167.266C270.709 166.623 270.975 166.222 271.406 165.778C271.636 165.542 271.973 165.135 272.156 164.874C272.34 164.613 272.731 164.153 273.026 163.853C273.321 163.553 273.509 163.307 273.443 163.307C273.029 163.307 276.894 160.185 277.454 160.067C277.565 160.043 277.769 159.984 277.906 159.934C279.086 159.509 279.726 159.309 280.129 159.239C280.389 159.194 280.707 159.07 280.836 158.963C280.965 158.856 281.277 158.749 281.53 158.725C281.983 158.681 282.164 158.629 283.156 158.254C283.431 158.15 283.731 158.053 283.823 158.038C284.292 157.961 286.355 157.238 286.563 157.077C286.755 156.928 286.774 156.941 286.656 157.141C286.537 157.342 286.555 157.353 286.749 157.197C286.882 157.091 287.29 156.949 287.656 156.883C288.023 156.816 288.698 156.615 289.156 156.435C289.959 156.121 290.184 156.054 291.055 155.875C291.274 155.829 291.699 155.69 291.999 155.564C292.3 155.438 292.578 155.368 292.617 155.407C292.657 155.447 293.207 155.315 293.839 155.115C294.472 154.915 295.102 154.745 295.24 154.738C295.377 154.73 296.015 154.559 296.656 154.358C298.695 153.719 299.728 153.43 300.114 153.389C300.321 153.368 300.49 153.335 300.49 153.316C300.49 153.297 300.602 153.259 300.74 153.231C300.877 153.202 301.327 153.083 301.74 152.965C302.152 152.847 302.621 152.768 302.781 152.789C302.942 152.811 303.073 152.751 303.073 152.656C303.073 152.562 303.186 152.528 303.323 152.58C303.461 152.633 303.573 152.589 303.573 152.482C303.573 152.375 303.651 152.336 303.747 152.395C303.843 152.454 304.018 152.422 304.137 152.324C304.255 152.225 304.627 152.125 304.962 152.101C305.298 152.077 305.572 151.993 305.573 151.915C305.573 151.836 305.683 151.814 305.818 151.866C305.952 151.917 306.101 151.898 306.147 151.822C306.225 151.697 306.955 151.529 308.094 151.374C308.335 151.341 308.748 151.229 309.011 151.125C309.274 151.02 309.79 150.905 310.156 150.869C310.523 150.833 311.386 150.66 312.073 150.484C312.761 150.309 313.66 150.117 314.073 150.058C314.485 150 315.31 149.846 315.906 149.716C316.502 149.585 317.365 149.445 317.823 149.403C318.862 149.309 320.925 148.982 321.077 148.888C321.139 148.85 321.783 148.769 322.507 148.708C323.231 148.648 324.011 148.527 324.24 148.439C324.469 148.351 324.956 148.249 325.323 148.211C325.69 148.173 326.177 148.1 326.406 148.049C326.636 147.998 327 147.932 327.216 147.903C327.577 147.854 328.176 147.683 330.24 147.044C330.652 146.916 331.149 146.788 331.343 146.761C331.537 146.733 332.042 146.541 332.464 146.335C332.886 146.129 333.59 145.8 334.028 145.605C335.164 145.098 336.143 144.599 336.24 144.478C336.285 144.42 336.606 144.201 336.952 143.991C337.299 143.78 337.674 143.522 337.786 143.416C337.898 143.31 338.252 143.023 338.573 142.778C339.639 141.962 341.74 139.735 341.74 139.421C341.74 139.207 343.33 137.224 344.279 136.254C344.807 135.714 345.24 135.317 345.24 135.372C345.24 135.469 345.846 134.995 346.414 134.453C346.57 134.304 346.778 134.154 346.876 134.12C347.125 134.033 348.284 133.055 349.369 132.016C349.872 131.534 350.341 131.141 350.411 131.141C350.481 131.141 350.769 130.878 351.051 130.557C351.332 130.236 351.607 129.974 351.662 129.974C351.745 129.974 352.299 129.417 353.523 128.105C353.634 127.987 353.821 127.805 353.94 127.701C354.059 127.597 354.606 127.036 355.156 126.454C355.706 125.873 356.213 125.415 356.281 125.436C356.35 125.457 356.406 125.402 356.406 125.314C356.406 125.226 356.712 124.832 357.086 124.439C359.042 122.382 359.457 121.974 359.592 121.974C359.673 121.974 359.74 121.861 359.74 121.724C359.74 121.586 359.796 121.472 359.865 121.47C360.014 121.465 360.91 120.28 360.903 120.095C360.901 120.024 361.078 119.787 361.298 119.567C361.901 118.964 362.809 114.205 362.256 114.547C362.195 114.585 362.157 114.136 362.171 113.551C362.196 112.532 362.894 110.961 363.405 110.776C363.483 110.747 363.572 110.614 363.602 110.48C363.632 110.346 363.825 110.047 364.031 109.815C364.237 109.584 364.514 109.167 364.646 108.888C364.778 108.61 365.075 108.163 365.306 107.894C365.537 107.625 365.695 107.374 365.656 107.335C365.618 107.296 365.689 107.018 365.815 106.716C365.941 106.415 366.001 106.124 365.948 106.071C365.894 106.018 365.93 105.974 366.027 105.974C366.125 105.974 366.249 105.858 366.303 105.715C366.371 105.54 366.336 105.496 366.196 105.581C366.039 105.675 366.034 105.647 366.175 105.464C366.277 105.332 366.365 105.111 366.369 104.974C366.374 104.836 366.452 104.177 366.544 103.509C366.891 100.971 366.603 98.1662 365.787 96.1412C365.732 96.0032 365.699 95.8342 365.713 95.7662C365.728 95.6972 365.665 95.6412 365.573 95.6412C365.481 95.6412 365.406 95.4972 365.406 95.3212C365.406 95.1462 365.327 94.9752 365.231 94.9432C365.134 94.9112 365.037 94.7662 365.016 94.6212C364.995 94.4762 364.848 94.1592 364.689 93.9172C364.531 93.6752 364.398 93.4202 364.394 93.3512C364.389 93.2812 364.249 93.0742 364.082 92.8912C363.915 92.7072 363.664 92.3322 363.523 92.0572C363.383 91.7822 363.11 91.3902 362.917 91.1862C362.724 90.9812 362.586 90.7772 362.611 90.7332C362.636 90.6882 362.543 90.5182 362.404 90.3542C362.265 90.1912 361.969 89.7952 361.746 89.4742C361.28 88.8032 360.62 88.1412 360.417 88.1412C360.341 88.1412 360.235 87.9752 360.182 87.7732C360.129 87.5712 360.041 87.4502 359.986 87.5052C359.931 87.5602 359.535 87.2682 359.105 86.8552C357.692 85.5012 355.949 84.1412 355.627 84.1412C355.506 84.1412 355.406 84.0712 355.406 83.9852C355.406 83.9002 355.262 83.7842 355.086 83.7282C354.909 83.6722 354.497 83.4442 354.169 83.2222C353.841 82.9992 353.573 82.8572 353.573 82.9052C353.573 82.9532 353.367 82.8802 353.115 82.7432C352.517 82.4172 350.692 81.6322 350.391 81.5722C350.08 81.5092 349.602 81.3362 348.99 81.0642C348.715 80.9422 348.058 80.7222 347.531 80.5752C347.004 80.4282 346.142 80.1872 345.615 80.0412C345.088 79.8942 344.488 79.6942 344.282 79.5962C344.075 79.4982 343.863 79.4622 343.809 79.5162C343.756 79.5692 343.312 79.4752 342.823 79.3072C342.334 79.1392 341.898 79.0382 341.853 79.0832C341.809 79.1272 341.634 79.0912 341.464 79.0012C341.295 78.9122 340.819 78.7432 340.406 78.6252C339.461 78.3572 339.534 78.3792 339.24 78.2642C339.102 78.2102 338.765 78.1272 338.49 78.0802C338.215 78.0332 337.09 77.8042 335.99 77.5722C333.892 77.1282 333.254 77.0122 332.156 76.8742C331.79 76.8272 331.089 76.7122 330.599 76.6172C329.57 76.4172 328.634 76.2942 328.156 76.2962C327.973 76.2972 327.163 76.1852 326.356 76.0462C324.648 75.7532 323.893 75.6582 322.406 75.5522C321.81 75.5092 320.63 75.3942 319.783 75.2972C314.783 74.7192 291.704 74.5452 287.406 75.0522C287.085 75.0902 286.11 75.1642 285.24 75.2172C284.369 75.2692 283.455 75.3532 283.209 75.4042C282.963 75.4542 282.026 75.5242 281.126 75.5582C279.287 75.6292 278.429 75.6912 275.323 75.9792C274.131 76.0902 272.856 76.1992 272.49 76.2212C272.123 76.2442 271.785 76.2812 271.74 76.3042C271.694 76.3282 271.598 76.3372 271.527 76.3262C271.457 76.3142 270.444 76.4232 269.277 76.5672C268.111 76.7122 266.556 76.8592 265.823 76.8942C265.09 76.9292 263.965 77.0382 263.323 77.1362C262.681 77.2342 261.819 77.3462 261.406 77.3862C259.314 77.5882 258.118 77.6782 257.765 77.6612C257.549 77.6502 257.289 77.6932 257.187 77.7572C257.084 77.8202 256.81 77.8832 256.578 77.8972C256.346 77.9102 255.754 77.9792 255.262 78.0492C254.77 78.1202 253.945 78.1992 253.429 78.2252C252.912 78.2522 251.772 78.3932 250.896 78.5402C250.019 78.6862 248.969 78.8402 248.562 78.8812C247.441 78.9942 246.37 79.1342 245.906 79.2282C244.886 79.4352 244.595 79.4732 243.249 79.5742C242.465 79.6322 241.78 79.7052 241.727 79.7352C241.572 79.8252 238.721 80.1922 237.906 80.2272C237.098 80.2622 236.145 80.3912 234.823 80.6462C234.365 80.7342 233.577 80.8402 233.073 80.8812C231.874 80.9782 231.378 81.0482 230.073 81.3002C229.477 81.4152 228.69 81.5282 228.323 81.5502C227.956 81.5722 227.056 81.7222 226.323 81.8832C225.59 82.0452 224.802 82.1772 224.573 82.1772C224.344 82.1772 224.081 82.2342 223.99 82.3032C223.898 82.3722 223.71 82.4262 223.571 82.4242C223.433 82.4212 222.78 82.5512 222.12 82.7122C221.46 82.8742 220.823 82.9732 220.705 82.9322C220.587 82.8912 220.207 82.9562 219.862 83.0762C219.517 83.1962 219.197 83.2912 219.151 83.2882C219.105 83.2852 218.861 83.3282 218.608 83.3832C218.355 83.4392 217.887 83.5142 217.569 83.5502C217.25 83.5862 216.54 83.7392 215.99 83.8882C215.44 84.0382 214.699 84.2012 214.344 84.2512C213.989 84.3022 213.209 84.4832 212.612 84.6532C212.014 84.8242 211.475 84.9332 211.414 84.8952C211.352 84.8572 210.599 85.0052 209.74 85.2242C208.88 85.4432 208.118 85.5852 208.046 85.5402C207.973 85.4962 207.594 85.5452 207.202 85.6512C206.81 85.7562 206.227 85.8732 205.906 85.9102C205.585 85.9472 205.136 86.0142 204.906 86.0592C204.677 86.1042 203.818 86.1792 202.997 86.2252C202.176 86.2722 200.804 86.4222 199.949 86.5602C197.481 86.9572 195.304 87.0392 193.392 86.8092C191.233 86.5482 191.167 86.5362 190.772 86.3252C190.595 86.2302 190.412 86.1912 190.365 86.2382C190.318 86.2852 189.652 85.7062 188.884 84.9522C188.117 84.1982 187.438 83.5932 187.375 83.6072C187.312 83.6222 187.213 83.4852 187.155 83.3042C187.098 83.1222 186.943 82.9742 186.812 82.9742C186.68 82.9742 186.573 82.8992 186.573 82.8062C186.573 82.7142 186.385 82.4752 186.156 82.2762C185.927 82.0772 185.739 81.8342 185.739 81.7362C185.739 81.6382 185.519 81.4102 185.251 81.2312C184.983 81.0512 184.775 80.8632 184.788 80.8142C184.832 80.6582 184.178 79.7462 183.615 79.1772C183.317 78.8762 183.073 78.5762 183.073 78.5102C183.073 78.4442 182.891 78.1662 182.669 77.8912C182.021 77.0882 181.505 76.4692 181.281 76.2252C181.167 76.1002 181.073 75.9172 181.073 75.8192C181.073 75.7212 181.013 75.6412 180.941 75.6412C180.868 75.6412 180.535 75.2842 180.201 74.8492C179.867 74.4142 179.299 73.7422 178.937 73.3572C178.576 72.9712 178.311 72.6252 178.348 72.5882C178.386 72.5502 178.227 72.3952 177.995 72.2432C177.763 72.0912 177.573 71.8562 177.573 71.7202C177.573 71.5852 177.507 71.4742 177.425 71.4742C177.344 71.4742 177.153 71.2112 177.001 70.8912C176.849 70.5702 176.666 70.3072 176.596 70.3072C176.525 70.3072 176.215 69.8202 175.906 69.2242C175.598 68.6282 175.284 68.1412 175.209 68.1412C175.134 68.1412 175.073 68.0252 175.073 67.8832C175.073 67.7412 174.904 67.4512 174.698 67.2372C174.353 66.8812 173.693 65.8512 173.667 65.6302C173.651 65.4902 172.254 63.7882 171.248 62.6822C171.06 62.4762 170.906 62.2592 170.906 62.2002C170.906 61.8492 162.824 54.1812 162.544 54.2662C162.468 54.2892 162.406 54.1992 162.406 54.0652C162.406 53.8272 160.127 52.1112 159.156 51.6182C158.881 51.4782 157.962 50.9762 157.114 50.5022C156.266 50.0282 155.466 49.6412 155.336 49.6412C155.207 49.6412 155.074 49.5622 155.042 49.4652C155.01 49.3682 154.872 49.2722 154.737 49.2522C154.601 49.2312 154.377 49.1422 154.24 49.0542C153.773 48.7542 151.301 47.8802 149.49 47.3742C148.94 47.2212 148.396 47.0212 148.281 46.9312C148.167 46.8402 148.073 46.8152 148.073 46.8752C148.073 46.9342 147.852 46.8682 147.581 46.7282C145.173 45.4832 143.895 47.6252 144.503 51.8912C144.529 52.0742 144.592 52.6362 144.644 53.1412C144.695 53.6452 144.819 54.6102 144.919 55.2862C145.02 55.9622 145.128 57.3122 145.159 58.2862C145.331 63.6792 145.428 65.7072 145.518 65.8532C145.786 66.2872 145.777 79.8942 145.507 81.8072C145.138 84.4192 145.102 84.6052 144.778 85.5572C144.621 86.0162 144.489 86.4662 144.483 86.5572C144.451 87.0842 143.054 90.2962 142.635 90.8072C142.522 90.9452 142.427 91.1152 142.423 91.1862C142.414 91.3622 141.903 92.0952 141.448 92.5852C141.242 92.8072 141.073 93.0512 141.073 93.1262C141.073 93.2922 138.829 95.6412 138.671 95.6412C138.557 95.6412 138.289 95.8412 137.742 96.3352C137.572 96.4882 137.39 96.5682 137.335 96.5142C137.281 96.4602 137.136 96.5522 137.013 96.7202C136.891 96.8882 136.704 96.9722 136.598 96.9062C136.493 96.8412 136.406 96.8722 136.406 96.9742C136.406 97.0762 136.337 97.1182 136.253 97.0662C136.169 97.0142 135.987 97.0842 135.848 97.2222C135.71 97.3612 135.556 97.4742 135.507 97.4742C135.457 97.4742 134.999 97.6652 134.49 97.8982C133.981 98.1312 133.491 98.2762 133.402 98.2212C133.313 98.1662 133.24 98.2002 133.24 98.2972C133.24 98.3952 133.183 98.4602 133.115 98.4442C132.931 98.4002 131.329 98.9142 130.878 99.1612C130.486 99.3772 130.27 99.4412 129.649 99.5302C129.462 99.5562 129.237 99.6192 129.149 99.6702C129.061 99.7202 128.765 99.8212 128.49 99.8942C128.215 99.9672 127.915 100.051 127.823 100.08C127.731 100.11 127.244 100.218 126.74 100.319C126.235 100.421 125.748 100.565 125.656 100.641C125.565 100.716 125.19 100.827 124.823 100.888C124.456 100.948 124.006 101.06 123.823 101.136C122.866 101.532 122.386 101.676 122.304 101.594C122.254 101.544 121.9 101.603 121.518 101.726C120.659 102 119.599 102.207 119.156 102.187C118.973 102.178 118.081 102.318 117.175 102.498C114.965 102.937 111.381 103.113 108.99 102.899C107.484 102.765 107.273 102.73 107.133 102.59C107.07 102.526 106.772 102.474 106.472 102.474C106.172 102.474 105.88 102.399 105.823 102.307C105.766 102.216 105.572 102.141 105.391 102.141C105.21 102.141 105.019 102.028 104.967 101.891C104.914 101.753 104.815 101.641 104.748 101.641C104.537 101.641 102.409 99.7342 99.7949 97.2022C99.2149 96.6402 98.7399 96.2202 98.7399 96.2682C98.7399 96.3172 98.5199 96.1392 98.2509 95.8742C97.6119 95.2432 97.2799 94.9742 97.1409 94.9742C97.0789 94.9742 96.8519 94.8052 96.6379 94.5992C96.0069 93.9922 95.4959 93.5582 95.4059 93.5522C95.3599 93.5492 94.6509 93.1002 93.8289 92.5552C93.0079 92.0092 92.2579 91.5582 92.1629 91.5512C92.0669 91.5452 91.7769 91.4772 91.5159 91.4022C90.3499 91.0622 89.1309 92.1092 89.1029 93.4742C89.0959 93.8352 88.8819 95.9082 88.8269 96.1412C88.7779 96.3522 88.5729 97.4482 88.4859 97.9672C88.4329 98.2842 88.3089 98.6412 88.2109 98.7592C88.1129 98.8772 88.0839 98.9742 88.1479 98.9742C88.2109 98.9742 88.1449 99.0932 87.9999 99.2372C87.8549 99.3822 87.7709 99.5562 87.8129 99.6242C87.9649 99.8702 86.2979 101.445 85.4879 101.82C85.0309 102.032 84.6189 102.247 84.5729 102.298C84.2729 102.631 80.6789 102.653 79.4899 102.329C77.5839 101.809 76.3029 101.411 75.9899 101.24C75.8059 101.141 75.5809 101.055 75.4899 101.049C75.3979 101.044 75.0599 100.898 74.7399 100.724C74.4189 100.551 74.0809 100.395 73.9899 100.378C73.7939 100.343 70.8979 98.9742 69.5729 98.2902C69.0689 98.0302 68.3749 97.6952 68.0309 97.5442C67.6879 97.3942 67.4059 97.2042 67.4059 97.1232C67.4059 97.0412 67.3009 96.9742 67.1729 96.9742C66.8979 96.9742 63.5859 95.0152 62.9549 94.4782C62.8439 94.3842 62.6869 94.3072 62.6039 94.3072C62.5219 94.3072 62.2549 94.1222 62.0099 93.8952C61.7649 93.6682 61.5319 93.4992 61.4909 93.5202C61.4499 93.5412 61.2639 93.4262 61.0759 93.2662C60.8889 93.1052 60.6959 92.9742 60.6469 92.9742C60.5139 92.9742 58.4979 91.2832 58.4339 91.1172C58.4039 91.0382 58.2889 90.9742 58.1799 90.9742C58.0699 90.9742 57.5529 90.5242 57.0299 89.9742C56.5079 89.4242 56.0219 88.9742 55.9499 88.9742C55.7879 88.9742 55.0729 87.4342 55.0729 87.0852C55.0729 86.9432 55.0059 86.7852 54.9229 86.7342C54.7659 86.6372 54.3769 85.1902 54.3159 84.4742C54.2759 84.0102 54.1689 83.4932 53.8329 82.1412C53.7079 81.6362 53.6119 81.0742 53.6189 80.8912C53.6269 80.7072 53.5879 80.3702 53.5319 80.1412C53.4759 79.9122 53.3499 79.2742 53.2509 78.7242C53.1519 78.1742 52.9109 76.9362 52.7159 75.9742C52.5199 75.0112 52.3379 73.9972 52.3099 73.7192C52.2819 73.4422 52.1389 72.6542 51.9909 71.9692C51.7379 70.7902 51.6159 70.0922 51.4999 69.1412C51.4719 68.9122 51.4279 68.6862 51.4019 68.6412C51.3769 68.5952 51.3379 68.4822 51.3169 68.3912C51.2959 68.2992 51.2629 68.1862 51.2449 68.1412C51.1949 68.0162 51.0979 67.3162 51.0139 66.4742C50.9729 66.0612 50.8959 65.6112 50.8439 65.4742C50.7919 65.3362 50.7059 64.9992 50.6519 64.7242C50.5319 64.1012 50.4389 63.7242 50.4069 63.7242C50.3939 63.7242 50.3579 63.2762 50.3269 62.7292C50.2959 62.1822 50.1879 61.7072 50.0869 61.6732C49.9869 61.6402 49.9439 61.5482 49.9919 61.4712C50.0399 61.3932 49.9939 60.9682 49.8899 60.5272C49.7849 60.0852 49.6669 59.4242 49.6269 59.0572C49.5869 58.6912 49.4509 57.9782 49.3249 57.4742C49.1989 56.9702 49.0549 56.2952 49.0029 55.9742C48.8539 55.0392 48.7329 54.4112 48.6429 54.1122C48.4839 53.5862 48.2449 52.3562 48.1219 51.4332C48.0759 51.0902 47.9869 50.8412 47.9249 50.8792C47.8619 50.9182 47.7979 50.8242 47.7819 50.6702C47.7009 49.9012 47.5899 49.0572 47.5699 49.0572C47.5579 49.0572 47.5189 48.9452 47.4849 48.8072C47.4509 48.6702 47.2999 48.0702 47.1499 47.4742C46.9999 46.8782 46.8519 46.2782 46.8209 46.1412C46.7899 46.0032 46.7499 45.8722 46.7319 45.8492C46.6749 45.7792 46.6289 45.5852 46.4939 44.8492C46.4219 44.4592 46.2939 44.1412 46.2089 44.1412C46.1229 44.1412 46.0979 44.0692 46.1519 43.9812C46.2059 43.8942 46.1349 43.5472 45.9949 43.2112C45.8549 42.8752 45.7399 42.4192 45.7399 42.1972C45.7399 41.9752 45.5789 41.4782 45.3819 41.0922C45.1849 40.7062 45.0399 40.3702 45.0609 40.3452C45.0819 40.3202 44.9269 39.7582 44.7179 39.0952C44.5089 38.4332 44.3529 37.8342 44.3719 37.7662C44.3909 37.6972 44.3189 37.6412 44.2119 37.6412C44.1049 37.6412 44.0599 37.5982 44.1119 37.5462C44.1639 37.4942 44.0189 36.9882 43.7899 36.4212C43.5599 35.8542 43.3679 35.2972 43.3619 35.1822C43.3559 35.0682 43.2879 34.9742 43.2119 34.9742C43.1359 34.9742 43.0699 34.8432 43.0669 34.6822C43.0639 34.5222 42.8319 33.7532 42.5499 32.9742C42.2689 32.1952 41.9039 31.1822 41.7389 30.7242C41.5729 30.2662 41.3209 29.6192 41.1789 29.2872C41.0359 28.9552 40.9669 28.6362 41.0239 28.5792C41.0819 28.5212 41.0409 28.4742 40.9339 28.4742C40.8269 28.4742 40.7399 28.4082 40.7399 28.3282C40.7399 28.2472 40.6129 27.8912 40.4589 27.5362C40.3039 27.1812 40.1929 26.8292 40.2129 26.7542C40.2319 26.6782 40.1009 26.3412 39.9229 26.0042C39.7439 25.6672 39.4649 25.0162 39.3029 24.5572C39.1399 24.0992 38.8319 23.4052 38.6179 23.0162C38.4039 22.6262 38.2719 22.3072 38.3249 22.3072C38.3769 22.3072 38.2299 21.9822 37.9969 21.5842C37.7639 21.1872 37.5729 20.7402 37.5729 20.5932C37.5729 20.4452 37.4779 20.2642 37.3619 20.1912C37.2449 20.1172 37.0649 19.7572 36.9599 19.3912C36.7029 18.4922 36.3759 17.6772 35.9909 16.9742C35.8149 16.6532 35.6869 16.3342 35.7049 16.2662C35.7239 16.1972 35.6519 16.1412 35.5449 16.1412C35.4379 16.1412 35.3989 16.0932 35.4569 16.0342C35.5149 15.9762 35.4279 15.7322 35.2639 15.4932C35.0989 15.2532 34.8669 14.8142 34.7489 14.5162C34.6299 14.2182 34.4669 13.9742 34.3859 13.9742C34.3059 13.9742 34.2529 13.9182 34.2699 13.8492C34.3189 13.6442 33.6719 12.3072 33.5239 12.3072C33.4479 12.3072 33.4359 12.2282 33.4959 12.1302C33.5559 12.0332 33.4929 11.8262 33.3559 11.6722C33.1139 11.4012 31.5659 8.23118 31.5089 7.89118C31.4929 7.79918 31.4099 7.61218 31.3239 7.47418C31.2379 7.33618 30.8099 6.50319 30.3729 5.62119C29.9359 4.74019 29.4719 3.93118 29.3429 3.82418C29.2139 3.71718 29.0129 3.38819 28.8969 3.09319C28.7799 2.79919 28.5729 2.42618 28.4359 2.26618C28.2999 2.10518 28.2369 1.97418 28.2969 1.97418C28.3569 1.97418 28.2749 1.82918 28.1149 1.65118C27.9539 1.47418 27.6739 1.13918 27.4909 0.908181C26.9319 0.202181 25.7609 -0.119817 24.8949 0.195183Z" fill="#0CD4E4"/>
<path fill-rule="evenodd" clip-rule="evenodd" d="M26.0733 0.0302014C26.0733 0.0732014 26.3153 0.1922 26.6113 0.2962C26.9073 0.3992 27.0753 0.414204 26.9863 0.331204C26.7963 0.153204 26.0733 -0.0847986 26.0733 0.0302014ZM24.1073 0.850201C24.0113 0.965201 23.8893 1.2842 23.8353 1.5582L23.7383 2.0572L23.9283 1.5572C24.0323 1.2822 24.1923 0.964202 24.2823 0.849202C24.4983 0.576202 24.3333 0.577201 24.1073 0.850201ZM25.1123 22.3072C25.1123 22.6282 25.1463 22.7592 25.1883 22.5992C25.2303 22.4392 25.2303 22.1762 25.1883 22.0162C25.1463 21.8552 25.1123 21.9872 25.1123 22.3072ZM291.033 74.9252C291.241 74.9652 291.541 74.9642 291.7 74.9222C291.859 74.8802 291.69 74.8482 291.323 74.8492C290.956 74.8512 290.826 74.8852 291.033 74.9252ZM311.201 74.9282C311.501 74.9652 311.951 74.9642 312.201 74.9262C312.451 74.8882 312.206 74.8582 311.656 74.8592C311.106 74.8602 310.901 74.8912 311.201 74.9282ZM194.781 86.9302C195.217 86.9642 195.929 86.9642 196.365 86.9302C196.8 86.8962 196.444 86.8672 195.573 86.8672C194.702 86.8672 194.346 86.8962 194.781 86.9302Z" fill="#0CCCE4"/>
</svg>
